<mxfile host="app.diagrams.net" modified="2024-06-28T12:21:57.491Z" agent="Mozilla/5.0 (Macintosh; Intel Mac OS X 10_15_7) AppleWebKit/537.36 (KHTML, like Gecko) Chrome/126.0.0.0 Safari/537.36" etag="UylbCb_xM346mUcodi3f" version="24.6.4" type="github">
  <diagram name="Página-1" id="fXSYrHH0r40WF7RT9Ph7">
    <mxGraphModel dx="1593" dy="3263" grid="1" gridSize="10" guides="1" tooltips="1" connect="1" arrows="1" fold="1" page="0" pageScale="1" pageWidth="827" pageHeight="1169" math="0" shadow="0">
      <root>
        <mxCell id="0" />
        <mxCell id="1" parent="0" />
        <mxCell id="FPdHVrewZq1G3l7FEMrT-1" value="ANIMAL" style="shape=table;startSize=30;container=1;collapsible=1;childLayout=tableLayout;fixedRows=1;rowLines=0;fontStyle=1;align=center;resizeLast=1;html=1;" parent="1" vertex="1">
          <mxGeometry x="2360" y="-1920" width="180" height="280" as="geometry" />
        </mxCell>
        <mxCell id="FPdHVrewZq1G3l7FEMrT-2" value="" style="shape=tableRow;horizontal=0;startSize=0;swimlaneHead=0;swimlaneBody=0;fillColor=none;collapsible=0;dropTarget=0;points=[[0,0.5],[1,0.5]];portConstraint=eastwest;top=0;left=0;right=0;bottom=1;" parent="FPdHVrewZq1G3l7FEMrT-1" vertex="1">
          <mxGeometry y="30" width="180" height="40" as="geometry" />
        </mxCell>
        <mxCell id="FPdHVrewZq1G3l7FEMrT-3" value="PK" style="shape=partialRectangle;connectable=0;fillColor=none;top=0;left=0;bottom=0;right=0;fontStyle=1;overflow=hidden;whiteSpace=wrap;html=1;" parent="FPdHVrewZq1G3l7FEMrT-2" vertex="1">
          <mxGeometry width="30" height="40" as="geometry">
            <mxRectangle width="30" height="40" as="alternateBounds" />
          </mxGeometry>
        </mxCell>
        <mxCell id="FPdHVrewZq1G3l7FEMrT-4" value="id_aninal" style="shape=partialRectangle;connectable=0;fillColor=none;top=0;left=0;bottom=0;right=0;align=left;spacingLeft=6;fontStyle=5;overflow=hidden;whiteSpace=wrap;html=1;" parent="FPdHVrewZq1G3l7FEMrT-2" vertex="1">
          <mxGeometry x="30" width="150" height="40" as="geometry">
            <mxRectangle width="150" height="40" as="alternateBounds" />
          </mxGeometry>
        </mxCell>
        <mxCell id="FPdHVrewZq1G3l7FEMrT-5" value="" style="shape=tableRow;horizontal=0;startSize=0;swimlaneHead=0;swimlaneBody=0;fillColor=none;collapsible=0;dropTarget=0;points=[[0,0.5],[1,0.5]];portConstraint=eastwest;top=0;left=0;right=0;bottom=0;" parent="FPdHVrewZq1G3l7FEMrT-1" vertex="1">
          <mxGeometry y="70" width="180" height="210" as="geometry" />
        </mxCell>
        <mxCell id="FPdHVrewZq1G3l7FEMrT-6" value="" style="shape=partialRectangle;connectable=0;fillColor=none;top=0;left=0;bottom=0;right=0;editable=1;overflow=hidden;whiteSpace=wrap;html=1;" parent="FPdHVrewZq1G3l7FEMrT-5" vertex="1">
          <mxGeometry width="30" height="210" as="geometry">
            <mxRectangle width="30" height="210" as="alternateBounds" />
          </mxGeometry>
        </mxCell>
        <mxCell id="FPdHVrewZq1G3l7FEMrT-7" value="espécie&lt;br&gt;&lt;br&gt;&lt;div&gt;habitates&lt;br&gt;&lt;br&gt;velocidade&lt;br&gt;&lt;br&gt;vida_max&lt;br&gt;&lt;br&gt;stamina_max&lt;br&gt;&lt;br&gt;textura&lt;/div&gt;&lt;div&gt;&lt;br&gt;&lt;/div&gt;&lt;div&gt;tipo&lt;/div&gt;" style="shape=partialRectangle;connectable=0;fillColor=none;top=0;left=0;bottom=0;right=0;align=left;spacingLeft=6;overflow=hidden;whiteSpace=wrap;html=1;" parent="FPdHVrewZq1G3l7FEMrT-5" vertex="1">
          <mxGeometry x="30" width="150" height="210" as="geometry">
            <mxRectangle width="150" height="210" as="alternateBounds" />
          </mxGeometry>
        </mxCell>
        <mxCell id="FPdHVrewZq1G3l7FEMrT-14" value="&lt;font style=&quot;font-size: 48px;&quot;&gt;Modelo Relacional do Jogo Red Dead Redemption&lt;/font&gt;" style="text;html=1;align=center;verticalAlign=middle;whiteSpace=wrap;rounded=0;" parent="1" vertex="1">
          <mxGeometry x="1741" y="-2230" width="1170" height="40" as="geometry" />
        </mxCell>
        <mxCell id="FPdHVrewZq1G3l7FEMrT-15" value="&lt;b&gt;ANIMAL&amp;nbsp;&lt;/b&gt;{&lt;u&gt;&lt;b&gt;id_animal (PK)&lt;/b&gt;&lt;/u&gt;, espécie, habitates, velocidade, vida_max, stamina_max, textura}" style="text;html=1;align=center;verticalAlign=middle;whiteSpace=wrap;rounded=0;" parent="1" vertex="1">
          <mxGeometry x="-282" y="-1800" width="492" height="30" as="geometry" />
        </mxCell>
        <mxCell id="FPdHVrewZq1G3l7FEMrT-16" value="&lt;font style=&quot;font-size: 24px;&quot;&gt;&lt;b&gt;Modelagem por tuplas&lt;/b&gt;&lt;/font&gt;" style="text;html=1;align=center;verticalAlign=middle;whiteSpace=wrap;rounded=0;" parent="1" vertex="1">
          <mxGeometry x="-300" y="-1862" width="290" height="30" as="geometry" />
        </mxCell>
        <mxCell id="FPdHVrewZq1G3l7FEMrT-17" value="&lt;b&gt;INSTANCIA_ANIMAL&lt;/b&gt;&amp;nbsp;{&lt;u&gt;&lt;b&gt;id_animal (PK,FK), id_inst_animal (PK),&lt;/b&gt;&lt;/u&gt; vida_atual, stamina_atual}" style="text;align=center;verticalAlign=middle;whiteSpace=wrap;rounded=0;html=1;" parent="1" vertex="1">
          <mxGeometry x="-285" y="-1760" width="502" height="30" as="geometry" />
        </mxCell>
        <mxCell id="FPdHVrewZq1G3l7FEMrT-19" value="&lt;b&gt;REGIÃO&lt;/b&gt;{&lt;b&gt;&lt;u&gt;id_região (PK), id_mapa (PK,FK)&lt;/u&gt;&lt;/b&gt;, nome, descrição, regiões_vizinhas, id_estabelecimento(FK)}" style="text;align=center;verticalAlign=middle;whiteSpace=wrap;rounded=0;html=1;" parent="1" vertex="1">
          <mxGeometry x="-286" y="-1720" width="574" height="30" as="geometry" />
        </mxCell>
        <mxCell id="FPdHVrewZq1G3l7FEMrT-20" value="&lt;b&gt;MAPA&amp;nbsp;&lt;/b&gt;{&lt;b&gt;&lt;u&gt;id_mapa (PK),&lt;/u&gt;&lt;/b&gt; nome, &lt;u&gt;regiões(FK)&lt;/u&gt;}" style="text;align=center;verticalAlign=middle;whiteSpace=wrap;rounded=0;html=1;" parent="1" vertex="1">
          <mxGeometry x="-288" y="-1680" width="243" height="30" as="geometry" />
        </mxCell>
        <mxCell id="FPdHVrewZq1G3l7FEMrT-21" value="&lt;b&gt;INSTANCIA_ESTABELECIMENTO&lt;/b&gt;&amp;nbsp;{&lt;u&gt;&lt;b&gt;&amp;nbsp;id_inst_estabelecimento (PK),&lt;/b&gt;&lt;/u&gt;&lt;u&gt;&lt;b&gt;id_estabelecimento (PK,FK)&lt;/b&gt;&lt;/u&gt;&lt;b&gt;&lt;u&gt;, id_região (PK,FK), id_inst_npc_dono(PK)&lt;/u&gt;&lt;/b&gt;}" style="text;align=center;verticalAlign=middle;whiteSpace=wrap;rounded=0;html=1;" parent="1" vertex="1">
          <mxGeometry x="-285" y="-1640" width="784" height="30" as="geometry" />
        </mxCell>
        <mxCell id="FPdHVrewZq1G3l7FEMrT-22" value="&lt;b&gt;ESTABELECIMENTO&lt;/b&gt;&amp;nbsp;{&lt;u&gt;&lt;b&gt;id_estabelecimento (PK)&lt;/b&gt;&lt;/u&gt;, tipo, descrição}" style="text;align=center;verticalAlign=middle;whiteSpace=wrap;rounded=0;html=1;" parent="1" vertex="1">
          <mxGeometry x="-296" y="-1600" width="384" height="30" as="geometry" />
        </mxCell>
        <mxCell id="FPdHVrewZq1G3l7FEMrT-24" value="&lt;b&gt;ATAQUE&lt;/b&gt;&amp;nbsp;{&lt;u&gt;&lt;b&gt;id_ataque(PK)&lt;/b&gt;&lt;/u&gt;, descrição, dano}" style="text;align=center;verticalAlign=middle;whiteSpace=wrap;rounded=0;html=1;" parent="1" vertex="1">
          <mxGeometry x="-284" y="-1560" width="241" height="30" as="geometry" />
        </mxCell>
        <mxCell id="FPdHVrewZq1G3l7FEMrT-25" value="&lt;b&gt;HOSTIL&lt;/b&gt; {&lt;u style=&quot;font-weight: bold;&quot;&gt;id_hostil(PK),&lt;/u&gt;&lt;u&gt;ataques(FK)&lt;/u&gt;}" style="text;align=center;verticalAlign=middle;whiteSpace=wrap;rounded=0;html=1;" parent="1" vertex="1">
          <mxGeometry x="-288" y="-1520" width="213" height="30" as="geometry" />
        </mxCell>
        <mxCell id="FPdHVrewZq1G3l7FEMrT-26" value="&lt;b&gt;EQUIPÁVEL&lt;/b&gt;&amp;nbsp;{&lt;u&gt;&lt;b&gt;id_tipo(PK)&lt;/b&gt;&lt;/u&gt;}" style="text;align=center;verticalAlign=middle;whiteSpace=wrap;rounded=0;html=1;" parent="1" vertex="1">
          <mxGeometry x="-284" y="-880" width="150" height="30" as="geometry" />
        </mxCell>
        <mxCell id="FPdHVrewZq1G3l7FEMrT-27" value="&lt;b&gt;JOGADOR&lt;/b&gt;&amp;nbsp;{&lt;b&gt;&lt;u&gt;id_personagem (PK)&lt;/u&gt;&lt;/b&gt;, xp, dinheiro, vida_atual, stamina_max, stamina_atual, &lt;u&gt;habilidades(FK)&lt;/u&gt;}" style="text;align=center;verticalAlign=middle;whiteSpace=wrap;rounded=0;html=1;" parent="1" vertex="1">
          <mxGeometry x="-283" y="-1440" width="573" height="30" as="geometry" />
        </mxCell>
        <mxCell id="FPdHVrewZq1G3l7FEMrT-28" value="&lt;b&gt;NPC&lt;/b&gt; {&lt;u&gt;&lt;b&gt;id_npc(PK),&lt;/b&gt;&lt;/u&gt; textura}" style="text;align=center;verticalAlign=middle;whiteSpace=wrap;rounded=0;html=1;" parent="1" vertex="1">
          <mxGeometry x="-284" y="-1400" width="150" height="30" as="geometry" />
        </mxCell>
        <mxCell id="FPdHVrewZq1G3l7FEMrT-29" value="&lt;b&gt;INSTANCIA_NPC&lt;/b&gt; {&lt;u&gt;&lt;b&gt;id_inst_npc(PK), id_npc(NK, FK), id_personagem(PK, FK)&lt;/b&gt;&lt;/u&gt;, vida_atual, stamina_atual}" style="text;align=center;verticalAlign=middle;whiteSpace=wrap;rounded=0;html=1;" parent="1" vertex="1">
          <mxGeometry x="-284" y="-1360" width="585" height="30" as="geometry" />
        </mxCell>
        <mxCell id="FPdHVrewZq1G3l7FEMrT-30" value="&lt;b&gt;DIÁLOGO&lt;/b&gt;&amp;nbsp;{&lt;u&gt;&lt;b&gt;id_dialogo(PK),&lt;/b&gt;&lt;/u&gt; descrição,&lt;u style=&quot;&quot;&gt; linhas_fala(FK)&lt;/u&gt;}" style="text;align=center;verticalAlign=middle;whiteSpace=wrap;rounded=0;html=1;" parent="1" vertex="1">
          <mxGeometry x="-285" y="-1320" width="308" height="30" as="geometry" />
        </mxCell>
        <mxCell id="FPdHVrewZq1G3l7FEMrT-32" value="&lt;b&gt;LINHAS_FALA&lt;/b&gt;&amp;nbsp;{&lt;u&gt;&lt;b&gt;id_dialogo(PK, FK), id_linha_de_fala(PK)&lt;/b&gt;&lt;/u&gt;&amp;nbsp;texto_fala}" style="text;align=center;verticalAlign=middle;whiteSpace=wrap;rounded=0;html=1;" parent="1" vertex="1">
          <mxGeometry x="-297" y="-1280" width="414" height="30" as="geometry" />
        </mxCell>
        <mxCell id="FPdHVrewZq1G3l7FEMrT-33" value="&lt;b&gt;MISSÃO&lt;/b&gt;&lt;span style=&quot;color: rgba(0, 0, 0, 0); font-family: monospace; font-size: 0px; text-align: start; text-wrap: nowrap;&quot;&gt;%3CmxGraphModel%3E%3Croot%3E%3CmxCell%20id%3D%220%22%2F%3E%3CmxCell%20id%3D%221%22%20parent%3D%220%22%2F%3E%3CmxCell%20id%3D%222%22%20value%3D%22%26lt%3Bb%26gt%3BLINHAS_FALA%26lt%3B%2Fb%26gt%3B%26amp%3Bnbsp%3B%7Bid_dialogo(PK)%2C%20id_linha_de_fala(PK)%2C%20texto_fala%7D%22%20style%3D%22text%3Balign%3Dcenter%3BverticalAlign%3Dmiddle%3BwhiteSpace%3Dwrap%3Brounded%3D0%3Bhtml%3D1%3B%22%20vertex%3D%221%22%20parent%3D%221%22%3E%3CmxGeometry%20x%3D%22-282%22%20y%3D%22-1280%22%20width%3D%22352%22%20height%3D%2230%22%20as%3D%22geometry%22%2F%3E%3C%2FmxCell%3E%3C%2Froot%3E%3C%2FmxGraphMo&lt;/span&gt;&amp;nbsp;{&lt;u&gt;&lt;b&gt;id_missão(PK)&lt;/b&gt;&lt;/u&gt;, título, nível_dificuldade, &lt;u&gt;personagens (FK)&lt;/u&gt;, &lt;u&gt;objetivos(FK)&lt;/u&gt;, &lt;u&gt;história(FK)&lt;/u&gt;, &lt;u&gt;região(FK)&lt;/u&gt;, missão_requisito}" style="text;align=center;verticalAlign=middle;whiteSpace=wrap;rounded=0;html=1;" parent="1" vertex="1">
          <mxGeometry x="-284" y="-1240" width="684" height="30" as="geometry" />
        </mxCell>
        <mxCell id="FPdHVrewZq1G3l7FEMrT-34" value="&lt;div style=&quot;text-align: center;&quot;&gt;&lt;span style=&quot;background-color: initial; text-align: start;&quot;&gt;&lt;b&gt;HISTÓRIA&lt;/b&gt;&lt;/span&gt;&lt;span style=&quot;background-color: initial; text-wrap: nowrap; color: rgba(0, 0, 0, 0); font-family: monospace; font-size: 0px; text-align: start;&quot;&gt;%3CmxGraphModel%3E%3Croot%3E%3CmxCell%20id%3D%220%22%2F%3E%3CmxCell%20id%3D%221%22%20parent%3D%220%22%2F%3E%3CmxCell%20id%3D%222%22%20value%3D%22%26lt%3Bb%26gt%3BLINHAS_FALA%26lt%3B%2Fb%26gt%3B%26amp%3Bnbsp%3B%7Bid_dialogo(PK)%2C%20id_linha_de_fala(PK)%2C%20texto_fala%7D%22%20style%3D%22text%3Balign%3Dcenter%3BverticalAlign%3Dmiddle%3BwhiteSpace%3Dwrap%3Brounded%3D0%3Bhtml%3D1%3B%22%20vertex%3D%221%22%20parent%3D%221%22%3E%3CmxGeometry%20x%3D%22-282%22%20y%3D%22-1280%22%20width%3D%22352%22%20height%3D%2230%22%20as%3D%22geometry%22%2F%3E%3C%2FmxCell%3E%3C%2Froot%3E%3C%2FmxGraphMo&lt;/span&gt;&lt;span style=&quot;background-color: initial;&quot;&gt;&amp;nbsp;{&lt;u&gt;&lt;b&gt;id_história(PK)&lt;/b&gt;&lt;/u&gt;, título, enredo}&lt;/span&gt;&lt;/div&gt;" style="text;align=center;verticalAlign=middle;whiteSpace=wrap;rounded=0;html=1;" parent="1" vertex="1">
          <mxGeometry x="-291" y="-1200" width="253" height="30" as="geometry" />
        </mxCell>
        <mxCell id="FPdHVrewZq1G3l7FEMrT-35" value="&lt;div style=&quot;text-align: center;&quot;&gt;&lt;span style=&quot;background-color: initial; text-align: start;&quot;&gt;&lt;b&gt;OBJETIVO&lt;/b&gt;&lt;/span&gt;&lt;span style=&quot;background-color: initial; text-wrap: nowrap; color: rgba(0, 0, 0, 0); font-family: monospace; font-size: 0px; text-align: start;&quot;&gt;%3CmxGraphModel%3E%3Croot%3E%3CmxCell%20id%3D%220%22%2F%3E%3CmxCell%20id%3D%221%22%20parent%3D%220%22%2F%3E%3CmxCell%20id%3D%222%22%20value%3D%22%26lt%3Bb%26gt%3BLINHAS_FALA%26lt%3B%2Fb%26gt%3B%26amp%3Bnbsp%3B%7Bid_dialogo(PK)%2C%20id_linha_de_fala(PK)%2C%20texto_fala%7D%22%20style%3D%22text%3Balign%3Dcenter%3BverticalAlign%3Dmiddle%3BwhiteSpace%3Dwrap%3Brounded%3D0%3Bhtml%3D1%3B%22%20vertex%3D%221%22%20parent%3D%221%22%3E%3CmxGeometry%20x%3D%22-282%22%20y%3D%22-1280%22%20width%3D%22352%22%20height%3D%2230%22%20as%3D%22geometry%22%2F%3E%3C%2FmxCell%3E%3C%2Froot%3E%3C%2FmxGraphMo&lt;/span&gt;&lt;span style=&quot;background-color: initial;&quot;&gt;&amp;nbsp;{&lt;u&gt;&lt;b&gt;id_objetivo(PK)&lt;/b&gt;&lt;/u&gt;, título, retorno_xp, retorno_dinheiro}&lt;/span&gt;&lt;/div&gt;" style="text;align=center;verticalAlign=middle;whiteSpace=wrap;rounded=0;html=1;" parent="1" vertex="1">
          <mxGeometry x="-286" y="-1160" width="363" height="30" as="geometry" />
        </mxCell>
        <mxCell id="FPdHVrewZq1G3l7FEMrT-36" value="&lt;div style=&quot;text-align: center;&quot;&gt;&lt;span style=&quot;background-color: initial; text-align: start;&quot;&gt;&lt;b&gt;PERSONAGEM&lt;/b&gt;&lt;/span&gt;&lt;span style=&quot;background-color: initial; text-wrap: nowrap; color: rgba(0, 0, 0, 0); font-family: monospace; font-size: 0px; text-align: start;&quot;&gt;%3CmxGraphModel%3E%3Croot%3E%3CmxCell%20id%3D%220%22%2F%3E%3CmxCell%20id%3D%221%22%20parent%3D%220%22%2F%3E%3CmxCell%20id%3D%222%22%20value%3D%22%26lt%3Bb%26gt%3BLINHAS_FALA%26lt%3B%2Fb%26gt%3B%26amp%3Bnbsp%3B%7Bid_dialogo(PK)%2C%20id_linha_de_fala(PK)%2C%20texto_fala%7D%22%20style%3D%22text%3Balign%3Dcenter%3BverticalAlign%3Dmiddle%3BwhiteSpace%3Dwrap%3Brounded%3D0%3Bhtml%3D1%3B%22%20vertex%3D%221%22%20parent%3D%221%22%3E%3CmxGeometry%20x%3D%22-282%22%20y%3D%22-1280%22%20width%3D%22352%22%20height%3D%2230%22%20as%3D%22geometry%22%2F%3E%3C%2FmxCell%3E%3C%2Froot%3E%3C%2FmxGraphMo&lt;/span&gt;&lt;span style=&quot;background-color: initial;&quot;&gt;&amp;nbsp;{&lt;u&gt;&lt;b&gt;id_personagem(PK)&lt;/b&gt;&lt;/u&gt;, nome, velocidade,&lt;u&gt; inventário(FK)&lt;/u&gt;, vida_max, &lt;u&gt;classe(FK), guange(FK)}&lt;/u&gt;&lt;/span&gt;&lt;/div&gt;" style="text;align=center;verticalAlign=middle;whiteSpace=wrap;rounded=0;html=1;" parent="1" vertex="1">
          <mxGeometry x="-285" y="-1120" width="595" height="30" as="geometry" />
        </mxCell>
        <mxCell id="YPDBUU_ndnuOFF8qk_qy-1" value="&lt;div style=&quot;text-align: center;&quot;&gt;&lt;span style=&quot;background-color: initial; text-align: start;&quot;&gt;&lt;b&gt;INSTANCIA_ITEM&lt;/b&gt;&lt;/span&gt;&lt;span style=&quot;background-color: initial; text-wrap: nowrap; color: rgba(0, 0, 0, 0); font-family: monospace; font-size: 0px; text-align: start;&quot;&gt;%3CmxGraphModel%3E%3Croot%3E%3CmxCell%20id%3D%220%22%2F%3E%3CmxCell%20id%3D%221%22%20parent%3D%220%22%2F%3E%3CmxCell%20id%3D%222%22%20value%3D%22%26lt%3Bb%26gt%3BLINHAS_FALA%26lt%3B%2Fb%26gt%3B%26amp%3Bnbsp%3B%7Bid_dialogo(PK)%2C%20id_linha_de_fala(PK)%2C%20texto_fala%7D%22%20style%3D%22text%3Balign%3Dcenter%3BverticalAlign%3Dmiddle%3BwhiteSpace%3Dwrap%3Brounded%3D0%3Bhtml%3D1%3B%22%20vertex%3D%221%22%20parent%3D%221%22%3E%3CmxGeometry%20x%3D%22-282%22%20y%3D%22-1280%22%20width%3D%22352%22%20height%3D%2230%22%20as%3D%22geometry%22%2F%3E%3C%2FmxCell%3E%3C%2Froot%3E%3C%2FmxGraphMo&lt;/span&gt;&lt;span style=&quot;background-color: initial;&quot;&gt;&amp;nbsp;{&lt;b&gt;&lt;u&gt;id_inst_item(PK), id_item(PK,FK), id_inventário(PK, FK)&lt;/u&gt;&lt;/b&gt;}&lt;/span&gt;&lt;/div&gt;" style="text;align=center;verticalAlign=middle;whiteSpace=wrap;rounded=0;html=1;" parent="1" vertex="1">
          <mxGeometry x="-286" y="-1000" width="437" height="30" as="geometry" />
        </mxCell>
        <mxCell id="YPDBUU_ndnuOFF8qk_qy-2" value="&lt;div style=&quot;text-align: center;&quot;&gt;&lt;span style=&quot;background-color: initial; text-align: start;&quot;&gt;&lt;b&gt;INVENTÁRIO&lt;/b&gt;&lt;/span&gt;&lt;span style=&quot;background-color: initial; text-wrap: nowrap; color: rgba(0, 0, 0, 0); font-family: monospace; font-size: 0px; text-align: start;&quot;&gt;%3CmxGraphModel%3E%3Croot%3E%3CmxCell%20id%3D%220%22%2F%3E%3CmxCell%20id%3D%221%22%20parent%3D%220%22%2F%3E%3CmxCell%20id%3D%222%22%20value%3D%22%26lt%3Bb%26gt%3BLINHAS_FALA%26lt%3B%2Fb%26gt%3B%26amp%3Bnbsp%3B%7Bid_dialogo(PK)%2C%20id_linha_de_fala(PK)%2C%20texto_fala%7D%22%20style%3D%22text%3Balign%3Dcenter%3BverticalAlign%3Dmiddle%3BwhiteSpace%3Dwrap%3Brounded%3D0%3Bhtml%3D1%3B%22%20vertex%3D%221%22%20parent%3D%221%22%3E%3CmxGeometry%20x%3D%22-282%22%20y%3D%22-1280%22%20width%3D%22352%22%20height%3D%2230%22%20as%3D%22geometry%22%2F%3E%3C%2FmxCell%3E%3C%2Froot%3E%3C%2FmxGraphMo&lt;/span&gt;&lt;span style=&quot;background-color: initial;&quot;&gt;&amp;nbsp;{&lt;u&gt;&lt;b&gt;id_inventário(PK), id_personagem(PK,FK)&lt;/b&gt;&lt;/u&gt;, total_itens, capacidade}&lt;/span&gt;&lt;/div&gt;" style="text;align=center;verticalAlign=middle;whiteSpace=wrap;rounded=0;html=1;" parent="1" vertex="1">
          <mxGeometry x="-286" y="-1080" width="463" height="30" as="geometry" />
        </mxCell>
        <mxCell id="YPDBUU_ndnuOFF8qk_qy-3" value="&lt;div style=&quot;text-align: center;&quot;&gt;&lt;span style=&quot;background-color: initial; text-align: start;&quot;&gt;&lt;b&gt;GANGUE&lt;/b&gt;&lt;/span&gt;&lt;span style=&quot;background-color: initial; text-wrap: nowrap; color: rgba(0, 0, 0, 0); font-family: monospace; font-size: 0px; text-align: start;&quot;&gt;%3CmxGraphModel%3E%3Croot%3E%3CmxCell%20id%3D%220%22%2F%3E%3CmxCell%20id%3D%221%22%20parent%3D%220%22%2F%3E%3CmxCell%20id%3D%222%22%20value%3D%22%26lt%3Bb%26gt%3BLINHAS_FALA%26lt%3B%2Fb%26gt%3B%26amp%3Bnbsp%3B%7Bid_dialogo(PK)%2C%20id_linha_de_fala(PK)%2C%20texto_fala%7D%22%20style%3D%22text%3Balign%3Dcenter%3BverticalAlign%3Dmiddle%3BwhiteSpace%3Dwrap%3Brounded%3D0%3Bhtml%3D1%3B%22%20vertex%3D%221%22%20parent%3D%221%22%3E%3CmxGeometry%20x%3D%22-282%22%20y%3D%22-1280%22%20width%3D%22352%22%20height%3D%2230%22%20as%3D%22geometry%22%2F%3E%3C%2FmxCell%3E%3C%2Froot%3E%3C%2FmxGraphMo&lt;/span&gt;&lt;span style=&quot;background-color: initial;&quot;&gt;&amp;nbsp;{&lt;u style=&quot;font-weight: bold;&quot;&gt;id_gangue(PK),&lt;/u&gt;nome, descrição, líder,membros}&lt;/span&gt;&lt;/div&gt;" style="text;align=center;verticalAlign=middle;whiteSpace=wrap;rounded=0;html=1;" parent="1" vertex="1">
          <mxGeometry x="-286" y="-1040" width="335" height="30" as="geometry" />
        </mxCell>
        <mxCell id="YPDBUU_ndnuOFF8qk_qy-4" value="&lt;div style=&quot;text-align: center;&quot;&gt;&lt;span style=&quot;background-color: initial; text-align: start;&quot;&gt;&lt;b&gt;ITEM&lt;/b&gt;&lt;/span&gt;&lt;span style=&quot;background-color: initial; text-wrap: nowrap; color: rgba(0, 0, 0, 0); font-family: monospace; font-size: 0px; text-align: start;&quot;&gt;%3CmxGraphModel%3E%3Croot%3E%3CmxCell%20id%3D%220%22%2F%3E%3CmxCell%20id%3D%221%22%20parent%3D%220%22%2F%3E%3CmxCell%20id%3D%222%22%20value%3D%22%26lt%3Bb%26gt%3BLINHAS_FALA%26lt%3B%2Fb%26gt%3B%26amp%3Bnbsp%3B%7Bid_dialogo(PK)%2C%20id_linha_de_fala(PK)%2C%20texto_fala%7D%22%20style%3D%22text%3Balign%3Dcenter%3BverticalAlign%3Dmiddle%3BwhiteSpace%3Dwrap%3Brounded%3D0%3Bhtml%3D1%3B%22%20vertex%3D%221%22%20parent%3D%221%22%3E%3CmxGeometry%20x%3D%22-282%22%20y%3D%22-1280%22%20width%3D%22352%22%20height%3D%2230%22%20as%3D%22geometry%22%2F%3E%3C%2FmxCell%3E%3C%2Froot%3E%3C%2FmxGraphMo&lt;/span&gt;&lt;span style=&quot;background-color: initial;&quot;&gt;&amp;nbsp;{&lt;u style=&quot;font-weight: bold;&quot;&gt;id_item(PK),&lt;/u&gt;nome, tipo(FK)}&lt;/span&gt;&lt;/div&gt;" style="text;align=center;verticalAlign=middle;whiteSpace=wrap;rounded=0;html=1;" parent="1" vertex="1">
          <mxGeometry x="-286" y="-960" width="201" height="30" as="geometry" />
        </mxCell>
        <mxCell id="YPDBUU_ndnuOFF8qk_qy-5" value="&lt;div style=&quot;text-align: center;&quot;&gt;&lt;span style=&quot;background-color: initial; text-align: start;&quot;&gt;&lt;b&gt;CONSUMÍVEL&lt;/b&gt;&lt;/span&gt;&lt;span style=&quot;background-color: initial; text-wrap: nowrap; color: rgba(0, 0, 0, 0); font-family: monospace; font-size: 0px; text-align: start;&quot;&gt;%3CmxGraphModel%3E%3Croot%3E%3CmxCell%20id%3D%220%22%2F%3E%3CmxCell%20id%3D%221%22%20parent%3D%220%22%2F%3E%3CmxCell%20id%3D%222%22%20value%3D%22%26lt%3Bb%26gt%3BLINHAS_FALA%26lt%3B%2Fb%26gt%3B%26amp%3Bnbsp%3B%7Bid_dialogo(PK)%2C%20id_linha_de_fala(PK)%2C%20texto_fala%7D%22%20style%3D%22text%3Balign%3Dcenter%3BverticalAlign%3Dmiddle%3BwhiteSpace%3Dwrap%3Brounded%3D0%3Bhtml%3D1%3B%22%20vertex%3D%221%22%20parent%3D%221%22%3E%3CmxGeometry%20x%3D%22-282%22%20y%3D%22-1280%22%20width%3D%22352%22%20height%3D%2230%22%20as%3D%22geometry%22%2F%3E%3C%2FmxCell%3E%3C%2Froot%3E%3C%2FmxGraphMo&lt;/span&gt;&lt;span style=&quot;background-color: initial;&quot;&gt;&amp;nbsp;{i&lt;b&gt;&lt;u&gt;d_tipo(PK)&lt;/u&gt;&lt;/b&gt;,&amp;nbsp;qtd_reparação_stamina, qtd_reparação_vida}&lt;/span&gt;&lt;/div&gt;" style="text;align=center;verticalAlign=middle;whiteSpace=wrap;rounded=0;html=1;" parent="1" vertex="1">
          <mxGeometry x="-283" y="-920" width="404" height="30" as="geometry" />
        </mxCell>
        <mxCell id="YPDBUU_ndnuOFF8qk_qy-6" value="&lt;b&gt;AMIGÁVEL&lt;/b&gt;&amp;nbsp;{&lt;u&gt;&lt;b&gt;id_amigável(PK)&lt;/b&gt;&lt;/u&gt;}" style="text;align=center;verticalAlign=middle;whiteSpace=wrap;rounded=0;html=1;" parent="1" vertex="1">
          <mxGeometry x="-286.5" y="-1480" width="181.5" height="30" as="geometry" />
        </mxCell>
        <mxCell id="YPDBUU_ndnuOFF8qk_qy-8" value="&lt;b&gt;CLASSE&lt;/b&gt; {&lt;b&gt;&lt;u&gt;id_classe(PK)&lt;/u&gt;&lt;/b&gt;, nome, &lt;u&gt;habilidades (FK)&lt;/u&gt;}" style="text;align=center;verticalAlign=middle;whiteSpace=wrap;rounded=0;html=1;" parent="1" vertex="1">
          <mxGeometry x="-286" y="-840" width="282" height="30" as="geometry" />
        </mxCell>
        <mxCell id="YPDBUU_ndnuOFF8qk_qy-9" value="&lt;b&gt;ARMA&lt;/b&gt; {&lt;u&gt;&lt;b&gt;id_arma(PK),&lt;/b&gt;&lt;/u&gt; nome, descrição, &lt;u&gt;categoria(FK)&lt;/u&gt;, preço, peso, durabilidade, dano}" style="text;align=center;verticalAlign=middle;whiteSpace=wrap;rounded=0;html=1;" parent="1" vertex="1">
          <mxGeometry x="-283" y="-760" width="474" height="30" as="geometry" />
        </mxCell>
        <mxCell id="YPDBUU_ndnuOFF8qk_qy-10" value="&lt;b&gt;INSTANCIA_ARMA_FOGO{&lt;u&gt;id_arma_fogo&lt;/u&gt;}&lt;/b&gt;" style="text;align=center;verticalAlign=middle;whiteSpace=wrap;rounded=0;html=1;" parent="1" vertex="1">
          <mxGeometry x="-245" y="-601" width="164" height="30" as="geometry" />
        </mxCell>
        <mxCell id="YPDBUU_ndnuOFF8qk_qy-11" value="&lt;b&gt;HABILIDADE&lt;/b&gt;&amp;nbsp;{&lt;u&gt;&lt;b&gt;id_classe(PK),&lt;/b&gt;&lt;/u&gt; nome, porcentagem}" style="text;align=center;verticalAlign=middle;whiteSpace=wrap;rounded=0;html=1;" parent="1" vertex="1">
          <mxGeometry x="-287" y="-800" width="291" height="30" as="geometry" />
        </mxCell>
        <mxCell id="YPDBUU_ndnuOFF8qk_qy-13" value="&lt;b&gt;ARMA_FOGO&lt;/b&gt;&amp;nbsp;{&lt;b style=&quot;text-decoration-line: underline;&quot;&gt;id_arma_fogo(PK),&lt;/b&gt;velocidade_disparo, velocidade_reload&lt;b style=&quot;text-decoration-line: underline;&quot;&gt;}&lt;/b&gt;" style="text;align=center;verticalAlign=middle;whiteSpace=wrap;rounded=0;html=1;" parent="1" vertex="1">
          <mxGeometry x="-285" y="-680" width="414" height="30" as="geometry" />
        </mxCell>
        <mxCell id="YPDBUU_ndnuOFF8qk_qy-14" value="&lt;b&gt;ARMA MELEE&lt;/b&gt;&amp;nbsp;{}" style="text;align=center;verticalAlign=middle;whiteSpace=wrap;rounded=0;html=1;" parent="1" vertex="1">
          <mxGeometry x="-285" y="-640" width="102" height="30" as="geometry" />
        </mxCell>
        <mxCell id="YPDBUU_ndnuOFF8qk_qy-15" value="&lt;b&gt;INSTANCIA_ARMA&lt;/b&gt; {&lt;u&gt;&lt;b&gt;id_instacia_arma(PK),id_personagem(PK,FK),&amp;nbsp;id_arma(PK,FK)}&lt;/b&gt;&lt;/u&gt;" style="text;align=center;verticalAlign=middle;whiteSpace=wrap;rounded=0;html=1;" parent="1" vertex="1">
          <mxGeometry x="-283" y="-720" width="481" height="30" as="geometry" />
        </mxCell>
        <mxCell id="YPDBUU_ndnuOFF8qk_qy-16" value="&lt;b&gt;INSTANCIA_ARMA_MELEE&lt;/b&gt;&amp;nbsp;{&lt;b&gt;&lt;u&gt;id_arma_melee&lt;/u&gt;&lt;/b&gt;&lt;u&gt;&lt;b&gt;}&lt;/b&gt;&lt;/u&gt;" style="text;align=center;verticalAlign=middle;whiteSpace=wrap;rounded=0;html=1;" parent="1" vertex="1">
          <mxGeometry x="-242" y="-560" width="174" height="30" as="geometry" />
        </mxCell>
        <mxCell id="YPDBUU_ndnuOFF8qk_qy-18" value="&lt;b&gt;PROJÉTIL&lt;/b&gt;&amp;nbsp;{&lt;b&gt;&lt;u&gt;id_projetil(PK), id_instacia_arma(PK,FK)&lt;/u&gt;&lt;/b&gt;, pos_x, pox_y, pos_z, colidiu&lt;u&gt;&lt;b&gt;}&lt;/b&gt;&lt;/u&gt;" style="text;align=center;verticalAlign=middle;whiteSpace=wrap;rounded=0;html=1;" parent="1" vertex="1">
          <mxGeometry x="-284" y="-520" width="464" height="30" as="geometry" />
        </mxCell>
        <mxCell id="YPDBUU_ndnuOFF8qk_qy-73" style="edgeStyle=orthogonalEdgeStyle;rounded=0;orthogonalLoop=1;jettySize=auto;html=1;exitX=0.5;exitY=1;exitDx=0;exitDy=0;entryX=0.5;entryY=0;entryDx=0;entryDy=0;" parent="1" source="YPDBUU_ndnuOFF8qk_qy-32" target="YPDBUU_ndnuOFF8qk_qy-60" edge="1">
          <mxGeometry relative="1" as="geometry" />
        </mxCell>
        <mxCell id="YPDBUU_ndnuOFF8qk_qy-32" value="INSTANCIA_ANIMAL" style="shape=table;startSize=30;container=1;collapsible=1;childLayout=tableLayout;fixedRows=1;rowLines=0;fontStyle=1;align=center;resizeLast=1;html=1;whiteSpace=wrap;" parent="1" vertex="1">
          <mxGeometry x="2700" y="-1945" width="180" height="160" as="geometry" />
        </mxCell>
        <mxCell id="YPDBUU_ndnuOFF8qk_qy-33" value="" style="shape=tableRow;horizontal=0;startSize=0;swimlaneHead=0;swimlaneBody=0;fillColor=none;collapsible=0;dropTarget=0;points=[[0,0.5],[1,0.5]];portConstraint=eastwest;top=0;left=0;right=0;bottom=0;html=1;" parent="YPDBUU_ndnuOFF8qk_qy-32" vertex="1">
          <mxGeometry y="30" width="180" height="30" as="geometry" />
        </mxCell>
        <mxCell id="YPDBUU_ndnuOFF8qk_qy-34" value="PK" style="shape=partialRectangle;connectable=0;fillColor=none;top=0;left=0;bottom=0;right=0;fontStyle=1;overflow=hidden;html=1;whiteSpace=wrap;" parent="YPDBUU_ndnuOFF8qk_qy-33" vertex="1">
          <mxGeometry width="60" height="30" as="geometry">
            <mxRectangle width="60" height="30" as="alternateBounds" />
          </mxGeometry>
        </mxCell>
        <mxCell id="YPDBUU_ndnuOFF8qk_qy-35" value="id_inst_animal" style="shape=partialRectangle;connectable=0;fillColor=none;top=0;left=0;bottom=0;right=0;align=left;spacingLeft=6;fontStyle=5;overflow=hidden;html=1;whiteSpace=wrap;" parent="YPDBUU_ndnuOFF8qk_qy-33" vertex="1">
          <mxGeometry x="60" width="120" height="30" as="geometry">
            <mxRectangle width="120" height="30" as="alternateBounds" />
          </mxGeometry>
        </mxCell>
        <mxCell id="YPDBUU_ndnuOFF8qk_qy-36" value="" style="shape=tableRow;horizontal=0;startSize=0;swimlaneHead=0;swimlaneBody=0;fillColor=none;collapsible=0;dropTarget=0;points=[[0,0.5],[1,0.5]];portConstraint=eastwest;top=0;left=0;right=0;bottom=1;html=1;" parent="YPDBUU_ndnuOFF8qk_qy-32" vertex="1">
          <mxGeometry y="60" width="180" height="30" as="geometry" />
        </mxCell>
        <mxCell id="YPDBUU_ndnuOFF8qk_qy-37" value="PK,FK1" style="shape=partialRectangle;connectable=0;fillColor=none;top=0;left=0;bottom=0;right=0;fontStyle=1;overflow=hidden;html=1;whiteSpace=wrap;" parent="YPDBUU_ndnuOFF8qk_qy-36" vertex="1">
          <mxGeometry width="60" height="30" as="geometry">
            <mxRectangle width="60" height="30" as="alternateBounds" />
          </mxGeometry>
        </mxCell>
        <mxCell id="YPDBUU_ndnuOFF8qk_qy-38" value="id_animal" style="shape=partialRectangle;connectable=0;fillColor=none;top=0;left=0;bottom=0;right=0;align=left;spacingLeft=6;fontStyle=5;overflow=hidden;html=1;whiteSpace=wrap;" parent="YPDBUU_ndnuOFF8qk_qy-36" vertex="1">
          <mxGeometry x="60" width="120" height="30" as="geometry">
            <mxRectangle width="120" height="30" as="alternateBounds" />
          </mxGeometry>
        </mxCell>
        <mxCell id="YPDBUU_ndnuOFF8qk_qy-39" value="" style="shape=tableRow;horizontal=0;startSize=0;swimlaneHead=0;swimlaneBody=0;fillColor=none;collapsible=0;dropTarget=0;points=[[0,0.5],[1,0.5]];portConstraint=eastwest;top=0;left=0;right=0;bottom=0;html=1;" parent="YPDBUU_ndnuOFF8qk_qy-32" vertex="1">
          <mxGeometry y="90" width="180" height="30" as="geometry" />
        </mxCell>
        <mxCell id="YPDBUU_ndnuOFF8qk_qy-40" value="" style="shape=partialRectangle;connectable=0;fillColor=none;top=0;left=0;bottom=0;right=0;editable=1;overflow=hidden;html=1;whiteSpace=wrap;" parent="YPDBUU_ndnuOFF8qk_qy-39" vertex="1">
          <mxGeometry width="60" height="30" as="geometry">
            <mxRectangle width="60" height="30" as="alternateBounds" />
          </mxGeometry>
        </mxCell>
        <mxCell id="YPDBUU_ndnuOFF8qk_qy-41" value="vida_animal" style="shape=partialRectangle;connectable=0;fillColor=none;top=0;left=0;bottom=0;right=0;align=left;spacingLeft=6;overflow=hidden;html=1;whiteSpace=wrap;" parent="YPDBUU_ndnuOFF8qk_qy-39" vertex="1">
          <mxGeometry x="60" width="120" height="30" as="geometry">
            <mxRectangle width="120" height="30" as="alternateBounds" />
          </mxGeometry>
        </mxCell>
        <mxCell id="YPDBUU_ndnuOFF8qk_qy-42" value="" style="shape=tableRow;horizontal=0;startSize=0;swimlaneHead=0;swimlaneBody=0;fillColor=none;collapsible=0;dropTarget=0;points=[[0,0.5],[1,0.5]];portConstraint=eastwest;top=0;left=0;right=0;bottom=0;html=1;" parent="YPDBUU_ndnuOFF8qk_qy-32" vertex="1">
          <mxGeometry y="120" width="180" height="40" as="geometry" />
        </mxCell>
        <mxCell id="YPDBUU_ndnuOFF8qk_qy-43" value="" style="shape=partialRectangle;connectable=0;fillColor=none;top=0;left=0;bottom=0;right=0;editable=1;overflow=hidden;html=1;whiteSpace=wrap;" parent="YPDBUU_ndnuOFF8qk_qy-42" vertex="1">
          <mxGeometry width="60" height="40" as="geometry">
            <mxRectangle width="60" height="40" as="alternateBounds" />
          </mxGeometry>
        </mxCell>
        <mxCell id="YPDBUU_ndnuOFF8qk_qy-44" value="stamina_atual" style="shape=partialRectangle;connectable=0;fillColor=none;top=0;left=0;bottom=0;right=0;align=left;spacingLeft=6;overflow=hidden;html=1;whiteSpace=wrap;" parent="YPDBUU_ndnuOFF8qk_qy-42" vertex="1">
          <mxGeometry x="60" width="120" height="40" as="geometry">
            <mxRectangle width="120" height="40" as="alternateBounds" />
          </mxGeometry>
        </mxCell>
        <mxCell id="g6TWrV2zUab6kG2A-pQS-25" style="edgeStyle=none;curved=1;rounded=0;orthogonalLoop=1;jettySize=auto;html=1;entryX=0;entryY=0.5;entryDx=0;entryDy=0;fontSize=12;startSize=8;endSize=8;" edge="1" parent="YPDBUU_ndnuOFF8qk_qy-32" source="YPDBUU_ndnuOFF8qk_qy-33" target="YPDBUU_ndnuOFF8qk_qy-33">
          <mxGeometry relative="1" as="geometry" />
        </mxCell>
        <mxCell id="YPDBUU_ndnuOFF8qk_qy-60" value="REGIÃO" style="shape=table;startSize=30;container=1;collapsible=1;childLayout=tableLayout;fixedRows=1;rowLines=0;fontStyle=1;align=center;resizeLast=1;html=1;whiteSpace=wrap;" parent="1" vertex="1">
          <mxGeometry x="2700" y="-1580" width="180" height="210" as="geometry" />
        </mxCell>
        <mxCell id="YPDBUU_ndnuOFF8qk_qy-61" value="" style="shape=tableRow;horizontal=0;startSize=0;swimlaneHead=0;swimlaneBody=0;fillColor=none;collapsible=0;dropTarget=0;points=[[0,0.5],[1,0.5]];portConstraint=eastwest;top=0;left=0;right=0;bottom=0;html=1;" parent="YPDBUU_ndnuOFF8qk_qy-60" vertex="1">
          <mxGeometry y="30" width="180" height="30" as="geometry" />
        </mxCell>
        <mxCell id="YPDBUU_ndnuOFF8qk_qy-62" value="PK" style="shape=partialRectangle;connectable=0;fillColor=none;top=0;left=0;bottom=0;right=0;fontStyle=1;overflow=hidden;html=1;whiteSpace=wrap;" parent="YPDBUU_ndnuOFF8qk_qy-61" vertex="1">
          <mxGeometry width="60" height="30" as="geometry">
            <mxRectangle width="60" height="30" as="alternateBounds" />
          </mxGeometry>
        </mxCell>
        <mxCell id="YPDBUU_ndnuOFF8qk_qy-63" value="id_região" style="shape=partialRectangle;connectable=0;fillColor=none;top=0;left=0;bottom=0;right=0;align=left;spacingLeft=6;fontStyle=5;overflow=hidden;html=1;whiteSpace=wrap;" parent="YPDBUU_ndnuOFF8qk_qy-61" vertex="1">
          <mxGeometry x="60" width="120" height="30" as="geometry">
            <mxRectangle width="120" height="30" as="alternateBounds" />
          </mxGeometry>
        </mxCell>
        <mxCell id="YPDBUU_ndnuOFF8qk_qy-64" value="" style="shape=tableRow;horizontal=0;startSize=0;swimlaneHead=0;swimlaneBody=0;fillColor=none;collapsible=0;dropTarget=0;points=[[0,0.5],[1,0.5]];portConstraint=eastwest;top=0;left=0;right=0;bottom=1;html=1;" parent="YPDBUU_ndnuOFF8qk_qy-60" vertex="1">
          <mxGeometry y="60" width="180" height="40" as="geometry" />
        </mxCell>
        <mxCell id="YPDBUU_ndnuOFF8qk_qy-65" value="PK,FK" style="shape=partialRectangle;connectable=0;fillColor=none;top=0;left=0;bottom=0;right=0;fontStyle=1;overflow=hidden;html=1;whiteSpace=wrap;" parent="YPDBUU_ndnuOFF8qk_qy-64" vertex="1">
          <mxGeometry width="60" height="40" as="geometry">
            <mxRectangle width="60" height="40" as="alternateBounds" />
          </mxGeometry>
        </mxCell>
        <mxCell id="YPDBUU_ndnuOFF8qk_qy-66" value="id_mapa" style="shape=partialRectangle;connectable=0;fillColor=none;top=0;left=0;bottom=0;right=0;align=left;spacingLeft=6;fontStyle=5;overflow=hidden;html=1;whiteSpace=wrap;" parent="YPDBUU_ndnuOFF8qk_qy-64" vertex="1">
          <mxGeometry x="60" width="120" height="40" as="geometry">
            <mxRectangle width="120" height="40" as="alternateBounds" />
          </mxGeometry>
        </mxCell>
        <mxCell id="YPDBUU_ndnuOFF8qk_qy-67" value="" style="shape=tableRow;horizontal=0;startSize=0;swimlaneHead=0;swimlaneBody=0;fillColor=none;collapsible=0;dropTarget=0;points=[[0,0.5],[1,0.5]];portConstraint=eastwest;top=0;left=0;right=0;bottom=0;html=1;" parent="YPDBUU_ndnuOFF8qk_qy-60" vertex="1">
          <mxGeometry y="100" width="180" height="80" as="geometry" />
        </mxCell>
        <mxCell id="YPDBUU_ndnuOFF8qk_qy-68" value="" style="shape=partialRectangle;connectable=0;fillColor=none;top=0;left=0;bottom=0;right=0;editable=1;overflow=hidden;html=1;whiteSpace=wrap;" parent="YPDBUU_ndnuOFF8qk_qy-67" vertex="1">
          <mxGeometry width="60" height="80" as="geometry">
            <mxRectangle width="60" height="80" as="alternateBounds" />
          </mxGeometry>
        </mxCell>
        <mxCell id="YPDBUU_ndnuOFF8qk_qy-69" value="nome&lt;div&gt;&lt;br&gt;&lt;/div&gt;&lt;div&gt;descrição&lt;/div&gt;&lt;div&gt;&lt;br&gt;&lt;/div&gt;&lt;div&gt;regiões_vizinhas&lt;/div&gt;&lt;div&gt;&lt;br&gt;&lt;/div&gt;" style="shape=partialRectangle;connectable=0;fillColor=none;top=0;left=0;bottom=0;right=0;align=left;spacingLeft=6;overflow=hidden;html=1;whiteSpace=wrap;" parent="YPDBUU_ndnuOFF8qk_qy-67" vertex="1">
          <mxGeometry x="60" width="120" height="80" as="geometry">
            <mxRectangle width="120" height="80" as="alternateBounds" />
          </mxGeometry>
        </mxCell>
        <mxCell id="YPDBUU_ndnuOFF8qk_qy-70" value="" style="shape=tableRow;horizontal=0;startSize=0;swimlaneHead=0;swimlaneBody=0;fillColor=none;collapsible=0;dropTarget=0;points=[[0,0.5],[1,0.5]];portConstraint=eastwest;top=0;left=0;right=0;bottom=0;html=1;" parent="YPDBUU_ndnuOFF8qk_qy-60" vertex="1">
          <mxGeometry y="180" width="180" height="30" as="geometry" />
        </mxCell>
        <mxCell id="YPDBUU_ndnuOFF8qk_qy-71" value="FK" style="shape=partialRectangle;connectable=0;fillColor=none;top=0;left=0;bottom=0;right=0;editable=1;overflow=hidden;html=1;whiteSpace=wrap;" parent="YPDBUU_ndnuOFF8qk_qy-70" vertex="1">
          <mxGeometry width="60" height="30" as="geometry">
            <mxRectangle width="60" height="30" as="alternateBounds" />
          </mxGeometry>
        </mxCell>
        <mxCell id="YPDBUU_ndnuOFF8qk_qy-72" value="id_estabelecimento" style="shape=partialRectangle;connectable=0;fillColor=none;top=0;left=0;bottom=0;right=0;align=left;spacingLeft=6;overflow=hidden;html=1;whiteSpace=wrap;" parent="YPDBUU_ndnuOFF8qk_qy-70" vertex="1">
          <mxGeometry x="60" width="120" height="30" as="geometry">
            <mxRectangle width="120" height="30" as="alternateBounds" />
          </mxGeometry>
        </mxCell>
        <mxCell id="YPDBUU_ndnuOFF8qk_qy-74" value="MAPA" style="shape=table;startSize=30;container=1;collapsible=1;childLayout=tableLayout;fixedRows=1;rowLines=0;fontStyle=1;align=center;resizeLast=1;html=1;" parent="1" vertex="1">
          <mxGeometry x="3040" y="-1800" width="180" height="120" as="geometry" />
        </mxCell>
        <mxCell id="YPDBUU_ndnuOFF8qk_qy-75" value="" style="shape=tableRow;horizontal=0;startSize=0;swimlaneHead=0;swimlaneBody=0;fillColor=none;collapsible=0;dropTarget=0;points=[[0,0.5],[1,0.5]];portConstraint=eastwest;top=0;left=0;right=0;bottom=1;" parent="YPDBUU_ndnuOFF8qk_qy-74" vertex="1">
          <mxGeometry y="30" width="180" height="30" as="geometry" />
        </mxCell>
        <mxCell id="YPDBUU_ndnuOFF8qk_qy-76" value="PK" style="shape=partialRectangle;connectable=0;fillColor=none;top=0;left=0;bottom=0;right=0;fontStyle=1;overflow=hidden;whiteSpace=wrap;html=1;" parent="YPDBUU_ndnuOFF8qk_qy-75" vertex="1">
          <mxGeometry width="30" height="30" as="geometry">
            <mxRectangle width="30" height="30" as="alternateBounds" />
          </mxGeometry>
        </mxCell>
        <mxCell id="YPDBUU_ndnuOFF8qk_qy-77" value="id_mapa" style="shape=partialRectangle;connectable=0;fillColor=none;top=0;left=0;bottom=0;right=0;align=left;spacingLeft=6;fontStyle=5;overflow=hidden;whiteSpace=wrap;html=1;" parent="YPDBUU_ndnuOFF8qk_qy-75" vertex="1">
          <mxGeometry x="30" width="150" height="30" as="geometry">
            <mxRectangle width="150" height="30" as="alternateBounds" />
          </mxGeometry>
        </mxCell>
        <mxCell id="YPDBUU_ndnuOFF8qk_qy-78" value="" style="shape=tableRow;horizontal=0;startSize=0;swimlaneHead=0;swimlaneBody=0;fillColor=none;collapsible=0;dropTarget=0;points=[[0,0.5],[1,0.5]];portConstraint=eastwest;top=0;left=0;right=0;bottom=0;" parent="YPDBUU_ndnuOFF8qk_qy-74" vertex="1">
          <mxGeometry y="60" width="180" height="30" as="geometry" />
        </mxCell>
        <mxCell id="YPDBUU_ndnuOFF8qk_qy-79" value="" style="shape=partialRectangle;connectable=0;fillColor=none;top=0;left=0;bottom=0;right=0;editable=1;overflow=hidden;whiteSpace=wrap;html=1;" parent="YPDBUU_ndnuOFF8qk_qy-78" vertex="1">
          <mxGeometry width="30" height="30" as="geometry">
            <mxRectangle width="30" height="30" as="alternateBounds" />
          </mxGeometry>
        </mxCell>
        <mxCell id="YPDBUU_ndnuOFF8qk_qy-80" value="nome" style="shape=partialRectangle;connectable=0;fillColor=none;top=0;left=0;bottom=0;right=0;align=left;spacingLeft=6;overflow=hidden;whiteSpace=wrap;html=1;" parent="YPDBUU_ndnuOFF8qk_qy-78" vertex="1">
          <mxGeometry x="30" width="150" height="30" as="geometry">
            <mxRectangle width="150" height="30" as="alternateBounds" />
          </mxGeometry>
        </mxCell>
        <mxCell id="YPDBUU_ndnuOFF8qk_qy-81" value="" style="shape=tableRow;horizontal=0;startSize=0;swimlaneHead=0;swimlaneBody=0;fillColor=none;collapsible=0;dropTarget=0;points=[[0,0.5],[1,0.5]];portConstraint=eastwest;top=0;left=0;right=0;bottom=0;" parent="YPDBUU_ndnuOFF8qk_qy-74" vertex="1">
          <mxGeometry y="90" width="180" height="30" as="geometry" />
        </mxCell>
        <mxCell id="YPDBUU_ndnuOFF8qk_qy-82" value="" style="shape=partialRectangle;connectable=0;fillColor=none;top=0;left=0;bottom=0;right=0;editable=1;overflow=hidden;whiteSpace=wrap;html=1;" parent="YPDBUU_ndnuOFF8qk_qy-81" vertex="1">
          <mxGeometry width="30" height="30" as="geometry">
            <mxRectangle width="30" height="30" as="alternateBounds" />
          </mxGeometry>
        </mxCell>
        <mxCell id="YPDBUU_ndnuOFF8qk_qy-83" value="regiões" style="shape=partialRectangle;connectable=0;fillColor=none;top=0;left=0;bottom=0;right=0;align=left;spacingLeft=6;overflow=hidden;whiteSpace=wrap;html=1;" parent="YPDBUU_ndnuOFF8qk_qy-81" vertex="1">
          <mxGeometry x="30" width="150" height="30" as="geometry">
            <mxRectangle width="150" height="30" as="alternateBounds" />
          </mxGeometry>
        </mxCell>
        <mxCell id="YPDBUU_ndnuOFF8qk_qy-89" value="INSTACIA_ESTABELECIMENTO" style="shape=table;startSize=30;container=1;collapsible=1;childLayout=tableLayout;fixedRows=1;rowLines=0;fontStyle=1;align=center;resizeLast=1;html=1;whiteSpace=wrap;" parent="1" vertex="1">
          <mxGeometry x="3280" y="-1680" width="210" height="200" as="geometry" />
        </mxCell>
        <mxCell id="YPDBUU_ndnuOFF8qk_qy-90" value="" style="shape=tableRow;horizontal=0;startSize=0;swimlaneHead=0;swimlaneBody=0;fillColor=none;collapsible=0;dropTarget=0;points=[[0,0.5],[1,0.5]];portConstraint=eastwest;top=0;left=0;right=0;bottom=0;html=1;" parent="YPDBUU_ndnuOFF8qk_qy-89" vertex="1">
          <mxGeometry y="30" width="210" height="45" as="geometry" />
        </mxCell>
        <mxCell id="YPDBUU_ndnuOFF8qk_qy-91" value="PK" style="shape=partialRectangle;connectable=0;fillColor=none;top=0;left=0;bottom=0;right=0;fontStyle=1;overflow=hidden;html=1;whiteSpace=wrap;" parent="YPDBUU_ndnuOFF8qk_qy-90" vertex="1">
          <mxGeometry width="60" height="45" as="geometry">
            <mxRectangle width="60" height="45" as="alternateBounds" />
          </mxGeometry>
        </mxCell>
        <mxCell id="YPDBUU_ndnuOFF8qk_qy-92" value="id_inst_estabelecimento" style="shape=partialRectangle;connectable=0;fillColor=none;top=0;left=0;bottom=0;right=0;align=left;spacingLeft=6;fontStyle=5;overflow=hidden;html=1;whiteSpace=wrap;" parent="YPDBUU_ndnuOFF8qk_qy-90" vertex="1">
          <mxGeometry x="60" width="150" height="45" as="geometry">
            <mxRectangle width="150" height="45" as="alternateBounds" />
          </mxGeometry>
        </mxCell>
        <mxCell id="YPDBUU_ndnuOFF8qk_qy-93" value="" style="shape=tableRow;horizontal=0;startSize=0;swimlaneHead=0;swimlaneBody=0;fillColor=none;collapsible=0;dropTarget=0;points=[[0,0.5],[1,0.5]];portConstraint=eastwest;top=0;left=0;right=0;bottom=1;html=1;" parent="YPDBUU_ndnuOFF8qk_qy-89" vertex="1">
          <mxGeometry y="75" width="210" height="125" as="geometry" />
        </mxCell>
        <mxCell id="YPDBUU_ndnuOFF8qk_qy-94" value="PK,FK2" style="shape=partialRectangle;connectable=0;fillColor=none;top=0;left=0;bottom=0;right=0;fontStyle=1;overflow=hidden;html=1;whiteSpace=wrap;" parent="YPDBUU_ndnuOFF8qk_qy-93" vertex="1">
          <mxGeometry width="60" height="125" as="geometry">
            <mxRectangle width="60" height="125" as="alternateBounds" />
          </mxGeometry>
        </mxCell>
        <mxCell id="YPDBUU_ndnuOFF8qk_qy-95" value="id_região" style="shape=partialRectangle;connectable=0;fillColor=none;top=0;left=0;bottom=0;right=0;align=left;spacingLeft=6;fontStyle=5;overflow=hidden;html=1;whiteSpace=wrap;" parent="YPDBUU_ndnuOFF8qk_qy-93" vertex="1">
          <mxGeometry x="60" width="150" height="125" as="geometry">
            <mxRectangle width="150" height="125" as="alternateBounds" />
          </mxGeometry>
        </mxCell>
        <mxCell id="YPDBUU_ndnuOFF8qk_qy-102" value="ESTABELECIMENTO" style="shape=table;startSize=30;container=1;collapsible=1;childLayout=tableLayout;fixedRows=1;rowLines=0;fontStyle=1;align=center;resizeLast=1;html=1;" parent="1" vertex="1">
          <mxGeometry x="3760" y="-1629" width="170" height="110" as="geometry" />
        </mxCell>
        <mxCell id="YPDBUU_ndnuOFF8qk_qy-103" value="" style="shape=tableRow;horizontal=0;startSize=0;swimlaneHead=0;swimlaneBody=0;fillColor=none;collapsible=0;dropTarget=0;points=[[0,0.5],[1,0.5]];portConstraint=eastwest;top=0;left=0;right=0;bottom=1;" parent="YPDBUU_ndnuOFF8qk_qy-102" vertex="1">
          <mxGeometry y="30" width="170" height="30" as="geometry" />
        </mxCell>
        <mxCell id="YPDBUU_ndnuOFF8qk_qy-104" value="PK" style="shape=partialRectangle;connectable=0;fillColor=none;top=0;left=0;bottom=0;right=0;fontStyle=1;overflow=hidden;whiteSpace=wrap;html=1;" parent="YPDBUU_ndnuOFF8qk_qy-103" vertex="1">
          <mxGeometry width="30" height="30" as="geometry">
            <mxRectangle width="30" height="30" as="alternateBounds" />
          </mxGeometry>
        </mxCell>
        <mxCell id="YPDBUU_ndnuOFF8qk_qy-105" value="id_estabelecimento" style="shape=partialRectangle;connectable=0;fillColor=none;top=0;left=0;bottom=0;right=0;align=left;spacingLeft=6;fontStyle=5;overflow=hidden;whiteSpace=wrap;html=1;" parent="YPDBUU_ndnuOFF8qk_qy-103" vertex="1">
          <mxGeometry x="30" width="140" height="30" as="geometry">
            <mxRectangle width="140" height="30" as="alternateBounds" />
          </mxGeometry>
        </mxCell>
        <mxCell id="YPDBUU_ndnuOFF8qk_qy-106" value="" style="shape=tableRow;horizontal=0;startSize=0;swimlaneHead=0;swimlaneBody=0;fillColor=none;collapsible=0;dropTarget=0;points=[[0,0.5],[1,0.5]];portConstraint=eastwest;top=0;left=0;right=0;bottom=0;" parent="YPDBUU_ndnuOFF8qk_qy-102" vertex="1">
          <mxGeometry y="60" width="170" height="30" as="geometry" />
        </mxCell>
        <mxCell id="YPDBUU_ndnuOFF8qk_qy-107" value="" style="shape=partialRectangle;connectable=0;fillColor=none;top=0;left=0;bottom=0;right=0;editable=1;overflow=hidden;whiteSpace=wrap;html=1;" parent="YPDBUU_ndnuOFF8qk_qy-106" vertex="1">
          <mxGeometry width="30" height="30" as="geometry">
            <mxRectangle width="30" height="30" as="alternateBounds" />
          </mxGeometry>
        </mxCell>
        <mxCell id="YPDBUU_ndnuOFF8qk_qy-108" value="tipo" style="shape=partialRectangle;connectable=0;fillColor=none;top=0;left=0;bottom=0;right=0;align=left;spacingLeft=6;overflow=hidden;whiteSpace=wrap;html=1;" parent="YPDBUU_ndnuOFF8qk_qy-106" vertex="1">
          <mxGeometry x="30" width="140" height="30" as="geometry">
            <mxRectangle width="140" height="30" as="alternateBounds" />
          </mxGeometry>
        </mxCell>
        <mxCell id="YPDBUU_ndnuOFF8qk_qy-109" value="" style="shape=tableRow;horizontal=0;startSize=0;swimlaneHead=0;swimlaneBody=0;fillColor=none;collapsible=0;dropTarget=0;points=[[0,0.5],[1,0.5]];portConstraint=eastwest;top=0;left=0;right=0;bottom=0;" parent="YPDBUU_ndnuOFF8qk_qy-102" vertex="1">
          <mxGeometry y="90" width="170" height="20" as="geometry" />
        </mxCell>
        <mxCell id="YPDBUU_ndnuOFF8qk_qy-110" value="" style="shape=partialRectangle;connectable=0;fillColor=none;top=0;left=0;bottom=0;right=0;editable=1;overflow=hidden;whiteSpace=wrap;html=1;" parent="YPDBUU_ndnuOFF8qk_qy-109" vertex="1">
          <mxGeometry width="30" height="20" as="geometry">
            <mxRectangle width="30" height="20" as="alternateBounds" />
          </mxGeometry>
        </mxCell>
        <mxCell id="YPDBUU_ndnuOFF8qk_qy-111" value="descrição" style="shape=partialRectangle;connectable=0;fillColor=none;top=0;left=0;bottom=0;right=0;align=left;spacingLeft=6;overflow=hidden;whiteSpace=wrap;html=1;" parent="YPDBUU_ndnuOFF8qk_qy-109" vertex="1">
          <mxGeometry x="30" width="140" height="20" as="geometry">
            <mxRectangle width="140" height="20" as="alternateBounds" />
          </mxGeometry>
        </mxCell>
        <mxCell id="YPDBUU_ndnuOFF8qk_qy-115" style="edgeStyle=orthogonalEdgeStyle;rounded=0;orthogonalLoop=1;jettySize=auto;html=1;entryX=0;entryY=0.5;entryDx=0;entryDy=0;" parent="1" target="YPDBUU_ndnuOFF8qk_qy-75" edge="1">
          <mxGeometry relative="1" as="geometry">
            <mxPoint x="2880" y="-1500" as="sourcePoint" />
            <mxPoint x="3040" y="-1730" as="targetPoint" />
            <Array as="points">
              <mxPoint x="2880" y="-1490" />
              <mxPoint x="2940" y="-1490" />
              <mxPoint x="2940" y="-1755" />
            </Array>
          </mxGeometry>
        </mxCell>
        <mxCell id="YPDBUU_ndnuOFF8qk_qy-120" value="" style="shape=tableRow;horizontal=0;startSize=0;swimlaneHead=0;swimlaneBody=0;fillColor=none;collapsible=0;dropTarget=0;points=[[0,0.5],[1,0.5]];portConstraint=eastwest;top=0;left=0;right=0;bottom=0;html=1;" parent="1" vertex="1">
          <mxGeometry x="3280" y="-1605" width="200" height="45" as="geometry" />
        </mxCell>
        <mxCell id="YPDBUU_ndnuOFF8qk_qy-121" value="PK,FK1" style="shape=partialRectangle;connectable=0;fillColor=none;top=0;left=0;bottom=0;right=0;fontStyle=1;overflow=hidden;html=1;whiteSpace=wrap;" parent="YPDBUU_ndnuOFF8qk_qy-120" vertex="1">
          <mxGeometry width="60" height="45" as="geometry">
            <mxRectangle width="60" height="45" as="alternateBounds" />
          </mxGeometry>
        </mxCell>
        <mxCell id="YPDBUU_ndnuOFF8qk_qy-122" value="id_estabelecimento" style="shape=partialRectangle;connectable=0;fillColor=none;top=0;left=0;bottom=0;right=0;align=left;spacingLeft=6;fontStyle=5;overflow=hidden;html=1;whiteSpace=wrap;" parent="YPDBUU_ndnuOFF8qk_qy-120" vertex="1">
          <mxGeometry x="60" width="140" height="45" as="geometry">
            <mxRectangle width="140" height="45" as="alternateBounds" />
          </mxGeometry>
        </mxCell>
        <mxCell id="YPDBUU_ndnuOFF8qk_qy-123" value="" style="shape=tableRow;horizontal=0;startSize=0;swimlaneHead=0;swimlaneBody=0;fillColor=none;collapsible=0;dropTarget=0;points=[[0,0.5],[1,0.5]];portConstraint=eastwest;top=0;left=0;right=0;bottom=0;html=1;" parent="1" vertex="1">
          <mxGeometry x="3280" y="-1525" width="200" height="45" as="geometry" />
        </mxCell>
        <mxCell id="YPDBUU_ndnuOFF8qk_qy-124" value="PK" style="shape=partialRectangle;connectable=0;fillColor=none;top=0;left=0;bottom=0;right=0;fontStyle=1;overflow=hidden;html=1;whiteSpace=wrap;" parent="YPDBUU_ndnuOFF8qk_qy-123" vertex="1">
          <mxGeometry width="60" height="45" as="geometry">
            <mxRectangle width="60" height="45" as="alternateBounds" />
          </mxGeometry>
        </mxCell>
        <mxCell id="YPDBUU_ndnuOFF8qk_qy-125" value="id_inst_npc_dono" style="shape=partialRectangle;connectable=0;fillColor=none;top=0;left=0;bottom=0;right=0;align=left;spacingLeft=6;fontStyle=5;overflow=hidden;html=1;whiteSpace=wrap;" parent="YPDBUU_ndnuOFF8qk_qy-123" vertex="1">
          <mxGeometry x="60" width="140" height="45" as="geometry">
            <mxRectangle width="140" height="45" as="alternateBounds" />
          </mxGeometry>
        </mxCell>
        <mxCell id="YPDBUU_ndnuOFF8qk_qy-126" style="edgeStyle=orthogonalEdgeStyle;rounded=0;orthogonalLoop=1;jettySize=auto;html=1;exitX=1;exitY=0.5;exitDx=0;exitDy=0;entryX=0;entryY=0.5;entryDx=0;entryDy=0;" parent="1" source="YPDBUU_ndnuOFF8qk_qy-70" target="YPDBUU_ndnuOFF8qk_qy-120" edge="1">
          <mxGeometry relative="1" as="geometry">
            <Array as="points">
              <mxPoint x="3080" y="-1385" />
              <mxPoint x="3080" y="-1582" />
              <mxPoint x="3280" y="-1582" />
            </Array>
          </mxGeometry>
        </mxCell>
        <mxCell id="YPDBUU_ndnuOFF8qk_qy-135" value="INSTANCIA_NPC" style="shape=table;startSize=30;container=1;collapsible=1;childLayout=tableLayout;fixedRows=1;rowLines=0;fontStyle=1;align=center;resizeLast=1;html=1;whiteSpace=wrap;" parent="1" vertex="1">
          <mxGeometry x="3280" y="-1400" width="210" height="210" as="geometry" />
        </mxCell>
        <mxCell id="YPDBUU_ndnuOFF8qk_qy-136" value="" style="shape=tableRow;horizontal=0;startSize=0;swimlaneHead=0;swimlaneBody=0;fillColor=none;collapsible=0;dropTarget=0;points=[[0,0.5],[1,0.5]];portConstraint=eastwest;top=0;left=0;right=0;bottom=0;html=1;" parent="YPDBUU_ndnuOFF8qk_qy-135" vertex="1">
          <mxGeometry y="30" width="210" height="50" as="geometry" />
        </mxCell>
        <mxCell id="YPDBUU_ndnuOFF8qk_qy-137" value="PK" style="shape=partialRectangle;connectable=0;fillColor=none;top=0;left=0;bottom=0;right=0;fontStyle=1;overflow=hidden;html=1;whiteSpace=wrap;" parent="YPDBUU_ndnuOFF8qk_qy-136" vertex="1">
          <mxGeometry width="60" height="50" as="geometry">
            <mxRectangle width="60" height="50" as="alternateBounds" />
          </mxGeometry>
        </mxCell>
        <mxCell id="YPDBUU_ndnuOFF8qk_qy-138" value="id_inst_npc" style="shape=partialRectangle;connectable=0;fillColor=none;top=0;left=0;bottom=0;right=0;align=left;spacingLeft=6;fontStyle=5;overflow=hidden;html=1;whiteSpace=wrap;" parent="YPDBUU_ndnuOFF8qk_qy-136" vertex="1">
          <mxGeometry x="60" width="150" height="50" as="geometry">
            <mxRectangle width="150" height="50" as="alternateBounds" />
          </mxGeometry>
        </mxCell>
        <mxCell id="YPDBUU_ndnuOFF8qk_qy-139" value="" style="shape=tableRow;horizontal=0;startSize=0;swimlaneHead=0;swimlaneBody=0;fillColor=none;collapsible=0;dropTarget=0;points=[[0,0.5],[1,0.5]];portConstraint=eastwest;top=0;left=0;right=0;bottom=1;html=1;" parent="YPDBUU_ndnuOFF8qk_qy-135" vertex="1">
          <mxGeometry y="80" width="210" height="70" as="geometry" />
        </mxCell>
        <mxCell id="YPDBUU_ndnuOFF8qk_qy-140" value="PK,FK2" style="shape=partialRectangle;connectable=0;fillColor=none;top=0;left=0;bottom=0;right=0;fontStyle=1;overflow=hidden;html=1;whiteSpace=wrap;" parent="YPDBUU_ndnuOFF8qk_qy-139" vertex="1">
          <mxGeometry width="60" height="70" as="geometry">
            <mxRectangle width="60" height="70" as="alternateBounds" />
          </mxGeometry>
        </mxCell>
        <mxCell id="YPDBUU_ndnuOFF8qk_qy-141" value="id_personagem" style="shape=partialRectangle;connectable=0;fillColor=none;top=0;left=0;bottom=0;right=0;align=left;spacingLeft=6;fontStyle=5;overflow=hidden;html=1;whiteSpace=wrap;" parent="YPDBUU_ndnuOFF8qk_qy-139" vertex="1">
          <mxGeometry x="60" width="150" height="70" as="geometry">
            <mxRectangle width="150" height="70" as="alternateBounds" />
          </mxGeometry>
        </mxCell>
        <mxCell id="YPDBUU_ndnuOFF8qk_qy-142" value="" style="shape=tableRow;horizontal=0;startSize=0;swimlaneHead=0;swimlaneBody=0;fillColor=none;collapsible=0;dropTarget=0;points=[[0,0.5],[1,0.5]];portConstraint=eastwest;top=0;left=0;right=0;bottom=0;html=1;" parent="YPDBUU_ndnuOFF8qk_qy-135" vertex="1">
          <mxGeometry y="150" width="210" height="30" as="geometry" />
        </mxCell>
        <mxCell id="YPDBUU_ndnuOFF8qk_qy-143" value="" style="shape=partialRectangle;connectable=0;fillColor=none;top=0;left=0;bottom=0;right=0;editable=1;overflow=hidden;html=1;whiteSpace=wrap;" parent="YPDBUU_ndnuOFF8qk_qy-142" vertex="1">
          <mxGeometry width="60" height="30" as="geometry">
            <mxRectangle width="60" height="30" as="alternateBounds" />
          </mxGeometry>
        </mxCell>
        <mxCell id="YPDBUU_ndnuOFF8qk_qy-144" value="vida_atual" style="shape=partialRectangle;connectable=0;fillColor=none;top=0;left=0;bottom=0;right=0;align=left;spacingLeft=6;overflow=hidden;html=1;whiteSpace=wrap;" parent="YPDBUU_ndnuOFF8qk_qy-142" vertex="1">
          <mxGeometry x="60" width="150" height="30" as="geometry">
            <mxRectangle width="150" height="30" as="alternateBounds" />
          </mxGeometry>
        </mxCell>
        <mxCell id="YPDBUU_ndnuOFF8qk_qy-145" value="" style="shape=tableRow;horizontal=0;startSize=0;swimlaneHead=0;swimlaneBody=0;fillColor=none;collapsible=0;dropTarget=0;points=[[0,0.5],[1,0.5]];portConstraint=eastwest;top=0;left=0;right=0;bottom=0;html=1;" parent="YPDBUU_ndnuOFF8qk_qy-135" vertex="1">
          <mxGeometry y="180" width="210" height="30" as="geometry" />
        </mxCell>
        <mxCell id="YPDBUU_ndnuOFF8qk_qy-146" value="" style="shape=partialRectangle;connectable=0;fillColor=none;top=0;left=0;bottom=0;right=0;editable=1;overflow=hidden;html=1;whiteSpace=wrap;" parent="YPDBUU_ndnuOFF8qk_qy-145" vertex="1">
          <mxGeometry width="60" height="30" as="geometry">
            <mxRectangle width="60" height="30" as="alternateBounds" />
          </mxGeometry>
        </mxCell>
        <mxCell id="YPDBUU_ndnuOFF8qk_qy-147" value="stamina_atual" style="shape=partialRectangle;connectable=0;fillColor=none;top=0;left=0;bottom=0;right=0;align=left;spacingLeft=6;overflow=hidden;html=1;whiteSpace=wrap;" parent="YPDBUU_ndnuOFF8qk_qy-145" vertex="1">
          <mxGeometry x="60" width="150" height="30" as="geometry">
            <mxRectangle width="150" height="30" as="alternateBounds" />
          </mxGeometry>
        </mxCell>
        <mxCell id="YPDBUU_ndnuOFF8qk_qy-148" style="edgeStyle=orthogonalEdgeStyle;rounded=0;orthogonalLoop=1;jettySize=auto;html=1;exitX=0.5;exitY=1;exitDx=0;exitDy=0;entryX=0.003;entryY=0.356;entryDx=0;entryDy=0;exitPerimeter=0;entryPerimeter=0;" parent="1" source="YPDBUU_ndnuOFF8qk_qy-70" target="YPDBUU_ndnuOFF8qk_qy-139" edge="1">
          <mxGeometry relative="1" as="geometry">
            <Array as="points">
              <mxPoint x="2788" y="-1370" />
              <mxPoint x="2788" y="-1295" />
            </Array>
          </mxGeometry>
        </mxCell>
        <mxCell id="YPDBUU_ndnuOFF8qk_qy-149" value="DIÁLOGO" style="shape=table;startSize=30;container=1;collapsible=1;childLayout=tableLayout;fixedRows=1;rowLines=0;fontStyle=1;align=center;resizeLast=1;html=1;" parent="1" vertex="1">
          <mxGeometry x="3720" y="-1360" width="180" height="120" as="geometry" />
        </mxCell>
        <mxCell id="YPDBUU_ndnuOFF8qk_qy-150" value="" style="shape=tableRow;horizontal=0;startSize=0;swimlaneHead=0;swimlaneBody=0;fillColor=none;collapsible=0;dropTarget=0;points=[[0,0.5],[1,0.5]];portConstraint=eastwest;top=0;left=0;right=0;bottom=1;" parent="YPDBUU_ndnuOFF8qk_qy-149" vertex="1">
          <mxGeometry y="30" width="180" height="30" as="geometry" />
        </mxCell>
        <mxCell id="YPDBUU_ndnuOFF8qk_qy-151" value="PK" style="shape=partialRectangle;connectable=0;fillColor=none;top=0;left=0;bottom=0;right=0;fontStyle=1;overflow=hidden;whiteSpace=wrap;html=1;" parent="YPDBUU_ndnuOFF8qk_qy-150" vertex="1">
          <mxGeometry width="30" height="30" as="geometry">
            <mxRectangle width="30" height="30" as="alternateBounds" />
          </mxGeometry>
        </mxCell>
        <mxCell id="YPDBUU_ndnuOFF8qk_qy-152" value="id_dialogo" style="shape=partialRectangle;connectable=0;fillColor=none;top=0;left=0;bottom=0;right=0;align=left;spacingLeft=6;fontStyle=5;overflow=hidden;whiteSpace=wrap;html=1;" parent="YPDBUU_ndnuOFF8qk_qy-150" vertex="1">
          <mxGeometry x="30" width="150" height="30" as="geometry">
            <mxRectangle width="150" height="30" as="alternateBounds" />
          </mxGeometry>
        </mxCell>
        <mxCell id="YPDBUU_ndnuOFF8qk_qy-153" value="" style="shape=tableRow;horizontal=0;startSize=0;swimlaneHead=0;swimlaneBody=0;fillColor=none;collapsible=0;dropTarget=0;points=[[0,0.5],[1,0.5]];portConstraint=eastwest;top=0;left=0;right=0;bottom=0;" parent="YPDBUU_ndnuOFF8qk_qy-149" vertex="1">
          <mxGeometry y="60" width="180" height="30" as="geometry" />
        </mxCell>
        <mxCell id="YPDBUU_ndnuOFF8qk_qy-154" value="" style="shape=partialRectangle;connectable=0;fillColor=none;top=0;left=0;bottom=0;right=0;editable=1;overflow=hidden;whiteSpace=wrap;html=1;" parent="YPDBUU_ndnuOFF8qk_qy-153" vertex="1">
          <mxGeometry width="30" height="30" as="geometry">
            <mxRectangle width="30" height="30" as="alternateBounds" />
          </mxGeometry>
        </mxCell>
        <mxCell id="YPDBUU_ndnuOFF8qk_qy-155" value="descrição" style="shape=partialRectangle;connectable=0;fillColor=none;top=0;left=0;bottom=0;right=0;align=left;spacingLeft=6;overflow=hidden;whiteSpace=wrap;html=1;" parent="YPDBUU_ndnuOFF8qk_qy-153" vertex="1">
          <mxGeometry x="30" width="150" height="30" as="geometry">
            <mxRectangle width="150" height="30" as="alternateBounds" />
          </mxGeometry>
        </mxCell>
        <mxCell id="YPDBUU_ndnuOFF8qk_qy-156" value="" style="shape=tableRow;horizontal=0;startSize=0;swimlaneHead=0;swimlaneBody=0;fillColor=none;collapsible=0;dropTarget=0;points=[[0,0.5],[1,0.5]];portConstraint=eastwest;top=0;left=0;right=0;bottom=0;" parent="YPDBUU_ndnuOFF8qk_qy-149" vertex="1">
          <mxGeometry y="90" width="180" height="30" as="geometry" />
        </mxCell>
        <mxCell id="YPDBUU_ndnuOFF8qk_qy-157" value="FK" style="shape=partialRectangle;connectable=0;fillColor=none;top=0;left=0;bottom=0;right=0;editable=1;overflow=hidden;whiteSpace=wrap;html=1;" parent="YPDBUU_ndnuOFF8qk_qy-156" vertex="1">
          <mxGeometry width="30" height="30" as="geometry">
            <mxRectangle width="30" height="30" as="alternateBounds" />
          </mxGeometry>
        </mxCell>
        <mxCell id="YPDBUU_ndnuOFF8qk_qy-158" value="linha_fala" style="shape=partialRectangle;connectable=0;fillColor=none;top=0;left=0;bottom=0;right=0;align=left;spacingLeft=6;overflow=hidden;whiteSpace=wrap;html=1;" parent="YPDBUU_ndnuOFF8qk_qy-156" vertex="1">
          <mxGeometry x="30" width="150" height="30" as="geometry">
            <mxRectangle width="150" height="30" as="alternateBounds" />
          </mxGeometry>
        </mxCell>
        <mxCell id="YPDBUU_ndnuOFF8qk_qy-162" value="LINHA_FALA" style="shape=table;startSize=30;container=1;collapsible=1;childLayout=tableLayout;fixedRows=1;rowLines=0;fontStyle=1;align=center;resizeLast=1;html=1;whiteSpace=wrap;" parent="1" vertex="1">
          <mxGeometry x="4079" y="-1390" width="200" height="120" as="geometry" />
        </mxCell>
        <mxCell id="YPDBUU_ndnuOFF8qk_qy-163" value="" style="shape=tableRow;horizontal=0;startSize=0;swimlaneHead=0;swimlaneBody=0;fillColor=none;collapsible=0;dropTarget=0;points=[[0,0.5],[1,0.5]];portConstraint=eastwest;top=0;left=0;right=0;bottom=0;html=1;" parent="YPDBUU_ndnuOFF8qk_qy-162" vertex="1">
          <mxGeometry y="30" width="200" height="30" as="geometry" />
        </mxCell>
        <mxCell id="YPDBUU_ndnuOFF8qk_qy-164" value="PK" style="shape=partialRectangle;connectable=0;fillColor=none;top=0;left=0;bottom=0;right=0;fontStyle=1;overflow=hidden;html=1;whiteSpace=wrap;" parent="YPDBUU_ndnuOFF8qk_qy-163" vertex="1">
          <mxGeometry width="60" height="30" as="geometry">
            <mxRectangle width="60" height="30" as="alternateBounds" />
          </mxGeometry>
        </mxCell>
        <mxCell id="YPDBUU_ndnuOFF8qk_qy-165" value="id_linha_de_fala" style="shape=partialRectangle;connectable=0;fillColor=none;top=0;left=0;bottom=0;right=0;align=left;spacingLeft=6;fontStyle=5;overflow=hidden;html=1;whiteSpace=wrap;" parent="YPDBUU_ndnuOFF8qk_qy-163" vertex="1">
          <mxGeometry x="60" width="140" height="30" as="geometry">
            <mxRectangle width="140" height="30" as="alternateBounds" />
          </mxGeometry>
        </mxCell>
        <mxCell id="YPDBUU_ndnuOFF8qk_qy-166" value="" style="shape=tableRow;horizontal=0;startSize=0;swimlaneHead=0;swimlaneBody=0;fillColor=none;collapsible=0;dropTarget=0;points=[[0,0.5],[1,0.5]];portConstraint=eastwest;top=0;left=0;right=0;bottom=1;html=1;" parent="YPDBUU_ndnuOFF8qk_qy-162" vertex="1">
          <mxGeometry y="60" width="200" height="30" as="geometry" />
        </mxCell>
        <mxCell id="YPDBUU_ndnuOFF8qk_qy-167" value="PK,FK1" style="shape=partialRectangle;connectable=0;fillColor=none;top=0;left=0;bottom=0;right=0;fontStyle=1;overflow=hidden;html=1;whiteSpace=wrap;" parent="YPDBUU_ndnuOFF8qk_qy-166" vertex="1">
          <mxGeometry width="60" height="30" as="geometry">
            <mxRectangle width="60" height="30" as="alternateBounds" />
          </mxGeometry>
        </mxCell>
        <mxCell id="YPDBUU_ndnuOFF8qk_qy-168" value="id_diálogo" style="shape=partialRectangle;connectable=0;fillColor=none;top=0;left=0;bottom=0;right=0;align=left;spacingLeft=6;fontStyle=5;overflow=hidden;html=1;whiteSpace=wrap;" parent="YPDBUU_ndnuOFF8qk_qy-166" vertex="1">
          <mxGeometry x="60" width="140" height="30" as="geometry">
            <mxRectangle width="140" height="30" as="alternateBounds" />
          </mxGeometry>
        </mxCell>
        <mxCell id="YPDBUU_ndnuOFF8qk_qy-169" value="" style="shape=tableRow;horizontal=0;startSize=0;swimlaneHead=0;swimlaneBody=0;fillColor=none;collapsible=0;dropTarget=0;points=[[0,0.5],[1,0.5]];portConstraint=eastwest;top=0;left=0;right=0;bottom=0;html=1;" parent="YPDBUU_ndnuOFF8qk_qy-162" vertex="1">
          <mxGeometry y="90" width="200" height="30" as="geometry" />
        </mxCell>
        <mxCell id="YPDBUU_ndnuOFF8qk_qy-170" value="" style="shape=partialRectangle;connectable=0;fillColor=none;top=0;left=0;bottom=0;right=0;editable=1;overflow=hidden;html=1;whiteSpace=wrap;" parent="YPDBUU_ndnuOFF8qk_qy-169" vertex="1">
          <mxGeometry width="60" height="30" as="geometry">
            <mxRectangle width="60" height="30" as="alternateBounds" />
          </mxGeometry>
        </mxCell>
        <mxCell id="YPDBUU_ndnuOFF8qk_qy-171" value="texto_fala" style="shape=partialRectangle;connectable=0;fillColor=none;top=0;left=0;bottom=0;right=0;align=left;spacingLeft=6;overflow=hidden;html=1;whiteSpace=wrap;" parent="YPDBUU_ndnuOFF8qk_qy-169" vertex="1">
          <mxGeometry x="60" width="140" height="30" as="geometry">
            <mxRectangle width="140" height="30" as="alternateBounds" />
          </mxGeometry>
        </mxCell>
        <mxCell id="8Tx4aNbct0W5j22T1GOp-12" value="" style="shape=tableRow;horizontal=0;startSize=0;swimlaneHead=0;swimlaneBody=0;fillColor=none;collapsible=0;dropTarget=0;points=[[0,0.5],[1,0.5]];portConstraint=eastwest;top=0;left=0;right=0;bottom=0;html=1;" parent="1" vertex="1">
          <mxGeometry x="3280" y="-1350" width="210" height="30" as="geometry" />
        </mxCell>
        <mxCell id="8Tx4aNbct0W5j22T1GOp-14" value="id_npc" style="shape=partialRectangle;connectable=0;fillColor=none;top=0;left=0;bottom=0;right=0;align=left;spacingLeft=6;fontStyle=5;overflow=hidden;html=1;whiteSpace=wrap;" parent="1" vertex="1">
          <mxGeometry x="3340" y="-1330" width="150" height="30" as="geometry">
            <mxRectangle width="150" height="30" as="alternateBounds" />
          </mxGeometry>
        </mxCell>
        <mxCell id="8Tx4aNbct0W5j22T1GOp-13" value="PK,FK1" style="shape=partialRectangle;connectable=0;fillColor=none;top=0;left=0;bottom=0;right=0;fontStyle=1;overflow=hidden;html=1;whiteSpace=wrap;" parent="1" vertex="1">
          <mxGeometry x="3280" y="-1330" width="60" height="30" as="geometry">
            <mxRectangle width="60" height="30" as="alternateBounds" />
          </mxGeometry>
        </mxCell>
        <mxCell id="8Tx4aNbct0W5j22T1GOp-16" value="JOGADOR" style="shape=table;startSize=30;container=1;collapsible=1;childLayout=tableLayout;fixedRows=1;rowLines=0;fontStyle=1;align=center;resizeLast=1;html=1;" parent="1" vertex="1">
          <mxGeometry x="2399" y="-1040" width="201" height="240" as="geometry" />
        </mxCell>
        <mxCell id="8Tx4aNbct0W5j22T1GOp-17" value="" style="shape=tableRow;horizontal=0;startSize=0;swimlaneHead=0;swimlaneBody=0;fillColor=none;collapsible=0;dropTarget=0;points=[[0,0.5],[1,0.5]];portConstraint=eastwest;top=0;left=0;right=0;bottom=1;" parent="8Tx4aNbct0W5j22T1GOp-16" vertex="1">
          <mxGeometry y="30" width="201" height="30" as="geometry" />
        </mxCell>
        <mxCell id="8Tx4aNbct0W5j22T1GOp-18" value="PK,FK" style="shape=partialRectangle;connectable=0;fillColor=none;top=0;left=0;bottom=0;right=0;fontStyle=1;overflow=hidden;whiteSpace=wrap;html=1;" parent="8Tx4aNbct0W5j22T1GOp-17" vertex="1">
          <mxGeometry width="51" height="30" as="geometry">
            <mxRectangle width="51" height="30" as="alternateBounds" />
          </mxGeometry>
        </mxCell>
        <mxCell id="8Tx4aNbct0W5j22T1GOp-19" value="id_personagem" style="shape=partialRectangle;connectable=0;fillColor=none;top=0;left=0;bottom=0;right=0;align=left;spacingLeft=6;fontStyle=5;overflow=hidden;whiteSpace=wrap;html=1;" parent="8Tx4aNbct0W5j22T1GOp-17" vertex="1">
          <mxGeometry x="51" width="150" height="30" as="geometry">
            <mxRectangle width="150" height="30" as="alternateBounds" />
          </mxGeometry>
        </mxCell>
        <mxCell id="8Tx4aNbct0W5j22T1GOp-20" value="" style="shape=tableRow;horizontal=0;startSize=0;swimlaneHead=0;swimlaneBody=0;fillColor=none;collapsible=0;dropTarget=0;points=[[0,0.5],[1,0.5]];portConstraint=eastwest;top=0;left=0;right=0;bottom=0;" parent="8Tx4aNbct0W5j22T1GOp-16" vertex="1">
          <mxGeometry y="60" width="201" height="180" as="geometry" />
        </mxCell>
        <mxCell id="8Tx4aNbct0W5j22T1GOp-21" value="" style="shape=partialRectangle;connectable=0;fillColor=none;top=0;left=0;bottom=0;right=0;editable=1;overflow=hidden;whiteSpace=wrap;html=1;" parent="8Tx4aNbct0W5j22T1GOp-20" vertex="1">
          <mxGeometry width="51" height="180" as="geometry">
            <mxRectangle width="51" height="180" as="alternateBounds" />
          </mxGeometry>
        </mxCell>
        <mxCell id="8Tx4aNbct0W5j22T1GOp-22" value="xp&lt;div&gt;&lt;br&gt;&lt;/div&gt;&lt;div&gt;dinheiro&lt;/div&gt;&lt;div&gt;&lt;br&gt;&lt;/div&gt;&lt;div&gt;vida_atual&lt;/div&gt;&lt;div&gt;&lt;br&gt;&lt;/div&gt;&lt;div&gt;stamina_max&lt;/div&gt;&lt;div&gt;&lt;br&gt;&lt;/div&gt;&lt;div&gt;stamina_atual&lt;/div&gt;&lt;div&gt;&lt;br&gt;&lt;/div&gt;&lt;div&gt;habilidades&lt;/div&gt;" style="shape=partialRectangle;connectable=0;fillColor=none;top=0;left=0;bottom=0;right=0;align=left;spacingLeft=6;overflow=hidden;whiteSpace=wrap;html=1;" parent="8Tx4aNbct0W5j22T1GOp-20" vertex="1">
          <mxGeometry x="51" width="150" height="180" as="geometry">
            <mxRectangle width="150" height="180" as="alternateBounds" />
          </mxGeometry>
        </mxCell>
        <mxCell id="8Tx4aNbct0W5j22T1GOp-29" value="NPC" style="shape=table;startSize=30;container=1;collapsible=1;childLayout=tableLayout;fixedRows=1;rowLines=0;fontStyle=1;align=center;resizeLast=1;html=1;" parent="1" vertex="1">
          <mxGeometry x="3280" y="-1130" width="210" height="90" as="geometry" />
        </mxCell>
        <mxCell id="8Tx4aNbct0W5j22T1GOp-30" value="" style="shape=tableRow;horizontal=0;startSize=0;swimlaneHead=0;swimlaneBody=0;fillColor=none;collapsible=0;dropTarget=0;points=[[0,0.5],[1,0.5]];portConstraint=eastwest;top=0;left=0;right=0;bottom=1;" parent="8Tx4aNbct0W5j22T1GOp-29" vertex="1">
          <mxGeometry y="30" width="210" height="30" as="geometry" />
        </mxCell>
        <mxCell id="8Tx4aNbct0W5j22T1GOp-31" value="PK" style="shape=partialRectangle;connectable=0;fillColor=none;top=0;left=0;bottom=0;right=0;fontStyle=1;overflow=hidden;whiteSpace=wrap;html=1;" parent="8Tx4aNbct0W5j22T1GOp-30" vertex="1">
          <mxGeometry width="30" height="30" as="geometry">
            <mxRectangle width="30" height="30" as="alternateBounds" />
          </mxGeometry>
        </mxCell>
        <mxCell id="8Tx4aNbct0W5j22T1GOp-32" value="id_npc" style="shape=partialRectangle;connectable=0;fillColor=none;top=0;left=0;bottom=0;right=0;align=left;spacingLeft=6;fontStyle=5;overflow=hidden;whiteSpace=wrap;html=1;" parent="8Tx4aNbct0W5j22T1GOp-30" vertex="1">
          <mxGeometry x="30" width="180" height="30" as="geometry">
            <mxRectangle width="180" height="30" as="alternateBounds" />
          </mxGeometry>
        </mxCell>
        <mxCell id="8Tx4aNbct0W5j22T1GOp-33" value="" style="shape=tableRow;horizontal=0;startSize=0;swimlaneHead=0;swimlaneBody=0;fillColor=none;collapsible=0;dropTarget=0;points=[[0,0.5],[1,0.5]];portConstraint=eastwest;top=0;left=0;right=0;bottom=0;" parent="8Tx4aNbct0W5j22T1GOp-29" vertex="1">
          <mxGeometry y="60" width="210" height="30" as="geometry" />
        </mxCell>
        <mxCell id="8Tx4aNbct0W5j22T1GOp-34" value="" style="shape=partialRectangle;connectable=0;fillColor=none;top=0;left=0;bottom=0;right=0;editable=1;overflow=hidden;whiteSpace=wrap;html=1;" parent="8Tx4aNbct0W5j22T1GOp-33" vertex="1">
          <mxGeometry width="30" height="30" as="geometry">
            <mxRectangle width="30" height="30" as="alternateBounds" />
          </mxGeometry>
        </mxCell>
        <mxCell id="8Tx4aNbct0W5j22T1GOp-35" value="textura" style="shape=partialRectangle;connectable=0;fillColor=none;top=0;left=0;bottom=0;right=0;align=left;spacingLeft=6;overflow=hidden;whiteSpace=wrap;html=1;" parent="8Tx4aNbct0W5j22T1GOp-33" vertex="1">
          <mxGeometry x="30" width="180" height="30" as="geometry">
            <mxRectangle width="180" height="30" as="alternateBounds" />
          </mxGeometry>
        </mxCell>
        <mxCell id="8Tx4aNbct0W5j22T1GOp-49" style="edgeStyle=orthogonalEdgeStyle;rounded=0;orthogonalLoop=1;jettySize=auto;html=1;exitX=0;exitY=0.5;exitDx=0;exitDy=0;entryX=0.5;entryY=0;entryDx=0;entryDy=0;" parent="1" source="YPDBUU_ndnuOFF8qk_qy-67" target="8Tx4aNbct0W5j22T1GOp-16" edge="1">
          <mxGeometry relative="1" as="geometry" />
        </mxCell>
        <mxCell id="8Tx4aNbct0W5j22T1GOp-63" value="AMIGÁVEL" style="shape=table;startSize=30;container=1;collapsible=1;childLayout=tableLayout;fixedRows=1;rowLines=0;fontStyle=1;align=center;resizeLast=1;html=1;" parent="1" vertex="1">
          <mxGeometry x="2100" y="-1620" width="180" height="60.000000000000455" as="geometry" />
        </mxCell>
        <mxCell id="8Tx4aNbct0W5j22T1GOp-64" value="" style="shape=tableRow;horizontal=0;startSize=0;swimlaneHead=0;swimlaneBody=0;fillColor=none;collapsible=0;dropTarget=0;points=[[0,0.5],[1,0.5]];portConstraint=eastwest;top=0;left=0;right=0;bottom=1;" parent="8Tx4aNbct0W5j22T1GOp-63" vertex="1">
          <mxGeometry y="30" width="180" height="30" as="geometry" />
        </mxCell>
        <mxCell id="8Tx4aNbct0W5j22T1GOp-65" value="PK" style="shape=partialRectangle;connectable=0;fillColor=none;top=0;left=0;bottom=0;right=0;fontStyle=1;overflow=hidden;whiteSpace=wrap;html=1;" parent="8Tx4aNbct0W5j22T1GOp-64" vertex="1">
          <mxGeometry width="30" height="30" as="geometry">
            <mxRectangle width="30" height="30" as="alternateBounds" />
          </mxGeometry>
        </mxCell>
        <mxCell id="8Tx4aNbct0W5j22T1GOp-66" value="id_amigavel" style="shape=partialRectangle;connectable=0;fillColor=none;top=0;left=0;bottom=0;right=0;align=left;spacingLeft=6;fontStyle=5;overflow=hidden;whiteSpace=wrap;html=1;" parent="8Tx4aNbct0W5j22T1GOp-64" vertex="1">
          <mxGeometry x="30" width="150" height="30" as="geometry">
            <mxRectangle width="150" height="30" as="alternateBounds" />
          </mxGeometry>
        </mxCell>
        <mxCell id="8Tx4aNbct0W5j22T1GOp-76" value="ATAQUE" style="shape=table;startSize=30;container=1;collapsible=1;childLayout=tableLayout;fixedRows=1;rowLines=0;fontStyle=1;align=center;resizeLast=1;html=1;" parent="1" vertex="1">
          <mxGeometry x="1660" y="-1462" width="180" height="124" as="geometry" />
        </mxCell>
        <mxCell id="8Tx4aNbct0W5j22T1GOp-77" value="" style="shape=tableRow;horizontal=0;startSize=0;swimlaneHead=0;swimlaneBody=0;fillColor=none;collapsible=0;dropTarget=0;points=[[0,0.5],[1,0.5]];portConstraint=eastwest;top=0;left=0;right=0;bottom=1;" parent="8Tx4aNbct0W5j22T1GOp-76" vertex="1">
          <mxGeometry y="30" width="180" height="34" as="geometry" />
        </mxCell>
        <mxCell id="8Tx4aNbct0W5j22T1GOp-78" value="PK" style="shape=partialRectangle;connectable=0;fillColor=none;top=0;left=0;bottom=0;right=0;fontStyle=1;overflow=hidden;whiteSpace=wrap;html=1;" parent="8Tx4aNbct0W5j22T1GOp-77" vertex="1">
          <mxGeometry width="30" height="34" as="geometry">
            <mxRectangle width="30" height="34" as="alternateBounds" />
          </mxGeometry>
        </mxCell>
        <mxCell id="8Tx4aNbct0W5j22T1GOp-79" value="id_ataque" style="shape=partialRectangle;connectable=0;fillColor=none;top=0;left=0;bottom=0;right=0;align=left;spacingLeft=6;fontStyle=5;overflow=hidden;whiteSpace=wrap;html=1;" parent="8Tx4aNbct0W5j22T1GOp-77" vertex="1">
          <mxGeometry x="30" width="150" height="34" as="geometry">
            <mxRectangle width="150" height="34" as="alternateBounds" />
          </mxGeometry>
        </mxCell>
        <mxCell id="8Tx4aNbct0W5j22T1GOp-80" value="" style="shape=tableRow;horizontal=0;startSize=0;swimlaneHead=0;swimlaneBody=0;fillColor=none;collapsible=0;dropTarget=0;points=[[0,0.5],[1,0.5]];portConstraint=eastwest;top=0;left=0;right=0;bottom=0;" parent="8Tx4aNbct0W5j22T1GOp-76" vertex="1">
          <mxGeometry y="64" width="180" height="30" as="geometry" />
        </mxCell>
        <mxCell id="8Tx4aNbct0W5j22T1GOp-81" value="" style="shape=partialRectangle;connectable=0;fillColor=none;top=0;left=0;bottom=0;right=0;editable=1;overflow=hidden;whiteSpace=wrap;html=1;" parent="8Tx4aNbct0W5j22T1GOp-80" vertex="1">
          <mxGeometry width="30" height="30" as="geometry">
            <mxRectangle width="30" height="30" as="alternateBounds" />
          </mxGeometry>
        </mxCell>
        <mxCell id="8Tx4aNbct0W5j22T1GOp-82" value="descrição" style="shape=partialRectangle;connectable=0;fillColor=none;top=0;left=0;bottom=0;right=0;align=left;spacingLeft=6;overflow=hidden;whiteSpace=wrap;html=1;" parent="8Tx4aNbct0W5j22T1GOp-80" vertex="1">
          <mxGeometry x="30" width="150" height="30" as="geometry">
            <mxRectangle width="150" height="30" as="alternateBounds" />
          </mxGeometry>
        </mxCell>
        <mxCell id="8Tx4aNbct0W5j22T1GOp-83" value="" style="shape=tableRow;horizontal=0;startSize=0;swimlaneHead=0;swimlaneBody=0;fillColor=none;collapsible=0;dropTarget=0;points=[[0,0.5],[1,0.5]];portConstraint=eastwest;top=0;left=0;right=0;bottom=0;" parent="8Tx4aNbct0W5j22T1GOp-76" vertex="1">
          <mxGeometry y="94" width="180" height="30" as="geometry" />
        </mxCell>
        <mxCell id="8Tx4aNbct0W5j22T1GOp-84" value="" style="shape=partialRectangle;connectable=0;fillColor=none;top=0;left=0;bottom=0;right=0;editable=1;overflow=hidden;whiteSpace=wrap;html=1;" parent="8Tx4aNbct0W5j22T1GOp-83" vertex="1">
          <mxGeometry width="30" height="30" as="geometry">
            <mxRectangle width="30" height="30" as="alternateBounds" />
          </mxGeometry>
        </mxCell>
        <mxCell id="8Tx4aNbct0W5j22T1GOp-85" value="dano" style="shape=partialRectangle;connectable=0;fillColor=none;top=0;left=0;bottom=0;right=0;align=left;spacingLeft=6;overflow=hidden;whiteSpace=wrap;html=1;" parent="8Tx4aNbct0W5j22T1GOp-83" vertex="1">
          <mxGeometry x="30" width="150" height="30" as="geometry">
            <mxRectangle width="150" height="30" as="alternateBounds" />
          </mxGeometry>
        </mxCell>
        <mxCell id="8Tx4aNbct0W5j22T1GOp-93" value="MISSÃO" style="shape=table;startSize=30;container=1;collapsible=1;childLayout=tableLayout;fixedRows=1;rowLines=0;fontStyle=1;align=center;resizeLast=1;html=1;" parent="1" vertex="1">
          <mxGeometry x="3720" y="-960" width="180" height="280" as="geometry" />
        </mxCell>
        <mxCell id="8Tx4aNbct0W5j22T1GOp-94" value="" style="shape=tableRow;horizontal=0;startSize=0;swimlaneHead=0;swimlaneBody=0;fillColor=none;collapsible=0;dropTarget=0;points=[[0,0.5],[1,0.5]];portConstraint=eastwest;top=0;left=0;right=0;bottom=1;" parent="8Tx4aNbct0W5j22T1GOp-93" vertex="1">
          <mxGeometry y="30" width="180" height="30" as="geometry" />
        </mxCell>
        <mxCell id="8Tx4aNbct0W5j22T1GOp-95" value="PK" style="shape=partialRectangle;connectable=0;fillColor=none;top=0;left=0;bottom=0;right=0;fontStyle=1;overflow=hidden;whiteSpace=wrap;html=1;" parent="8Tx4aNbct0W5j22T1GOp-94" vertex="1">
          <mxGeometry width="30" height="30" as="geometry">
            <mxRectangle width="30" height="30" as="alternateBounds" />
          </mxGeometry>
        </mxCell>
        <mxCell id="8Tx4aNbct0W5j22T1GOp-96" value="id_missão" style="shape=partialRectangle;connectable=0;fillColor=none;top=0;left=0;bottom=0;right=0;align=left;spacingLeft=6;fontStyle=5;overflow=hidden;whiteSpace=wrap;html=1;" parent="8Tx4aNbct0W5j22T1GOp-94" vertex="1">
          <mxGeometry x="30" width="150" height="30" as="geometry">
            <mxRectangle width="150" height="30" as="alternateBounds" />
          </mxGeometry>
        </mxCell>
        <mxCell id="8Tx4aNbct0W5j22T1GOp-97" value="" style="shape=tableRow;horizontal=0;startSize=0;swimlaneHead=0;swimlaneBody=0;fillColor=none;collapsible=0;dropTarget=0;points=[[0,0.5],[1,0.5]];portConstraint=eastwest;top=0;left=0;right=0;bottom=0;" parent="8Tx4aNbct0W5j22T1GOp-93" vertex="1">
          <mxGeometry y="60" width="180" height="220" as="geometry" />
        </mxCell>
        <mxCell id="8Tx4aNbct0W5j22T1GOp-98" value="" style="shape=partialRectangle;connectable=0;fillColor=none;top=0;left=0;bottom=0;right=0;editable=1;overflow=hidden;whiteSpace=wrap;html=1;" parent="8Tx4aNbct0W5j22T1GOp-97" vertex="1">
          <mxGeometry width="30" height="220" as="geometry">
            <mxRectangle width="30" height="220" as="alternateBounds" />
          </mxGeometry>
        </mxCell>
        <mxCell id="8Tx4aNbct0W5j22T1GOp-99" value="título&lt;div&gt;&lt;br&gt;&lt;/div&gt;&lt;div&gt;nível_dificuldade&lt;br&gt;&lt;br&gt;personagens&lt;/div&gt;&lt;div&gt;&lt;br&gt;&lt;/div&gt;&lt;div&gt;id_objetivo&lt;/div&gt;&lt;div&gt;&lt;br&gt;&lt;/div&gt;&lt;div&gt;id_história&lt;/div&gt;&lt;div&gt;&lt;br&gt;&lt;/div&gt;&lt;div&gt;id_região&lt;/div&gt;&lt;div&gt;&lt;br&gt;&lt;/div&gt;&lt;div&gt;missão_requisito&lt;/div&gt;" style="shape=partialRectangle;connectable=0;fillColor=none;top=0;left=0;bottom=0;right=0;align=left;spacingLeft=6;overflow=hidden;whiteSpace=wrap;html=1;" parent="8Tx4aNbct0W5j22T1GOp-97" vertex="1">
          <mxGeometry x="30" width="150" height="220" as="geometry">
            <mxRectangle width="150" height="220" as="alternateBounds" />
          </mxGeometry>
        </mxCell>
        <mxCell id="8Tx4aNbct0W5j22T1GOp-106" value="OBJETIVO" style="shape=table;startSize=30;container=1;collapsible=1;childLayout=tableLayout;fixedRows=1;rowLines=0;fontStyle=1;align=center;resizeLast=1;html=1;" parent="1" vertex="1">
          <mxGeometry x="4100" y="-1080" width="180" height="160" as="geometry" />
        </mxCell>
        <mxCell id="8Tx4aNbct0W5j22T1GOp-107" value="" style="shape=tableRow;horizontal=0;startSize=0;swimlaneHead=0;swimlaneBody=0;fillColor=none;collapsible=0;dropTarget=0;points=[[0,0.5],[1,0.5]];portConstraint=eastwest;top=0;left=0;right=0;bottom=1;" parent="8Tx4aNbct0W5j22T1GOp-106" vertex="1">
          <mxGeometry y="30" width="180" height="30" as="geometry" />
        </mxCell>
        <mxCell id="8Tx4aNbct0W5j22T1GOp-108" value="PK" style="shape=partialRectangle;connectable=0;fillColor=none;top=0;left=0;bottom=0;right=0;fontStyle=1;overflow=hidden;whiteSpace=wrap;html=1;" parent="8Tx4aNbct0W5j22T1GOp-107" vertex="1">
          <mxGeometry width="30" height="30" as="geometry">
            <mxRectangle width="30" height="30" as="alternateBounds" />
          </mxGeometry>
        </mxCell>
        <mxCell id="8Tx4aNbct0W5j22T1GOp-109" value="id_objetivo" style="shape=partialRectangle;connectable=0;fillColor=none;top=0;left=0;bottom=0;right=0;align=left;spacingLeft=6;fontStyle=5;overflow=hidden;whiteSpace=wrap;html=1;" parent="8Tx4aNbct0W5j22T1GOp-107" vertex="1">
          <mxGeometry x="30" width="150" height="30" as="geometry">
            <mxRectangle width="150" height="30" as="alternateBounds" />
          </mxGeometry>
        </mxCell>
        <mxCell id="8Tx4aNbct0W5j22T1GOp-110" value="" style="shape=tableRow;horizontal=0;startSize=0;swimlaneHead=0;swimlaneBody=0;fillColor=none;collapsible=0;dropTarget=0;points=[[0,0.5],[1,0.5]];portConstraint=eastwest;top=0;left=0;right=0;bottom=0;" parent="8Tx4aNbct0W5j22T1GOp-106" vertex="1">
          <mxGeometry y="60" width="180" height="100" as="geometry" />
        </mxCell>
        <mxCell id="8Tx4aNbct0W5j22T1GOp-111" value="" style="shape=partialRectangle;connectable=0;fillColor=none;top=0;left=0;bottom=0;right=0;editable=1;overflow=hidden;whiteSpace=wrap;html=1;" parent="8Tx4aNbct0W5j22T1GOp-110" vertex="1">
          <mxGeometry width="30" height="100" as="geometry">
            <mxRectangle width="30" height="100" as="alternateBounds" />
          </mxGeometry>
        </mxCell>
        <mxCell id="8Tx4aNbct0W5j22T1GOp-112" value="título&lt;div&gt;&lt;br&gt;&lt;/div&gt;&lt;div&gt;retorno_xp&lt;/div&gt;&lt;div&gt;&lt;br&gt;&lt;/div&gt;&lt;div&gt;retorno_dinheiro&lt;/div&gt;" style="shape=partialRectangle;connectable=0;fillColor=none;top=0;left=0;bottom=0;right=0;align=left;spacingLeft=6;overflow=hidden;whiteSpace=wrap;html=1;" parent="8Tx4aNbct0W5j22T1GOp-110" vertex="1">
          <mxGeometry x="30" width="150" height="100" as="geometry">
            <mxRectangle width="150" height="100" as="alternateBounds" />
          </mxGeometry>
        </mxCell>
        <mxCell id="8Tx4aNbct0W5j22T1GOp-119" value="HISTÓRIA" style="shape=table;startSize=30;container=1;collapsible=1;childLayout=tableLayout;fixedRows=1;rowLines=0;fontStyle=1;align=center;resizeLast=1;html=1;" parent="1" vertex="1">
          <mxGeometry x="4100" y="-760" width="180" height="120" as="geometry" />
        </mxCell>
        <mxCell id="8Tx4aNbct0W5j22T1GOp-120" value="" style="shape=tableRow;horizontal=0;startSize=0;swimlaneHead=0;swimlaneBody=0;fillColor=none;collapsible=0;dropTarget=0;points=[[0,0.5],[1,0.5]];portConstraint=eastwest;top=0;left=0;right=0;bottom=1;" parent="8Tx4aNbct0W5j22T1GOp-119" vertex="1">
          <mxGeometry y="30" width="180" height="30" as="geometry" />
        </mxCell>
        <mxCell id="8Tx4aNbct0W5j22T1GOp-121" value="PK" style="shape=partialRectangle;connectable=0;fillColor=none;top=0;left=0;bottom=0;right=0;fontStyle=1;overflow=hidden;whiteSpace=wrap;html=1;" parent="8Tx4aNbct0W5j22T1GOp-120" vertex="1">
          <mxGeometry width="30" height="30" as="geometry">
            <mxRectangle width="30" height="30" as="alternateBounds" />
          </mxGeometry>
        </mxCell>
        <mxCell id="8Tx4aNbct0W5j22T1GOp-122" value="id_história" style="shape=partialRectangle;connectable=0;fillColor=none;top=0;left=0;bottom=0;right=0;align=left;spacingLeft=6;fontStyle=5;overflow=hidden;whiteSpace=wrap;html=1;" parent="8Tx4aNbct0W5j22T1GOp-120" vertex="1">
          <mxGeometry x="30" width="150" height="30" as="geometry">
            <mxRectangle width="150" height="30" as="alternateBounds" />
          </mxGeometry>
        </mxCell>
        <mxCell id="8Tx4aNbct0W5j22T1GOp-123" value="" style="shape=tableRow;horizontal=0;startSize=0;swimlaneHead=0;swimlaneBody=0;fillColor=none;collapsible=0;dropTarget=0;points=[[0,0.5],[1,0.5]];portConstraint=eastwest;top=0;left=0;right=0;bottom=0;" parent="8Tx4aNbct0W5j22T1GOp-119" vertex="1">
          <mxGeometry y="60" width="180" height="30" as="geometry" />
        </mxCell>
        <mxCell id="8Tx4aNbct0W5j22T1GOp-124" value="" style="shape=partialRectangle;connectable=0;fillColor=none;top=0;left=0;bottom=0;right=0;editable=1;overflow=hidden;whiteSpace=wrap;html=1;" parent="8Tx4aNbct0W5j22T1GOp-123" vertex="1">
          <mxGeometry width="30" height="30" as="geometry">
            <mxRectangle width="30" height="30" as="alternateBounds" />
          </mxGeometry>
        </mxCell>
        <mxCell id="8Tx4aNbct0W5j22T1GOp-125" value="título" style="shape=partialRectangle;connectable=0;fillColor=none;top=0;left=0;bottom=0;right=0;align=left;spacingLeft=6;overflow=hidden;whiteSpace=wrap;html=1;" parent="8Tx4aNbct0W5j22T1GOp-123" vertex="1">
          <mxGeometry x="30" width="150" height="30" as="geometry">
            <mxRectangle width="150" height="30" as="alternateBounds" />
          </mxGeometry>
        </mxCell>
        <mxCell id="8Tx4aNbct0W5j22T1GOp-126" value="" style="shape=tableRow;horizontal=0;startSize=0;swimlaneHead=0;swimlaneBody=0;fillColor=none;collapsible=0;dropTarget=0;points=[[0,0.5],[1,0.5]];portConstraint=eastwest;top=0;left=0;right=0;bottom=0;" parent="8Tx4aNbct0W5j22T1GOp-119" vertex="1">
          <mxGeometry y="90" width="180" height="30" as="geometry" />
        </mxCell>
        <mxCell id="8Tx4aNbct0W5j22T1GOp-127" value="" style="shape=partialRectangle;connectable=0;fillColor=none;top=0;left=0;bottom=0;right=0;editable=1;overflow=hidden;whiteSpace=wrap;html=1;" parent="8Tx4aNbct0W5j22T1GOp-126" vertex="1">
          <mxGeometry width="30" height="30" as="geometry">
            <mxRectangle width="30" height="30" as="alternateBounds" />
          </mxGeometry>
        </mxCell>
        <mxCell id="8Tx4aNbct0W5j22T1GOp-128" value="enredo" style="shape=partialRectangle;connectable=0;fillColor=none;top=0;left=0;bottom=0;right=0;align=left;spacingLeft=6;overflow=hidden;whiteSpace=wrap;html=1;" parent="8Tx4aNbct0W5j22T1GOp-126" vertex="1">
          <mxGeometry x="30" width="150" height="30" as="geometry">
            <mxRectangle width="150" height="30" as="alternateBounds" />
          </mxGeometry>
        </mxCell>
        <mxCell id="8Tx4aNbct0W5j22T1GOp-135" value="FK" style="text;html=1;align=center;verticalAlign=middle;whiteSpace=wrap;rounded=0;" parent="1" vertex="1">
          <mxGeometry x="3723" y="-805" width="24" height="30" as="geometry" />
        </mxCell>
        <mxCell id="8Tx4aNbct0W5j22T1GOp-136" value="FK" style="text;html=1;align=center;verticalAlign=middle;whiteSpace=wrap;rounded=0;" parent="1" vertex="1">
          <mxGeometry x="3042" y="-1708" width="24" height="30" as="geometry" />
        </mxCell>
        <mxCell id="8Tx4aNbct0W5j22T1GOp-137" value="" style="endArrow=classic;html=1;rounded=0;exitX=1;exitY=0.5;exitDx=0;exitDy=0;entryX=0;entryY=0.5;entryDx=0;entryDy=0;" parent="1" source="8Tx4aNbct0W5j22T1GOp-97" target="8Tx4aNbct0W5j22T1GOp-107" edge="1">
          <mxGeometry width="50" height="50" relative="1" as="geometry">
            <mxPoint x="3900" y="-540" as="sourcePoint" />
            <mxPoint x="3950" y="-590" as="targetPoint" />
            <Array as="points">
              <mxPoint x="4030" y="-790" />
              <mxPoint x="4030" y="-1035" />
            </Array>
          </mxGeometry>
        </mxCell>
        <mxCell id="8Tx4aNbct0W5j22T1GOp-138" value="" style="endArrow=classic;html=1;rounded=0;exitX=0.99;exitY=0.639;exitDx=0;exitDy=0;exitPerimeter=0;entryX=0;entryY=0.5;entryDx=0;entryDy=0;" parent="1" source="8Tx4aNbct0W5j22T1GOp-97" target="8Tx4aNbct0W5j22T1GOp-120" edge="1">
          <mxGeometry width="50" height="50" relative="1" as="geometry">
            <mxPoint x="4000" y="-560" as="sourcePoint" />
            <mxPoint x="4050" y="-610" as="targetPoint" />
            <Array as="points">
              <mxPoint x="4030" y="-760" />
              <mxPoint x="4030" y="-715" />
            </Array>
          </mxGeometry>
        </mxCell>
        <mxCell id="8Tx4aNbct0W5j22T1GOp-139" value="FK" style="text;html=1;align=center;verticalAlign=middle;whiteSpace=wrap;rounded=0;" parent="1" vertex="1">
          <mxGeometry x="3721" y="-747" width="26" height="30" as="geometry" />
        </mxCell>
        <mxCell id="8Tx4aNbct0W5j22T1GOp-140" value="" style="endArrow=classic;html=1;rounded=0;entryX=0.997;entryY=0;entryDx=0;entryDy=0;entryPerimeter=0;" parent="1" target="YPDBUU_ndnuOFF8qk_qy-64" edge="1">
          <mxGeometry width="50" height="50" relative="1" as="geometry">
            <mxPoint x="3720" y="-731.9539007092199" as="sourcePoint" />
            <mxPoint x="2879" y="-1535" as="targetPoint" />
            <Array as="points">
              <mxPoint x="3040" y="-730" />
              <mxPoint x="3040" y="-820" />
              <mxPoint x="3040" y="-930" />
              <mxPoint x="3040" y="-1130" />
              <mxPoint x="3040" y="-1520" />
              <mxPoint x="2960" y="-1520" />
            </Array>
          </mxGeometry>
        </mxCell>
        <mxCell id="8Tx4aNbct0W5j22T1GOp-141" value="FK" style="text;html=1;align=center;verticalAlign=middle;whiteSpace=wrap;rounded=0;" parent="1" vertex="1">
          <mxGeometry x="3723" y="-832" width="24" height="30" as="geometry" />
        </mxCell>
        <mxCell id="8Tx4aNbct0W5j22T1GOp-142" value="PERSONAGEM" style="shape=table;startSize=30;container=1;collapsible=1;childLayout=tableLayout;fixedRows=1;rowLines=0;fontStyle=1;align=center;resizeLast=1;html=1;" parent="1" vertex="1">
          <mxGeometry x="2040" y="-559" width="201" height="229" as="geometry" />
        </mxCell>
        <mxCell id="8Tx4aNbct0W5j22T1GOp-143" value="" style="shape=tableRow;horizontal=0;startSize=0;swimlaneHead=0;swimlaneBody=0;fillColor=none;collapsible=0;dropTarget=0;points=[[0,0.5],[1,0.5]];portConstraint=eastwest;top=0;left=0;right=0;bottom=1;" parent="8Tx4aNbct0W5j22T1GOp-142" vertex="1">
          <mxGeometry y="30" width="201" height="30" as="geometry" />
        </mxCell>
        <mxCell id="8Tx4aNbct0W5j22T1GOp-144" value="PK" style="shape=partialRectangle;connectable=0;fillColor=none;top=0;left=0;bottom=0;right=0;fontStyle=1;overflow=hidden;whiteSpace=wrap;html=1;" parent="8Tx4aNbct0W5j22T1GOp-143" vertex="1">
          <mxGeometry width="51" height="30" as="geometry">
            <mxRectangle width="51" height="30" as="alternateBounds" />
          </mxGeometry>
        </mxCell>
        <mxCell id="8Tx4aNbct0W5j22T1GOp-145" value="id_personagem" style="shape=partialRectangle;connectable=0;fillColor=none;top=0;left=0;bottom=0;right=0;align=left;spacingLeft=6;fontStyle=5;overflow=hidden;whiteSpace=wrap;html=1;" parent="8Tx4aNbct0W5j22T1GOp-143" vertex="1">
          <mxGeometry x="51" width="150" height="30" as="geometry">
            <mxRectangle width="150" height="30" as="alternateBounds" />
          </mxGeometry>
        </mxCell>
        <mxCell id="8Tx4aNbct0W5j22T1GOp-146" value="" style="shape=tableRow;horizontal=0;startSize=0;swimlaneHead=0;swimlaneBody=0;fillColor=none;collapsible=0;dropTarget=0;points=[[0,0.5],[1,0.5]];portConstraint=eastwest;top=0;left=0;right=0;bottom=0;" parent="8Tx4aNbct0W5j22T1GOp-142" vertex="1">
          <mxGeometry y="60" width="201" height="169" as="geometry" />
        </mxCell>
        <mxCell id="8Tx4aNbct0W5j22T1GOp-147" value="" style="shape=partialRectangle;connectable=0;fillColor=none;top=0;left=0;bottom=0;right=0;editable=1;overflow=hidden;whiteSpace=wrap;html=1;" parent="8Tx4aNbct0W5j22T1GOp-146" vertex="1">
          <mxGeometry width="51" height="169" as="geometry">
            <mxRectangle width="51" height="169" as="alternateBounds" />
          </mxGeometry>
        </mxCell>
        <mxCell id="8Tx4aNbct0W5j22T1GOp-148" value="nome&lt;div&gt;&lt;br&gt;&lt;/div&gt;&lt;div&gt;velocidade&lt;/div&gt;&lt;div&gt;&lt;br&gt;&lt;/div&gt;&lt;div&gt;inventário&lt;/div&gt;&lt;div&gt;&lt;br&gt;&lt;/div&gt;&lt;div&gt;vida_max&lt;/div&gt;&lt;div&gt;&lt;br&gt;&lt;/div&gt;&lt;div&gt;guange&lt;/div&gt;&lt;div&gt;&lt;br&gt;&lt;/div&gt;&lt;div&gt;classes&lt;/div&gt;" style="shape=partialRectangle;connectable=0;fillColor=none;top=0;left=0;bottom=0;right=0;align=left;spacingLeft=6;overflow=hidden;whiteSpace=wrap;html=1;" parent="8Tx4aNbct0W5j22T1GOp-146" vertex="1">
          <mxGeometry x="51" width="150" height="169" as="geometry">
            <mxRectangle width="150" height="169" as="alternateBounds" />
          </mxGeometry>
        </mxCell>
        <mxCell id="8Tx4aNbct0W5j22T1GOp-149" value="" style="endArrow=classic;html=1;rounded=0;exitX=1;exitY=0.5;exitDx=0;exitDy=0;" parent="1" source="8Tx4aNbct0W5j22T1GOp-17" edge="1">
          <mxGeometry width="50" height="50" relative="1" as="geometry">
            <mxPoint x="2750" y="-630" as="sourcePoint" />
            <mxPoint x="2240" y="-520" as="targetPoint" />
            <Array as="points">
              <mxPoint x="2690" y="-995" />
              <mxPoint x="2690" y="-520" />
            </Array>
          </mxGeometry>
        </mxCell>
        <mxCell id="8Tx4aNbct0W5j22T1GOp-150" value="FK" style="text;html=1;align=center;verticalAlign=middle;whiteSpace=wrap;rounded=0;" parent="1" vertex="1">
          <mxGeometry x="2051" y="-390" width="26" height="30" as="geometry" />
        </mxCell>
        <mxCell id="8Tx4aNbct0W5j22T1GOp-151" value="FK" style="text;html=1;align=center;verticalAlign=middle;whiteSpace=wrap;rounded=0;" parent="1" vertex="1">
          <mxGeometry x="2051" y="-434" width="26" height="30" as="geometry" />
        </mxCell>
        <mxCell id="8Tx4aNbct0W5j22T1GOp-152" value="" style="endArrow=classic;html=1;rounded=0;entryX=1.017;entryY=-0.011;entryDx=0;entryDy=0;entryPerimeter=0;" parent="1" target="8Tx4aNbct0W5j22T1GOp-146" edge="1">
          <mxGeometry width="50" height="50" relative="1" as="geometry">
            <mxPoint x="3720" y="-818" as="sourcePoint" />
            <mxPoint x="3530" y="-830" as="targetPoint" />
            <Array as="points">
              <mxPoint x="3540" y="-818" />
              <mxPoint x="3540" y="-500" />
              <mxPoint x="3010" y="-502" />
            </Array>
          </mxGeometry>
        </mxCell>
        <mxCell id="8Tx4aNbct0W5j22T1GOp-166" value="INVENTÁRIO" style="shape=table;startSize=30;container=1;collapsible=1;childLayout=tableLayout;fixedRows=1;rowLines=0;fontStyle=1;align=center;resizeLast=1;html=1;whiteSpace=wrap;" parent="1" vertex="1">
          <mxGeometry x="1515" y="-590" width="180" height="150" as="geometry" />
        </mxCell>
        <mxCell id="8Tx4aNbct0W5j22T1GOp-167" value="" style="shape=tableRow;horizontal=0;startSize=0;swimlaneHead=0;swimlaneBody=0;fillColor=none;collapsible=0;dropTarget=0;points=[[0,0.5],[1,0.5]];portConstraint=eastwest;top=0;left=0;right=0;bottom=0;html=1;" parent="8Tx4aNbct0W5j22T1GOp-166" vertex="1">
          <mxGeometry y="30" width="180" height="30" as="geometry" />
        </mxCell>
        <mxCell id="8Tx4aNbct0W5j22T1GOp-168" value="PK" style="shape=partialRectangle;connectable=0;fillColor=none;top=0;left=0;bottom=0;right=0;fontStyle=1;overflow=hidden;html=1;whiteSpace=wrap;" parent="8Tx4aNbct0W5j22T1GOp-167" vertex="1">
          <mxGeometry width="60" height="30" as="geometry">
            <mxRectangle width="60" height="30" as="alternateBounds" />
          </mxGeometry>
        </mxCell>
        <mxCell id="8Tx4aNbct0W5j22T1GOp-169" value="id_inventário" style="shape=partialRectangle;connectable=0;fillColor=none;top=0;left=0;bottom=0;right=0;align=left;spacingLeft=6;fontStyle=5;overflow=hidden;html=1;whiteSpace=wrap;" parent="8Tx4aNbct0W5j22T1GOp-167" vertex="1">
          <mxGeometry x="60" width="120" height="30" as="geometry">
            <mxRectangle width="120" height="30" as="alternateBounds" />
          </mxGeometry>
        </mxCell>
        <mxCell id="8Tx4aNbct0W5j22T1GOp-170" value="" style="shape=tableRow;horizontal=0;startSize=0;swimlaneHead=0;swimlaneBody=0;fillColor=none;collapsible=0;dropTarget=0;points=[[0,0.5],[1,0.5]];portConstraint=eastwest;top=0;left=0;right=0;bottom=1;html=1;" parent="8Tx4aNbct0W5j22T1GOp-166" vertex="1">
          <mxGeometry y="60" width="180" height="30" as="geometry" />
        </mxCell>
        <mxCell id="8Tx4aNbct0W5j22T1GOp-171" value="PK,FK1" style="shape=partialRectangle;connectable=0;fillColor=none;top=0;left=0;bottom=0;right=0;fontStyle=1;overflow=hidden;html=1;whiteSpace=wrap;" parent="8Tx4aNbct0W5j22T1GOp-170" vertex="1">
          <mxGeometry width="60" height="30" as="geometry">
            <mxRectangle width="60" height="30" as="alternateBounds" />
          </mxGeometry>
        </mxCell>
        <mxCell id="8Tx4aNbct0W5j22T1GOp-172" value="id_personagem" style="shape=partialRectangle;connectable=0;fillColor=none;top=0;left=0;bottom=0;right=0;align=left;spacingLeft=6;fontStyle=5;overflow=hidden;html=1;whiteSpace=wrap;" parent="8Tx4aNbct0W5j22T1GOp-170" vertex="1">
          <mxGeometry x="60" width="120" height="30" as="geometry">
            <mxRectangle width="120" height="30" as="alternateBounds" />
          </mxGeometry>
        </mxCell>
        <mxCell id="8Tx4aNbct0W5j22T1GOp-173" value="" style="shape=tableRow;horizontal=0;startSize=0;swimlaneHead=0;swimlaneBody=0;fillColor=none;collapsible=0;dropTarget=0;points=[[0,0.5],[1,0.5]];portConstraint=eastwest;top=0;left=0;right=0;bottom=0;html=1;" parent="8Tx4aNbct0W5j22T1GOp-166" vertex="1">
          <mxGeometry y="90" width="180" height="30" as="geometry" />
        </mxCell>
        <mxCell id="8Tx4aNbct0W5j22T1GOp-174" value="" style="shape=partialRectangle;connectable=0;fillColor=none;top=0;left=0;bottom=0;right=0;editable=1;overflow=hidden;html=1;whiteSpace=wrap;" parent="8Tx4aNbct0W5j22T1GOp-173" vertex="1">
          <mxGeometry width="60" height="30" as="geometry">
            <mxRectangle width="60" height="30" as="alternateBounds" />
          </mxGeometry>
        </mxCell>
        <mxCell id="8Tx4aNbct0W5j22T1GOp-175" value="total_itens" style="shape=partialRectangle;connectable=0;fillColor=none;top=0;left=0;bottom=0;right=0;align=left;spacingLeft=6;overflow=hidden;html=1;whiteSpace=wrap;" parent="8Tx4aNbct0W5j22T1GOp-173" vertex="1">
          <mxGeometry x="60" width="120" height="30" as="geometry">
            <mxRectangle width="120" height="30" as="alternateBounds" />
          </mxGeometry>
        </mxCell>
        <mxCell id="8Tx4aNbct0W5j22T1GOp-176" value="" style="shape=tableRow;horizontal=0;startSize=0;swimlaneHead=0;swimlaneBody=0;fillColor=none;collapsible=0;dropTarget=0;points=[[0,0.5],[1,0.5]];portConstraint=eastwest;top=0;left=0;right=0;bottom=0;html=1;" parent="8Tx4aNbct0W5j22T1GOp-166" vertex="1">
          <mxGeometry y="120" width="180" height="30" as="geometry" />
        </mxCell>
        <mxCell id="8Tx4aNbct0W5j22T1GOp-177" value="" style="shape=partialRectangle;connectable=0;fillColor=none;top=0;left=0;bottom=0;right=0;editable=1;overflow=hidden;html=1;whiteSpace=wrap;" parent="8Tx4aNbct0W5j22T1GOp-176" vertex="1">
          <mxGeometry width="60" height="30" as="geometry">
            <mxRectangle width="60" height="30" as="alternateBounds" />
          </mxGeometry>
        </mxCell>
        <mxCell id="8Tx4aNbct0W5j22T1GOp-178" value="capacidade" style="shape=partialRectangle;connectable=0;fillColor=none;top=0;left=0;bottom=0;right=0;align=left;spacingLeft=6;overflow=hidden;html=1;whiteSpace=wrap;" parent="8Tx4aNbct0W5j22T1GOp-176" vertex="1">
          <mxGeometry x="60" width="120" height="30" as="geometry">
            <mxRectangle width="120" height="30" as="alternateBounds" />
          </mxGeometry>
        </mxCell>
        <mxCell id="8Tx4aNbct0W5j22T1GOp-179" value="ITEM" style="shape=table;startSize=30;container=1;collapsible=1;childLayout=tableLayout;fixedRows=1;rowLines=0;fontStyle=1;align=center;resizeLast=1;html=1;" parent="1" vertex="1">
          <mxGeometry x="1090" y="-876" width="180" height="116" as="geometry" />
        </mxCell>
        <mxCell id="8Tx4aNbct0W5j22T1GOp-180" value="" style="shape=tableRow;horizontal=0;startSize=0;swimlaneHead=0;swimlaneBody=0;fillColor=none;collapsible=0;dropTarget=0;points=[[0,0.5],[1,0.5]];portConstraint=eastwest;top=0;left=0;right=0;bottom=1;" parent="8Tx4aNbct0W5j22T1GOp-179" vertex="1">
          <mxGeometry y="30" width="180" height="30" as="geometry" />
        </mxCell>
        <mxCell id="8Tx4aNbct0W5j22T1GOp-181" value="PK" style="shape=partialRectangle;connectable=0;fillColor=none;top=0;left=0;bottom=0;right=0;fontStyle=1;overflow=hidden;whiteSpace=wrap;html=1;" parent="8Tx4aNbct0W5j22T1GOp-180" vertex="1">
          <mxGeometry width="30" height="30" as="geometry">
            <mxRectangle width="30" height="30" as="alternateBounds" />
          </mxGeometry>
        </mxCell>
        <mxCell id="8Tx4aNbct0W5j22T1GOp-182" value="id_item" style="shape=partialRectangle;connectable=0;fillColor=none;top=0;left=0;bottom=0;right=0;align=left;spacingLeft=6;fontStyle=5;overflow=hidden;whiteSpace=wrap;html=1;" parent="8Tx4aNbct0W5j22T1GOp-180" vertex="1">
          <mxGeometry x="30" width="150" height="30" as="geometry">
            <mxRectangle width="150" height="30" as="alternateBounds" />
          </mxGeometry>
        </mxCell>
        <mxCell id="8Tx4aNbct0W5j22T1GOp-183" value="" style="shape=tableRow;horizontal=0;startSize=0;swimlaneHead=0;swimlaneBody=0;fillColor=none;collapsible=0;dropTarget=0;points=[[0,0.5],[1,0.5]];portConstraint=eastwest;top=0;left=0;right=0;bottom=0;" parent="8Tx4aNbct0W5j22T1GOp-179" vertex="1">
          <mxGeometry y="60" width="180" height="56" as="geometry" />
        </mxCell>
        <mxCell id="8Tx4aNbct0W5j22T1GOp-184" value="" style="shape=partialRectangle;connectable=0;fillColor=none;top=0;left=0;bottom=0;right=0;editable=1;overflow=hidden;whiteSpace=wrap;html=1;" parent="8Tx4aNbct0W5j22T1GOp-183" vertex="1">
          <mxGeometry width="30" height="56" as="geometry">
            <mxRectangle width="30" height="56" as="alternateBounds" />
          </mxGeometry>
        </mxCell>
        <mxCell id="8Tx4aNbct0W5j22T1GOp-185" value="nome&lt;div&gt;&lt;br&gt;&lt;/div&gt;&lt;div&gt;tipo&lt;/div&gt;" style="shape=partialRectangle;connectable=0;fillColor=none;top=0;left=0;bottom=0;right=0;align=left;spacingLeft=6;overflow=hidden;whiteSpace=wrap;html=1;" parent="8Tx4aNbct0W5j22T1GOp-183" vertex="1">
          <mxGeometry x="30" width="150" height="56" as="geometry">
            <mxRectangle width="150" height="56" as="alternateBounds" />
          </mxGeometry>
        </mxCell>
        <mxCell id="8Tx4aNbct0W5j22T1GOp-218" value="EQUIPÁVEL" style="shape=table;startSize=30;container=1;collapsible=1;childLayout=tableLayout;fixedRows=1;rowLines=0;fontStyle=1;align=center;resizeLast=1;html=1;" parent="1" vertex="1">
          <mxGeometry x="820" y="-480" width="180" height="60" as="geometry" />
        </mxCell>
        <mxCell id="8Tx4aNbct0W5j22T1GOp-219" value="" style="shape=tableRow;horizontal=0;startSize=0;swimlaneHead=0;swimlaneBody=0;fillColor=none;collapsible=0;dropTarget=0;points=[[0,0.5],[1,0.5]];portConstraint=eastwest;top=0;left=0;right=0;bottom=1;" parent="8Tx4aNbct0W5j22T1GOp-218" vertex="1">
          <mxGeometry y="30" width="180" height="30" as="geometry" />
        </mxCell>
        <mxCell id="8Tx4aNbct0W5j22T1GOp-220" value="&lt;meta charset=&quot;utf-8&quot;&gt;&lt;span style=&quot;color: rgb(0, 0, 0); font-family: Helvetica; font-size: 12px; font-style: normal; font-variant-ligatures: normal; font-variant-caps: normal; font-weight: 700; letter-spacing: normal; orphans: 2; text-align: center; text-indent: 0px; text-transform: none; widows: 2; word-spacing: 0px; -webkit-text-stroke-width: 0px; white-space: normal; background-color: rgb(255, 255, 255); text-decoration-thickness: initial; text-decoration-style: initial; text-decoration-color: initial; display: inline !important; float: none;&quot;&gt;PK&lt;/span&gt;" style="shape=partialRectangle;connectable=0;fillColor=none;top=0;left=0;bottom=0;right=0;fontStyle=1;overflow=hidden;whiteSpace=wrap;html=1;" parent="8Tx4aNbct0W5j22T1GOp-219" vertex="1">
          <mxGeometry width="30" height="30" as="geometry">
            <mxRectangle width="30" height="30" as="alternateBounds" />
          </mxGeometry>
        </mxCell>
        <mxCell id="8Tx4aNbct0W5j22T1GOp-221" value="id_tipo" style="shape=partialRectangle;connectable=0;fillColor=none;top=0;left=0;bottom=0;right=0;align=left;spacingLeft=6;fontStyle=5;overflow=hidden;whiteSpace=wrap;html=1;" parent="8Tx4aNbct0W5j22T1GOp-219" vertex="1">
          <mxGeometry x="30" width="150" height="30" as="geometry">
            <mxRectangle width="150" height="30" as="alternateBounds" />
          </mxGeometry>
        </mxCell>
        <mxCell id="8Tx4aNbct0W5j22T1GOp-232" value="" style="endArrow=classic;html=1;rounded=0;entryX=1;entryY=0.5;entryDx=0;entryDy=0;" parent="1" target="8Tx4aNbct0W5j22T1GOp-167" edge="1">
          <mxGeometry width="50" height="50" relative="1" as="geometry">
            <mxPoint x="2040" y="-420" as="sourcePoint" />
            <mxPoint x="1940" y="-470" as="targetPoint" />
            <Array as="points">
              <mxPoint x="1800" y="-420" />
              <mxPoint x="1800" y="-500" />
              <mxPoint x="1800" y="-545" />
            </Array>
          </mxGeometry>
        </mxCell>
        <mxCell id="8Tx4aNbct0W5j22T1GOp-233" value="INSTANCIA_ITEM" style="shape=table;startSize=30;container=1;collapsible=1;childLayout=tableLayout;fixedRows=1;rowLines=0;fontStyle=1;align=center;resizeLast=1;html=1;whiteSpace=wrap;" parent="1" vertex="1">
          <mxGeometry x="1516" y="-916" width="180" height="130" as="geometry" />
        </mxCell>
        <mxCell id="8Tx4aNbct0W5j22T1GOp-234" value="" style="shape=tableRow;horizontal=0;startSize=0;swimlaneHead=0;swimlaneBody=0;fillColor=none;collapsible=0;dropTarget=0;points=[[0,0.5],[1,0.5]];portConstraint=eastwest;top=0;left=0;right=0;bottom=0;html=1;" parent="8Tx4aNbct0W5j22T1GOp-233" vertex="1">
          <mxGeometry y="30" width="180" height="100" as="geometry" />
        </mxCell>
        <mxCell id="8Tx4aNbct0W5j22T1GOp-235" value="" style="shape=partialRectangle;connectable=0;fillColor=none;top=0;left=0;bottom=0;right=0;fontStyle=1;overflow=hidden;html=1;whiteSpace=wrap;" parent="8Tx4aNbct0W5j22T1GOp-234" vertex="1">
          <mxGeometry width="60" height="100" as="geometry">
            <mxRectangle width="60" height="100" as="alternateBounds" />
          </mxGeometry>
        </mxCell>
        <mxCell id="8Tx4aNbct0W5j22T1GOp-236" value="id_inst_item&lt;div&gt;&lt;br&gt;&lt;/div&gt;&lt;div&gt;id_item&lt;/div&gt;&lt;div&gt;&lt;br&gt;&lt;/div&gt;&lt;div&gt;id_inventário&lt;/div&gt;" style="shape=partialRectangle;connectable=0;fillColor=none;top=0;left=0;bottom=0;right=0;align=left;spacingLeft=6;fontStyle=5;overflow=hidden;html=1;whiteSpace=wrap;" parent="8Tx4aNbct0W5j22T1GOp-234" vertex="1">
          <mxGeometry x="60" width="120" height="100" as="geometry">
            <mxRectangle width="120" height="100" as="alternateBounds" />
          </mxGeometry>
        </mxCell>
        <mxCell id="8Tx4aNbct0W5j22T1GOp-250" value="&lt;br&gt;&lt;span style=&quot;color: rgb(0, 0, 0); font-family: Helvetica; font-size: 12px; font-style: normal; font-variant-ligatures: normal; font-variant-caps: normal; font-weight: 700; letter-spacing: normal; orphans: 2; text-align: center; text-indent: 0px; text-transform: none; widows: 2; word-spacing: 0px; -webkit-text-stroke-width: 0px; white-space: normal; background-color: rgb(255, 255, 255); text-decoration-thickness: initial; text-decoration-style: initial; text-decoration-color: initial; display: inline !important; float: none;&quot;&gt;PK&lt;/span&gt;&lt;br&gt;&lt;div&gt;&lt;span style=&quot;color: rgb(0, 0, 0); font-family: Helvetica; font-size: 12px; font-style: normal; font-variant-ligatures: normal; font-variant-caps: normal; font-weight: 700; letter-spacing: normal; orphans: 2; text-align: center; text-indent: 0px; text-transform: none; widows: 2; word-spacing: 0px; -webkit-text-stroke-width: 0px; white-space: normal; background-color: rgb(255, 255, 255); text-decoration-thickness: initial; text-decoration-style: initial; text-decoration-color: initial; display: inline !important; float: none;&quot;&gt;&lt;br&gt;&lt;/span&gt;&lt;/div&gt;" style="text;html=1;align=center;verticalAlign=middle;whiteSpace=wrap;rounded=0;" parent="1" vertex="1">
          <mxGeometry x="1516" y="-871" width="60" height="16" as="geometry" />
        </mxCell>
        <mxCell id="8Tx4aNbct0W5j22T1GOp-251" value="&#xa;&lt;span style=&quot;color: rgb(0, 0, 0); font-family: Helvetica; font-size: 12px; font-style: normal; font-variant-ligatures: normal; font-variant-caps: normal; font-weight: 700; letter-spacing: normal; orphans: 2; text-align: center; text-indent: 0px; text-transform: none; widows: 2; word-spacing: 0px; -webkit-text-stroke-width: 0px; white-space: normal; background-color: rgb(255, 255, 255); text-decoration-thickness: initial; text-decoration-style: initial; text-decoration-color: initial; display: inline !important; float: none;&quot;&gt;PK,FK1&lt;/span&gt;&#xa;&#xa;" style="text;html=1;align=center;verticalAlign=middle;whiteSpace=wrap;rounded=0;" parent="1" vertex="1">
          <mxGeometry x="1515" y="-844" width="60" height="30" as="geometry" />
        </mxCell>
        <mxCell id="8Tx4aNbct0W5j22T1GOp-252" value="&lt;br&gt;&lt;span style=&quot;color: rgb(0, 0, 0); font-family: Helvetica; font-size: 12px; font-style: normal; font-variant-ligatures: normal; font-variant-caps: normal; font-weight: 700; letter-spacing: normal; orphans: 2; text-align: center; text-indent: 0px; text-transform: none; widows: 2; word-spacing: 0px; -webkit-text-stroke-width: 0px; white-space: normal; background-color: rgb(255, 255, 255); text-decoration-thickness: initial; text-decoration-style: initial; text-decoration-color: initial; display: inline !important; float: none;&quot;&gt;PK,FK2&lt;/span&gt;&lt;div&gt;&lt;br/&gt;&lt;/div&gt;" style="text;html=1;align=center;verticalAlign=middle;whiteSpace=wrap;rounded=0;" parent="1" vertex="1">
          <mxGeometry x="1516" y="-823" width="60" height="30" as="geometry" />
        </mxCell>
        <mxCell id="8Tx4aNbct0W5j22T1GOp-263" value="GUANGE" style="shape=table;startSize=30;container=1;collapsible=1;childLayout=tableLayout;fixedRows=1;rowLines=0;fontStyle=1;align=center;resizeLast=1;html=1;" parent="1" vertex="1">
          <mxGeometry x="1515" y="-360" width="180" height="200" as="geometry" />
        </mxCell>
        <mxCell id="8Tx4aNbct0W5j22T1GOp-264" value="" style="shape=tableRow;horizontal=0;startSize=0;swimlaneHead=0;swimlaneBody=0;fillColor=none;collapsible=0;dropTarget=0;points=[[0,0.5],[1,0.5]];portConstraint=eastwest;top=0;left=0;right=0;bottom=1;" parent="8Tx4aNbct0W5j22T1GOp-263" vertex="1">
          <mxGeometry y="30" width="180" height="30" as="geometry" />
        </mxCell>
        <mxCell id="8Tx4aNbct0W5j22T1GOp-265" value="PK" style="shape=partialRectangle;connectable=0;fillColor=none;top=0;left=0;bottom=0;right=0;fontStyle=1;overflow=hidden;whiteSpace=wrap;html=1;" parent="8Tx4aNbct0W5j22T1GOp-264" vertex="1">
          <mxGeometry width="30" height="30" as="geometry">
            <mxRectangle width="30" height="30" as="alternateBounds" />
          </mxGeometry>
        </mxCell>
        <mxCell id="8Tx4aNbct0W5j22T1GOp-266" value="id_guange" style="shape=partialRectangle;connectable=0;fillColor=none;top=0;left=0;bottom=0;right=0;align=left;spacingLeft=6;fontStyle=5;overflow=hidden;whiteSpace=wrap;html=1;" parent="8Tx4aNbct0W5j22T1GOp-264" vertex="1">
          <mxGeometry x="30" width="150" height="30" as="geometry">
            <mxRectangle width="150" height="30" as="alternateBounds" />
          </mxGeometry>
        </mxCell>
        <mxCell id="8Tx4aNbct0W5j22T1GOp-267" value="" style="shape=tableRow;horizontal=0;startSize=0;swimlaneHead=0;swimlaneBody=0;fillColor=none;collapsible=0;dropTarget=0;points=[[0,0.5],[1,0.5]];portConstraint=eastwest;top=0;left=0;right=0;bottom=0;" parent="8Tx4aNbct0W5j22T1GOp-263" vertex="1">
          <mxGeometry y="60" width="180" height="140" as="geometry" />
        </mxCell>
        <mxCell id="8Tx4aNbct0W5j22T1GOp-268" value="" style="shape=partialRectangle;connectable=0;fillColor=none;top=0;left=0;bottom=0;right=0;editable=1;overflow=hidden;whiteSpace=wrap;html=1;" parent="8Tx4aNbct0W5j22T1GOp-267" vertex="1">
          <mxGeometry width="30" height="140" as="geometry">
            <mxRectangle width="30" height="140" as="alternateBounds" />
          </mxGeometry>
        </mxCell>
        <mxCell id="8Tx4aNbct0W5j22T1GOp-269" value="nome&lt;div&gt;&lt;br&gt;&lt;/div&gt;&lt;div&gt;descrição&lt;/div&gt;&lt;div&gt;&lt;br&gt;&lt;/div&gt;&lt;div&gt;líder&lt;/div&gt;&lt;div&gt;&lt;br&gt;&lt;/div&gt;&lt;div&gt;membros&lt;/div&gt;" style="shape=partialRectangle;connectable=0;fillColor=none;top=0;left=0;bottom=0;right=0;align=left;spacingLeft=6;overflow=hidden;whiteSpace=wrap;html=1;" parent="8Tx4aNbct0W5j22T1GOp-267" vertex="1">
          <mxGeometry x="30" width="150" height="140" as="geometry">
            <mxRectangle width="150" height="140" as="alternateBounds" />
          </mxGeometry>
        </mxCell>
        <mxCell id="8Tx4aNbct0W5j22T1GOp-277" value="CLASSE" style="shape=table;startSize=30;container=1;collapsible=1;childLayout=tableLayout;fixedRows=1;rowLines=0;fontStyle=1;align=center;resizeLast=1;html=1;" parent="1" vertex="1">
          <mxGeometry x="1779" y="-40" width="180" height="120" as="geometry" />
        </mxCell>
        <mxCell id="8Tx4aNbct0W5j22T1GOp-278" value="" style="shape=tableRow;horizontal=0;startSize=0;swimlaneHead=0;swimlaneBody=0;fillColor=none;collapsible=0;dropTarget=0;points=[[0,0.5],[1,0.5]];portConstraint=eastwest;top=0;left=0;right=0;bottom=1;" parent="8Tx4aNbct0W5j22T1GOp-277" vertex="1">
          <mxGeometry y="30" width="180" height="30" as="geometry" />
        </mxCell>
        <mxCell id="8Tx4aNbct0W5j22T1GOp-279" value="PK" style="shape=partialRectangle;connectable=0;fillColor=none;top=0;left=0;bottom=0;right=0;fontStyle=1;overflow=hidden;whiteSpace=wrap;html=1;" parent="8Tx4aNbct0W5j22T1GOp-278" vertex="1">
          <mxGeometry width="30" height="30" as="geometry">
            <mxRectangle width="30" height="30" as="alternateBounds" />
          </mxGeometry>
        </mxCell>
        <mxCell id="8Tx4aNbct0W5j22T1GOp-280" value="id_classe" style="shape=partialRectangle;connectable=0;fillColor=none;top=0;left=0;bottom=0;right=0;align=left;spacingLeft=6;fontStyle=5;overflow=hidden;whiteSpace=wrap;html=1;" parent="8Tx4aNbct0W5j22T1GOp-278" vertex="1">
          <mxGeometry x="30" width="150" height="30" as="geometry">
            <mxRectangle width="150" height="30" as="alternateBounds" />
          </mxGeometry>
        </mxCell>
        <mxCell id="8Tx4aNbct0W5j22T1GOp-281" value="" style="shape=tableRow;horizontal=0;startSize=0;swimlaneHead=0;swimlaneBody=0;fillColor=none;collapsible=0;dropTarget=0;points=[[0,0.5],[1,0.5]];portConstraint=eastwest;top=0;left=0;right=0;bottom=0;" parent="8Tx4aNbct0W5j22T1GOp-277" vertex="1">
          <mxGeometry y="60" width="180" height="30" as="geometry" />
        </mxCell>
        <mxCell id="8Tx4aNbct0W5j22T1GOp-282" value="" style="shape=partialRectangle;connectable=0;fillColor=none;top=0;left=0;bottom=0;right=0;editable=1;overflow=hidden;whiteSpace=wrap;html=1;" parent="8Tx4aNbct0W5j22T1GOp-281" vertex="1">
          <mxGeometry width="30" height="30" as="geometry">
            <mxRectangle width="30" height="30" as="alternateBounds" />
          </mxGeometry>
        </mxCell>
        <mxCell id="8Tx4aNbct0W5j22T1GOp-283" value="nome" style="shape=partialRectangle;connectable=0;fillColor=none;top=0;left=0;bottom=0;right=0;align=left;spacingLeft=6;overflow=hidden;whiteSpace=wrap;html=1;" parent="8Tx4aNbct0W5j22T1GOp-281" vertex="1">
          <mxGeometry x="30" width="150" height="30" as="geometry">
            <mxRectangle width="150" height="30" as="alternateBounds" />
          </mxGeometry>
        </mxCell>
        <mxCell id="8Tx4aNbct0W5j22T1GOp-284" value="" style="shape=tableRow;horizontal=0;startSize=0;swimlaneHead=0;swimlaneBody=0;fillColor=none;collapsible=0;dropTarget=0;points=[[0,0.5],[1,0.5]];portConstraint=eastwest;top=0;left=0;right=0;bottom=0;" parent="8Tx4aNbct0W5j22T1GOp-277" vertex="1">
          <mxGeometry y="90" width="180" height="30" as="geometry" />
        </mxCell>
        <mxCell id="8Tx4aNbct0W5j22T1GOp-285" value="" style="shape=partialRectangle;connectable=0;fillColor=none;top=0;left=0;bottom=0;right=0;editable=1;overflow=hidden;whiteSpace=wrap;html=1;" parent="8Tx4aNbct0W5j22T1GOp-284" vertex="1">
          <mxGeometry width="30" height="30" as="geometry">
            <mxRectangle width="30" height="30" as="alternateBounds" />
          </mxGeometry>
        </mxCell>
        <mxCell id="8Tx4aNbct0W5j22T1GOp-286" value="habilidades" style="shape=partialRectangle;connectable=0;fillColor=none;top=0;left=0;bottom=0;right=0;align=left;spacingLeft=6;overflow=hidden;whiteSpace=wrap;html=1;" parent="8Tx4aNbct0W5j22T1GOp-284" vertex="1">
          <mxGeometry x="30" width="150" height="30" as="geometry">
            <mxRectangle width="150" height="30" as="alternateBounds" />
          </mxGeometry>
        </mxCell>
        <mxCell id="8Tx4aNbct0W5j22T1GOp-290" value="HABILIDADES" style="shape=table;startSize=30;container=1;collapsible=1;childLayout=tableLayout;fixedRows=1;rowLines=0;fontStyle=1;align=center;resizeLast=1;html=1;" parent="1" vertex="1">
          <mxGeometry x="1480" y="-40" width="180" height="120" as="geometry" />
        </mxCell>
        <mxCell id="8Tx4aNbct0W5j22T1GOp-291" value="" style="shape=tableRow;horizontal=0;startSize=0;swimlaneHead=0;swimlaneBody=0;fillColor=none;collapsible=0;dropTarget=0;points=[[0,0.5],[1,0.5]];portConstraint=eastwest;top=0;left=0;right=0;bottom=1;" parent="8Tx4aNbct0W5j22T1GOp-290" vertex="1">
          <mxGeometry y="30" width="180" height="30" as="geometry" />
        </mxCell>
        <mxCell id="8Tx4aNbct0W5j22T1GOp-292" value="PK" style="shape=partialRectangle;connectable=0;fillColor=none;top=0;left=0;bottom=0;right=0;fontStyle=1;overflow=hidden;whiteSpace=wrap;html=1;" parent="8Tx4aNbct0W5j22T1GOp-291" vertex="1">
          <mxGeometry width="30" height="30" as="geometry">
            <mxRectangle width="30" height="30" as="alternateBounds" />
          </mxGeometry>
        </mxCell>
        <mxCell id="8Tx4aNbct0W5j22T1GOp-293" value="id_habilidade" style="shape=partialRectangle;connectable=0;fillColor=none;top=0;left=0;bottom=0;right=0;align=left;spacingLeft=6;fontStyle=5;overflow=hidden;whiteSpace=wrap;html=1;" parent="8Tx4aNbct0W5j22T1GOp-291" vertex="1">
          <mxGeometry x="30" width="150" height="30" as="geometry">
            <mxRectangle width="150" height="30" as="alternateBounds" />
          </mxGeometry>
        </mxCell>
        <mxCell id="8Tx4aNbct0W5j22T1GOp-294" value="" style="shape=tableRow;horizontal=0;startSize=0;swimlaneHead=0;swimlaneBody=0;fillColor=none;collapsible=0;dropTarget=0;points=[[0,0.5],[1,0.5]];portConstraint=eastwest;top=0;left=0;right=0;bottom=0;" parent="8Tx4aNbct0W5j22T1GOp-290" vertex="1">
          <mxGeometry y="60" width="180" height="30" as="geometry" />
        </mxCell>
        <mxCell id="8Tx4aNbct0W5j22T1GOp-295" value="" style="shape=partialRectangle;connectable=0;fillColor=none;top=0;left=0;bottom=0;right=0;editable=1;overflow=hidden;whiteSpace=wrap;html=1;" parent="8Tx4aNbct0W5j22T1GOp-294" vertex="1">
          <mxGeometry width="30" height="30" as="geometry">
            <mxRectangle width="30" height="30" as="alternateBounds" />
          </mxGeometry>
        </mxCell>
        <mxCell id="8Tx4aNbct0W5j22T1GOp-296" value="nome" style="shape=partialRectangle;connectable=0;fillColor=none;top=0;left=0;bottom=0;right=0;align=left;spacingLeft=6;overflow=hidden;whiteSpace=wrap;html=1;" parent="8Tx4aNbct0W5j22T1GOp-294" vertex="1">
          <mxGeometry x="30" width="150" height="30" as="geometry">
            <mxRectangle width="150" height="30" as="alternateBounds" />
          </mxGeometry>
        </mxCell>
        <mxCell id="8Tx4aNbct0W5j22T1GOp-297" value="" style="shape=tableRow;horizontal=0;startSize=0;swimlaneHead=0;swimlaneBody=0;fillColor=none;collapsible=0;dropTarget=0;points=[[0,0.5],[1,0.5]];portConstraint=eastwest;top=0;left=0;right=0;bottom=0;" parent="8Tx4aNbct0W5j22T1GOp-290" vertex="1">
          <mxGeometry y="90" width="180" height="30" as="geometry" />
        </mxCell>
        <mxCell id="8Tx4aNbct0W5j22T1GOp-298" value="" style="shape=partialRectangle;connectable=0;fillColor=none;top=0;left=0;bottom=0;right=0;editable=1;overflow=hidden;whiteSpace=wrap;html=1;" parent="8Tx4aNbct0W5j22T1GOp-297" vertex="1">
          <mxGeometry width="30" height="30" as="geometry">
            <mxRectangle width="30" height="30" as="alternateBounds" />
          </mxGeometry>
        </mxCell>
        <mxCell id="8Tx4aNbct0W5j22T1GOp-299" value="porcentagem" style="shape=partialRectangle;connectable=0;fillColor=none;top=0;left=0;bottom=0;right=0;align=left;spacingLeft=6;overflow=hidden;whiteSpace=wrap;html=1;" parent="8Tx4aNbct0W5j22T1GOp-297" vertex="1">
          <mxGeometry x="30" width="150" height="30" as="geometry">
            <mxRectangle width="150" height="30" as="alternateBounds" />
          </mxGeometry>
        </mxCell>
        <mxCell id="8Tx4aNbct0W5j22T1GOp-303" value="" style="endArrow=classic;html=1;rounded=0;exitX=-0.019;exitY=0.902;exitDx=0;exitDy=0;exitPerimeter=0;entryX=1;entryY=0.5;entryDx=0;entryDy=0;" parent="1" source="8Tx4aNbct0W5j22T1GOp-146" target="8Tx4aNbct0W5j22T1GOp-278" edge="1">
          <mxGeometry width="50" height="50" relative="1" as="geometry">
            <mxPoint x="2020" y="-230" as="sourcePoint" />
            <mxPoint x="2070" y="-280" as="targetPoint" />
            <Array as="points">
              <mxPoint x="2000" y="-347" />
              <mxPoint x="2000" y="5" />
            </Array>
          </mxGeometry>
        </mxCell>
        <mxCell id="8Tx4aNbct0W5j22T1GOp-304" value="FK" style="text;html=1;align=center;verticalAlign=middle;whiteSpace=wrap;rounded=0;" parent="1" vertex="1">
          <mxGeometry x="1780" y="50" width="26" height="30" as="geometry" />
        </mxCell>
        <mxCell id="8Tx4aNbct0W5j22T1GOp-305" value="" style="endArrow=classic;html=1;rounded=0;exitX=0;exitY=0.5;exitDx=0;exitDy=0;entryX=1;entryY=0.5;entryDx=0;entryDy=0;" parent="1" source="8Tx4aNbct0W5j22T1GOp-304" target="8Tx4aNbct0W5j22T1GOp-291" edge="1">
          <mxGeometry width="50" height="50" relative="1" as="geometry">
            <mxPoint x="1700" y="180" as="sourcePoint" />
            <mxPoint x="1750" y="130" as="targetPoint" />
            <Array as="points">
              <mxPoint x="1710" y="65" />
              <mxPoint x="1710" y="5" />
            </Array>
          </mxGeometry>
        </mxCell>
        <mxCell id="8Tx4aNbct0W5j22T1GOp-306" value="INSTANCIA_ARMA" style="shape=table;startSize=30;container=1;collapsible=1;childLayout=tableLayout;fixedRows=1;rowLines=0;fontStyle=1;align=center;resizeLast=1;html=1;" parent="1" vertex="1">
          <mxGeometry x="2409" y="-280" width="180" height="140.00000000000045" as="geometry" />
        </mxCell>
        <mxCell id="8Tx4aNbct0W5j22T1GOp-307" value="" style="shape=tableRow;horizontal=0;startSize=0;swimlaneHead=0;swimlaneBody=0;fillColor=none;collapsible=0;dropTarget=0;points=[[0,0.5],[1,0.5]];portConstraint=eastwest;top=0;left=0;right=0;bottom=1;" parent="8Tx4aNbct0W5j22T1GOp-306" vertex="1">
          <mxGeometry y="30" width="180" height="110" as="geometry" />
        </mxCell>
        <mxCell id="8Tx4aNbct0W5j22T1GOp-308" value="" style="shape=partialRectangle;connectable=0;fillColor=none;top=0;left=0;bottom=0;right=0;fontStyle=1;overflow=hidden;whiteSpace=wrap;html=1;" parent="8Tx4aNbct0W5j22T1GOp-307" vertex="1">
          <mxGeometry width="51" height="110" as="geometry">
            <mxRectangle width="51" height="110" as="alternateBounds" />
          </mxGeometry>
        </mxCell>
        <mxCell id="8Tx4aNbct0W5j22T1GOp-309" value="id_inst_arma&lt;div&gt;&lt;br&gt;&lt;/div&gt;&lt;div&gt;id_arma&lt;/div&gt;&lt;div&gt;&lt;br&gt;&lt;/div&gt;&lt;div&gt;id_personagem&lt;/div&gt;" style="shape=partialRectangle;connectable=0;fillColor=none;top=0;left=0;bottom=0;right=0;align=left;spacingLeft=6;fontStyle=5;overflow=hidden;whiteSpace=wrap;html=1;" parent="8Tx4aNbct0W5j22T1GOp-307" vertex="1">
          <mxGeometry x="51" width="129" height="110" as="geometry">
            <mxRectangle width="129" height="110" as="alternateBounds" />
          </mxGeometry>
        </mxCell>
        <mxCell id="8Tx4aNbct0W5j22T1GOp-319" value="&lt;span style=&quot;font-weight: 700;&quot;&gt;PK&lt;/span&gt;" style="text;html=1;align=center;verticalAlign=middle;whiteSpace=wrap;rounded=0;" parent="1" vertex="1">
          <mxGeometry x="2422" y="-240" width="25" height="30" as="geometry" />
        </mxCell>
        <mxCell id="8Tx4aNbct0W5j22T1GOp-320" value="&lt;span style=&quot;font-weight: 700;&quot;&gt;PK,FK1&lt;/span&gt;" style="text;html=1;align=center;verticalAlign=middle;whiteSpace=wrap;rounded=0;" parent="1" vertex="1">
          <mxGeometry x="2422" y="-208" width="25" height="30" as="geometry" />
        </mxCell>
        <mxCell id="8Tx4aNbct0W5j22T1GOp-321" value="&lt;span style=&quot;font-weight: 700;&quot;&gt;PK,FK2&lt;/span&gt;" style="text;html=1;align=center;verticalAlign=middle;whiteSpace=wrap;rounded=0;" parent="1" vertex="1">
          <mxGeometry x="2422" y="-179" width="25" height="30" as="geometry" />
        </mxCell>
        <mxCell id="8Tx4aNbct0W5j22T1GOp-323" value="ARMA" style="shape=table;startSize=30;container=1;collapsible=1;childLayout=tableLayout;fixedRows=1;rowLines=0;fontStyle=1;align=center;resizeLast=1;html=1;" parent="1" vertex="1">
          <mxGeometry x="2860" y="-240" width="180" height="280" as="geometry" />
        </mxCell>
        <mxCell id="8Tx4aNbct0W5j22T1GOp-324" value="" style="shape=tableRow;horizontal=0;startSize=0;swimlaneHead=0;swimlaneBody=0;fillColor=none;collapsible=0;dropTarget=0;points=[[0,0.5],[1,0.5]];portConstraint=eastwest;top=0;left=0;right=0;bottom=1;" parent="8Tx4aNbct0W5j22T1GOp-323" vertex="1">
          <mxGeometry y="30" width="180" height="30" as="geometry" />
        </mxCell>
        <mxCell id="8Tx4aNbct0W5j22T1GOp-325" value="PK" style="shape=partialRectangle;connectable=0;fillColor=none;top=0;left=0;bottom=0;right=0;fontStyle=1;overflow=hidden;whiteSpace=wrap;html=1;" parent="8Tx4aNbct0W5j22T1GOp-324" vertex="1">
          <mxGeometry width="30" height="30" as="geometry">
            <mxRectangle width="30" height="30" as="alternateBounds" />
          </mxGeometry>
        </mxCell>
        <mxCell id="8Tx4aNbct0W5j22T1GOp-326" value="id_arma" style="shape=partialRectangle;connectable=0;fillColor=none;top=0;left=0;bottom=0;right=0;align=left;spacingLeft=6;fontStyle=5;overflow=hidden;whiteSpace=wrap;html=1;" parent="8Tx4aNbct0W5j22T1GOp-324" vertex="1">
          <mxGeometry x="30" width="150" height="30" as="geometry">
            <mxRectangle width="150" height="30" as="alternateBounds" />
          </mxGeometry>
        </mxCell>
        <mxCell id="8Tx4aNbct0W5j22T1GOp-327" value="" style="shape=tableRow;horizontal=0;startSize=0;swimlaneHead=0;swimlaneBody=0;fillColor=none;collapsible=0;dropTarget=0;points=[[0,0.5],[1,0.5]];portConstraint=eastwest;top=0;left=0;right=0;bottom=0;" parent="8Tx4aNbct0W5j22T1GOp-323" vertex="1">
          <mxGeometry y="60" width="180" height="220" as="geometry" />
        </mxCell>
        <mxCell id="8Tx4aNbct0W5j22T1GOp-328" value="" style="shape=partialRectangle;connectable=0;fillColor=none;top=0;left=0;bottom=0;right=0;editable=1;overflow=hidden;whiteSpace=wrap;html=1;" parent="8Tx4aNbct0W5j22T1GOp-327" vertex="1">
          <mxGeometry width="30" height="220" as="geometry">
            <mxRectangle width="30" height="220" as="alternateBounds" />
          </mxGeometry>
        </mxCell>
        <mxCell id="8Tx4aNbct0W5j22T1GOp-329" value="nome&lt;br&gt;&lt;br&gt;descrição&lt;br&gt;&lt;br&gt;&lt;div&gt;categoria&lt;/div&gt;&lt;div&gt;&lt;br&gt;&lt;/div&gt;&lt;div&gt;preço&lt;/div&gt;&lt;div&gt;&lt;br&gt;&lt;/div&gt;&lt;div&gt;peso&lt;/div&gt;&lt;div&gt;&lt;br&gt;&lt;/div&gt;&lt;div&gt;durabilidade&lt;/div&gt;&lt;div&gt;&lt;br&gt;&lt;/div&gt;&lt;div&gt;dano&lt;/div&gt;" style="shape=partialRectangle;connectable=0;fillColor=none;top=0;left=0;bottom=0;right=0;align=left;spacingLeft=6;overflow=hidden;whiteSpace=wrap;html=1;" parent="8Tx4aNbct0W5j22T1GOp-327" vertex="1">
          <mxGeometry x="30" width="150" height="220" as="geometry">
            <mxRectangle width="150" height="220" as="alternateBounds" />
          </mxGeometry>
        </mxCell>
        <mxCell id="8Tx4aNbct0W5j22T1GOp-337" value="ARMA_FOGO" style="shape=table;startSize=30;container=1;collapsible=1;childLayout=tableLayout;fixedRows=1;rowLines=0;fontStyle=1;align=center;resizeLast=1;html=1;" parent="1" vertex="1">
          <mxGeometry x="2740" y="120" width="180" height="120" as="geometry" />
        </mxCell>
        <mxCell id="8Tx4aNbct0W5j22T1GOp-338" value="" style="shape=tableRow;horizontal=0;startSize=0;swimlaneHead=0;swimlaneBody=0;fillColor=none;collapsible=0;dropTarget=0;points=[[0,0.5],[1,0.5]];portConstraint=eastwest;top=0;left=0;right=0;bottom=1;" parent="8Tx4aNbct0W5j22T1GOp-337" vertex="1">
          <mxGeometry y="30" width="180" height="30" as="geometry" />
        </mxCell>
        <mxCell id="8Tx4aNbct0W5j22T1GOp-339" value="PK" style="shape=partialRectangle;connectable=0;fillColor=none;top=0;left=0;bottom=0;right=0;fontStyle=1;overflow=hidden;whiteSpace=wrap;html=1;" parent="8Tx4aNbct0W5j22T1GOp-338" vertex="1">
          <mxGeometry width="30" height="30" as="geometry">
            <mxRectangle width="30" height="30" as="alternateBounds" />
          </mxGeometry>
        </mxCell>
        <mxCell id="8Tx4aNbct0W5j22T1GOp-340" value="id_arma_fogo" style="shape=partialRectangle;connectable=0;fillColor=none;top=0;left=0;bottom=0;right=0;align=left;spacingLeft=6;fontStyle=5;overflow=hidden;whiteSpace=wrap;html=1;" parent="8Tx4aNbct0W5j22T1GOp-338" vertex="1">
          <mxGeometry x="30" width="150" height="30" as="geometry">
            <mxRectangle width="150" height="30" as="alternateBounds" />
          </mxGeometry>
        </mxCell>
        <mxCell id="8Tx4aNbct0W5j22T1GOp-341" value="" style="shape=tableRow;horizontal=0;startSize=0;swimlaneHead=0;swimlaneBody=0;fillColor=none;collapsible=0;dropTarget=0;points=[[0,0.5],[1,0.5]];portConstraint=eastwest;top=0;left=0;right=0;bottom=0;" parent="8Tx4aNbct0W5j22T1GOp-337" vertex="1">
          <mxGeometry y="60" width="180" height="30" as="geometry" />
        </mxCell>
        <mxCell id="8Tx4aNbct0W5j22T1GOp-342" value="" style="shape=partialRectangle;connectable=0;fillColor=none;top=0;left=0;bottom=0;right=0;editable=1;overflow=hidden;whiteSpace=wrap;html=1;" parent="8Tx4aNbct0W5j22T1GOp-341" vertex="1">
          <mxGeometry width="30" height="30" as="geometry">
            <mxRectangle width="30" height="30" as="alternateBounds" />
          </mxGeometry>
        </mxCell>
        <mxCell id="8Tx4aNbct0W5j22T1GOp-343" value="velocidade_disparo" style="shape=partialRectangle;connectable=0;fillColor=none;top=0;left=0;bottom=0;right=0;align=left;spacingLeft=6;overflow=hidden;whiteSpace=wrap;html=1;" parent="8Tx4aNbct0W5j22T1GOp-341" vertex="1">
          <mxGeometry x="30" width="150" height="30" as="geometry">
            <mxRectangle width="150" height="30" as="alternateBounds" />
          </mxGeometry>
        </mxCell>
        <mxCell id="8Tx4aNbct0W5j22T1GOp-344" value="" style="shape=tableRow;horizontal=0;startSize=0;swimlaneHead=0;swimlaneBody=0;fillColor=none;collapsible=0;dropTarget=0;points=[[0,0.5],[1,0.5]];portConstraint=eastwest;top=0;left=0;right=0;bottom=0;" parent="8Tx4aNbct0W5j22T1GOp-337" vertex="1">
          <mxGeometry y="90" width="180" height="30" as="geometry" />
        </mxCell>
        <mxCell id="8Tx4aNbct0W5j22T1GOp-345" value="" style="shape=partialRectangle;connectable=0;fillColor=none;top=0;left=0;bottom=0;right=0;editable=1;overflow=hidden;whiteSpace=wrap;html=1;" parent="8Tx4aNbct0W5j22T1GOp-344" vertex="1">
          <mxGeometry width="30" height="30" as="geometry">
            <mxRectangle width="30" height="30" as="alternateBounds" />
          </mxGeometry>
        </mxCell>
        <mxCell id="8Tx4aNbct0W5j22T1GOp-346" value="velocidade_reload" style="shape=partialRectangle;connectable=0;fillColor=none;top=0;left=0;bottom=0;right=0;align=left;spacingLeft=6;overflow=hidden;whiteSpace=wrap;html=1;" parent="8Tx4aNbct0W5j22T1GOp-344" vertex="1">
          <mxGeometry x="30" width="150" height="30" as="geometry">
            <mxRectangle width="150" height="30" as="alternateBounds" />
          </mxGeometry>
        </mxCell>
        <mxCell id="8Tx4aNbct0W5j22T1GOp-350" value="ARMA_MELEE" style="shape=table;startSize=30;container=1;collapsible=1;childLayout=tableLayout;fixedRows=1;rowLines=0;fontStyle=1;align=center;resizeLast=1;html=1;" parent="1" vertex="1">
          <mxGeometry x="2740" y="275" width="180" height="60" as="geometry" />
        </mxCell>
        <mxCell id="8Tx4aNbct0W5j22T1GOp-351" value="" style="shape=tableRow;horizontal=0;startSize=0;swimlaneHead=0;swimlaneBody=0;fillColor=none;collapsible=0;dropTarget=0;points=[[0,0.5],[1,0.5]];portConstraint=eastwest;top=0;left=0;right=0;bottom=1;" parent="8Tx4aNbct0W5j22T1GOp-350" vertex="1">
          <mxGeometry y="30" width="180" height="30" as="geometry" />
        </mxCell>
        <mxCell id="8Tx4aNbct0W5j22T1GOp-352" value="PK" style="shape=partialRectangle;connectable=0;fillColor=none;top=0;left=0;bottom=0;right=0;fontStyle=1;overflow=hidden;whiteSpace=wrap;html=1;" parent="8Tx4aNbct0W5j22T1GOp-351" vertex="1">
          <mxGeometry width="30" height="30" as="geometry">
            <mxRectangle width="30" height="30" as="alternateBounds" />
          </mxGeometry>
        </mxCell>
        <mxCell id="8Tx4aNbct0W5j22T1GOp-353" value="id_arma_melee" style="shape=partialRectangle;connectable=0;fillColor=none;top=0;left=0;bottom=0;right=0;align=left;spacingLeft=6;fontStyle=5;overflow=hidden;whiteSpace=wrap;html=1;" parent="8Tx4aNbct0W5j22T1GOp-351" vertex="1">
          <mxGeometry x="30" width="150" height="30" as="geometry">
            <mxRectangle width="150" height="30" as="alternateBounds" />
          </mxGeometry>
        </mxCell>
        <mxCell id="8Tx4aNbct0W5j22T1GOp-373" value="PROJÉTIL" style="shape=table;startSize=30;container=1;collapsible=1;childLayout=tableLayout;fixedRows=1;rowLines=0;fontStyle=1;align=center;resizeLast=1;html=1;whiteSpace=wrap;" parent="1" vertex="1">
          <mxGeometry x="1794" y="320" width="180" height="220" as="geometry" />
        </mxCell>
        <mxCell id="8Tx4aNbct0W5j22T1GOp-374" value="" style="shape=tableRow;horizontal=0;startSize=0;swimlaneHead=0;swimlaneBody=0;fillColor=none;collapsible=0;dropTarget=0;points=[[0,0.5],[1,0.5]];portConstraint=eastwest;top=0;left=0;right=0;bottom=0;html=1;" parent="8Tx4aNbct0W5j22T1GOp-373" vertex="1">
          <mxGeometry y="30" width="180" height="30" as="geometry" />
        </mxCell>
        <mxCell id="8Tx4aNbct0W5j22T1GOp-375" value="PK" style="shape=partialRectangle;connectable=0;fillColor=none;top=0;left=0;bottom=0;right=0;fontStyle=1;overflow=hidden;html=1;whiteSpace=wrap;" parent="8Tx4aNbct0W5j22T1GOp-374" vertex="1">
          <mxGeometry width="60" height="30" as="geometry">
            <mxRectangle width="60" height="30" as="alternateBounds" />
          </mxGeometry>
        </mxCell>
        <mxCell id="8Tx4aNbct0W5j22T1GOp-376" value="id_projétil" style="shape=partialRectangle;connectable=0;fillColor=none;top=0;left=0;bottom=0;right=0;align=left;spacingLeft=6;fontStyle=5;overflow=hidden;html=1;whiteSpace=wrap;" parent="8Tx4aNbct0W5j22T1GOp-374" vertex="1">
          <mxGeometry x="60" width="120" height="30" as="geometry">
            <mxRectangle width="120" height="30" as="alternateBounds" />
          </mxGeometry>
        </mxCell>
        <mxCell id="8Tx4aNbct0W5j22T1GOp-377" value="" style="shape=tableRow;horizontal=0;startSize=0;swimlaneHead=0;swimlaneBody=0;fillColor=none;collapsible=0;dropTarget=0;points=[[0,0.5],[1,0.5]];portConstraint=eastwest;top=0;left=0;right=0;bottom=1;html=1;" parent="8Tx4aNbct0W5j22T1GOp-373" vertex="1">
          <mxGeometry y="60" width="180" height="30" as="geometry" />
        </mxCell>
        <mxCell id="8Tx4aNbct0W5j22T1GOp-378" value="PK,FK1" style="shape=partialRectangle;connectable=0;fillColor=none;top=0;left=0;bottom=0;right=0;fontStyle=1;overflow=hidden;html=1;whiteSpace=wrap;" parent="8Tx4aNbct0W5j22T1GOp-377" vertex="1">
          <mxGeometry width="60" height="30" as="geometry">
            <mxRectangle width="60" height="30" as="alternateBounds" />
          </mxGeometry>
        </mxCell>
        <mxCell id="8Tx4aNbct0W5j22T1GOp-379" value="id_inst_arma" style="shape=partialRectangle;connectable=0;fillColor=none;top=0;left=0;bottom=0;right=0;align=left;spacingLeft=6;fontStyle=5;overflow=hidden;html=1;whiteSpace=wrap;" parent="8Tx4aNbct0W5j22T1GOp-377" vertex="1">
          <mxGeometry x="60" width="120" height="30" as="geometry">
            <mxRectangle width="120" height="30" as="alternateBounds" />
          </mxGeometry>
        </mxCell>
        <mxCell id="8Tx4aNbct0W5j22T1GOp-380" value="" style="shape=tableRow;horizontal=0;startSize=0;swimlaneHead=0;swimlaneBody=0;fillColor=none;collapsible=0;dropTarget=0;points=[[0,0.5],[1,0.5]];portConstraint=eastwest;top=0;left=0;right=0;bottom=0;html=1;" parent="8Tx4aNbct0W5j22T1GOp-373" vertex="1">
          <mxGeometry y="90" width="180" height="130" as="geometry" />
        </mxCell>
        <mxCell id="8Tx4aNbct0W5j22T1GOp-381" value="" style="shape=partialRectangle;connectable=0;fillColor=none;top=0;left=0;bottom=0;right=0;editable=1;overflow=hidden;html=1;whiteSpace=wrap;" parent="8Tx4aNbct0W5j22T1GOp-380" vertex="1">
          <mxGeometry width="60" height="130" as="geometry">
            <mxRectangle width="60" height="130" as="alternateBounds" />
          </mxGeometry>
        </mxCell>
        <mxCell id="8Tx4aNbct0W5j22T1GOp-382" value="pos_x&lt;div&gt;&lt;br&gt;&lt;/div&gt;&lt;div&gt;pos_y&lt;br&gt;&lt;br&gt;pos_z&lt;br&gt;&lt;br&gt;colidiu&lt;/div&gt;" style="shape=partialRectangle;connectable=0;fillColor=none;top=0;left=0;bottom=0;right=0;align=left;spacingLeft=6;overflow=hidden;html=1;whiteSpace=wrap;" parent="8Tx4aNbct0W5j22T1GOp-380" vertex="1">
          <mxGeometry x="60" width="120" height="130" as="geometry">
            <mxRectangle width="120" height="130" as="alternateBounds" />
          </mxGeometry>
        </mxCell>
        <mxCell id="8Tx4aNbct0W5j22T1GOp-389" value="" style="endArrow=classic;html=1;rounded=0;exitX=-0.003;exitY=0.187;exitDx=0;exitDy=0;exitPerimeter=0;entryX=1;entryY=0.5;entryDx=0;entryDy=0;" parent="1" source="8Tx4aNbct0W5j22T1GOp-307" target="8Tx4aNbct0W5j22T1GOp-377" edge="1">
          <mxGeometry width="50" height="50" relative="1" as="geometry">
            <mxPoint x="2310" y="380" as="sourcePoint" />
            <mxPoint x="2360" y="330" as="targetPoint" />
            <Array as="points">
              <mxPoint x="2240" y="-230" />
              <mxPoint x="2240" y="80" />
              <mxPoint x="2240" y="395" />
            </Array>
          </mxGeometry>
        </mxCell>
        <mxCell id="hc9gpC9gBxmyUrZp8BHt-2" value="FK" style="text;html=1;align=center;verticalAlign=middle;whiteSpace=wrap;rounded=0;" parent="1" vertex="1">
          <mxGeometry x="3723" y="-776" width="24" height="30" as="geometry" />
        </mxCell>
        <mxCell id="hc9gpC9gBxmyUrZp8BHt-3" value="" style="endArrow=classic;html=1;rounded=0;exitX=0;exitY=0.5;exitDx=0;exitDy=0;entryX=0.992;entryY=0.657;entryDx=0;entryDy=0;entryPerimeter=0;" parent="1" source="YPDBUU_ndnuOFF8qk_qy-81" target="YPDBUU_ndnuOFF8qk_qy-61" edge="1">
          <mxGeometry width="50" height="50" relative="1" as="geometry">
            <mxPoint x="3010" y="-1570" as="sourcePoint" />
            <mxPoint x="3060" y="-1620" as="targetPoint" />
            <Array as="points">
              <mxPoint x="3000" y="-1695" />
              <mxPoint x="3000" y="-1530" />
            </Array>
          </mxGeometry>
        </mxCell>
        <mxCell id="hc9gpC9gBxmyUrZp8BHt-5" value="" style="endArrow=classic;html=1;rounded=0;exitX=0.999;exitY=0.201;exitDx=0;exitDy=0;exitPerimeter=0;entryX=-0.007;entryY=0.666;entryDx=0;entryDy=0;entryPerimeter=0;" parent="1" source="YPDBUU_ndnuOFF8qk_qy-93" target="YPDBUU_ndnuOFF8qk_qy-103" edge="1">
          <mxGeometry width="50" height="50" relative="1" as="geometry">
            <mxPoint x="3570" y="-1570" as="sourcePoint" />
            <mxPoint x="3620" y="-1620" as="targetPoint" />
          </mxGeometry>
        </mxCell>
        <mxCell id="hc9gpC9gBxmyUrZp8BHt-6" value="" style="endArrow=classic;html=1;rounded=0;exitX=0;exitY=0.5;exitDx=0;exitDy=0;entryX=1.003;entryY=0.303;entryDx=0;entryDy=0;entryPerimeter=0;" parent="1" source="YPDBUU_ndnuOFF8qk_qy-93" target="YPDBUU_ndnuOFF8qk_qy-61" edge="1">
          <mxGeometry width="50" height="50" relative="1" as="geometry">
            <mxPoint x="3170" y="-1470" as="sourcePoint" />
            <mxPoint x="2880" y="-1546" as="targetPoint" />
          </mxGeometry>
        </mxCell>
        <mxCell id="hc9gpC9gBxmyUrZp8BHt-7" value="" style="endArrow=none;html=1;rounded=0;entryX=-0.005;entryY=0.291;entryDx=0;entryDy=0;entryPerimeter=0;" parent="1" target="YPDBUU_ndnuOFF8qk_qy-150" edge="1">
          <mxGeometry width="50" height="50" relative="1" as="geometry">
            <mxPoint x="3490" y="-1320" as="sourcePoint" />
            <mxPoint x="3650" y="-1350" as="targetPoint" />
          </mxGeometry>
        </mxCell>
        <mxCell id="hc9gpC9gBxmyUrZp8BHt-9" value="" style="endArrow=none;html=1;rounded=0;exitX=1.017;exitY=0.328;exitDx=0;exitDy=0;exitPerimeter=0;entryX=-0.012;entryY=0.287;entryDx=0;entryDy=0;entryPerimeter=0;" parent="1" source="8Tx4aNbct0W5j22T1GOp-20" target="8Tx4aNbct0W5j22T1GOp-94" edge="1">
          <mxGeometry width="50" height="50" relative="1" as="geometry">
            <mxPoint x="2760" y="-890" as="sourcePoint" />
            <mxPoint x="3710" y="-921" as="targetPoint" />
          </mxGeometry>
        </mxCell>
        <mxCell id="hc9gpC9gBxmyUrZp8BHt-10" value="" style="endArrow=classic;html=1;rounded=0;entryX=0;entryY=0.5;entryDx=0;entryDy=0;" parent="1" target="8Tx4aNbct0W5j22T1GOp-30" edge="1">
          <mxGeometry width="50" height="50" relative="1" as="geometry">
            <mxPoint x="3280" y="-1320" as="sourcePoint" />
            <mxPoint x="3200" y="-1080" as="targetPoint" />
            <Array as="points">
              <mxPoint x="3200" y="-1320" />
              <mxPoint x="3200" y="-1085" />
            </Array>
          </mxGeometry>
        </mxCell>
        <mxCell id="hc9gpC9gBxmyUrZp8BHt-11" value="FK" style="text;html=1;align=center;verticalAlign=middle;whiteSpace=wrap;rounded=0;" parent="1" vertex="1">
          <mxGeometry x="2410" y="-833" width="26" height="30" as="geometry" />
        </mxCell>
        <mxCell id="hc9gpC9gBxmyUrZp8BHt-14" value="" style="endArrow=classic;html=1;rounded=0;exitX=-0.004;exitY=0.917;exitDx=0;exitDy=0;exitPerimeter=0;entryX=0;entryY=0.5;entryDx=0;entryDy=0;" parent="1" source="8Tx4aNbct0W5j22T1GOp-20" target="8Tx4aNbct0W5j22T1GOp-291" edge="1">
          <mxGeometry width="50" height="50" relative="1" as="geometry">
            <mxPoint x="2210" y="-810" as="sourcePoint" />
            <mxPoint x="2260" y="-860" as="targetPoint" />
            <Array as="points">
              <mxPoint x="2110" y="-815" />
              <mxPoint x="2110" y="-720" />
              <mxPoint x="1360" y="-720" />
              <mxPoint x="1360" y="5" />
            </Array>
          </mxGeometry>
        </mxCell>
        <mxCell id="hc9gpC9gBxmyUrZp8BHt-15" value="" style="endArrow=classic;html=1;rounded=0;exitX=1;exitY=0.5;exitDx=0;exitDy=0;entryX=0;entryY=0.5;entryDx=0;entryDy=0;" parent="1" source="8Tx4aNbct0W5j22T1GOp-170" target="8Tx4aNbct0W5j22T1GOp-143" edge="1">
          <mxGeometry width="50" height="50" relative="1" as="geometry">
            <mxPoint x="1900" y="-540" as="sourcePoint" />
            <mxPoint x="1950" y="-590" as="targetPoint" />
            <Array as="points">
              <mxPoint x="1880" y="-515" />
            </Array>
          </mxGeometry>
        </mxCell>
        <mxCell id="hc9gpC9gBxmyUrZp8BHt-19" value="" style="endArrow=classic;html=1;rounded=0;exitX=0;exitY=0.25;exitDx=0;exitDy=0;entryX=1.014;entryY=0.307;entryDx=0;entryDy=0;entryPerimeter=0;" parent="1" source="8Tx4aNbct0W5j22T1GOp-251" target="8Tx4aNbct0W5j22T1GOp-180" edge="1">
          <mxGeometry width="50" height="50" relative="1" as="geometry">
            <mxPoint x="1380" y="-840" as="sourcePoint" />
            <mxPoint x="1430" y="-890" as="targetPoint" />
          </mxGeometry>
        </mxCell>
        <mxCell id="hc9gpC9gBxmyUrZp8BHt-21" value="" style="endArrow=classic;html=1;rounded=0;exitX=0;exitY=0.5;exitDx=0;exitDy=0;" parent="1" source="8Tx4aNbct0W5j22T1GOp-252" edge="1">
          <mxGeometry width="50" height="50" relative="1" as="geometry">
            <mxPoint x="1440" y="-670" as="sourcePoint" />
            <mxPoint x="1510" y="-570" as="targetPoint" />
            <Array as="points">
              <mxPoint x="1440" y="-808" />
              <mxPoint x="1440" y="-570" />
            </Array>
          </mxGeometry>
        </mxCell>
        <mxCell id="hc9gpC9gBxmyUrZp8BHt-30" value="" style="endArrow=none;html=1;rounded=0;entryX=0.5;entryY=0;entryDx=0;entryDy=0;" parent="1" target="8Tx4aNbct0W5j22T1GOp-306" edge="1">
          <mxGeometry width="50" height="50" relative="1" as="geometry">
            <mxPoint x="2240" y="-420" as="sourcePoint" />
            <mxPoint x="2510" y="-430" as="targetPoint" />
            <Array as="points">
              <mxPoint x="2499" y="-420" />
            </Array>
          </mxGeometry>
        </mxCell>
        <mxCell id="hc9gpC9gBxmyUrZp8BHt-34" value="FK" style="text;html=1;align=center;verticalAlign=middle;whiteSpace=wrap;rounded=0;" parent="1" vertex="1">
          <mxGeometry x="2862" y="-113" width="26" height="30" as="geometry" />
        </mxCell>
        <mxCell id="hc9gpC9gBxmyUrZp8BHt-37" value="" style="endArrow=classic;html=1;rounded=0;exitX=0.001;exitY=0.381;exitDx=0;exitDy=0;exitPerimeter=0;entryX=0;entryY=0.5;entryDx=0;entryDy=0;" parent="1" source="8Tx4aNbct0W5j22T1GOp-327" target="8Tx4aNbct0W5j22T1GOp-338" edge="1">
          <mxGeometry width="50" height="50" relative="1" as="geometry">
            <mxPoint x="2650" y="-10" as="sourcePoint" />
            <mxPoint x="2700" y="-60" as="targetPoint" />
            <Array as="points">
              <mxPoint x="2710" y="-96" />
              <mxPoint x="2710" y="30" />
              <mxPoint x="2710" y="165" />
            </Array>
          </mxGeometry>
        </mxCell>
        <mxCell id="hc9gpC9gBxmyUrZp8BHt-41" value="" style="endArrow=classic;html=1;rounded=0;exitX=1;exitY=0.5;exitDx=0;exitDy=0;entryX=0;entryY=0.5;entryDx=0;entryDy=0;" parent="1" source="8Tx4aNbct0W5j22T1GOp-307" target="8Tx4aNbct0W5j22T1GOp-324" edge="1">
          <mxGeometry width="50" height="50" relative="1" as="geometry">
            <mxPoint x="2710" y="-180" as="sourcePoint" />
            <mxPoint x="2760" y="-230" as="targetPoint" />
          </mxGeometry>
        </mxCell>
        <mxCell id="g6TWrV2zUab6kG2A-pQS-1" value="FK" style="text;html=1;align=center;verticalAlign=middle;whiteSpace=wrap;rounded=0;" vertex="1" parent="1">
          <mxGeometry x="2051" y="-360" width="26" height="30" as="geometry" />
        </mxCell>
        <mxCell id="g6TWrV2zUab6kG2A-pQS-4" value="" style="endArrow=classic;html=1;rounded=0;fontSize=12;startSize=8;endSize=8;curved=0;exitX=-0.01;exitY=0.73;exitDx=0;exitDy=0;exitPerimeter=0;entryX=1;entryY=0.5;entryDx=0;entryDy=0;" edge="1" parent="1" source="8Tx4aNbct0W5j22T1GOp-146" target="8Tx4aNbct0W5j22T1GOp-264">
          <mxGeometry width="50" height="50" relative="1" as="geometry">
            <mxPoint x="1790" y="-150" as="sourcePoint" />
            <mxPoint x="1840" y="-200" as="targetPoint" />
            <Array as="points">
              <mxPoint x="1800" y="-376" />
              <mxPoint x="1800" y="-315" />
            </Array>
          </mxGeometry>
        </mxCell>
        <mxCell id="g6TWrV2zUab6kG2A-pQS-5" value="FK" style="text;html=1;align=center;verticalAlign=middle;whiteSpace=wrap;rounded=0;" vertex="1" parent="1">
          <mxGeometry x="2365" y="-1673" width="24" height="30" as="geometry" />
        </mxCell>
        <mxCell id="g6TWrV2zUab6kG2A-pQS-7" value="CONSUMÍVEL" style="shape=table;startSize=30;container=1;collapsible=1;childLayout=tableLayout;fixedRows=1;rowLines=0;fontStyle=1;align=center;resizeLast=1;html=1;" vertex="1" parent="1">
          <mxGeometry x="820" y="-640" width="180" height="120" as="geometry" />
        </mxCell>
        <mxCell id="g6TWrV2zUab6kG2A-pQS-8" value="" style="shape=tableRow;horizontal=0;startSize=0;swimlaneHead=0;swimlaneBody=0;fillColor=none;collapsible=0;dropTarget=0;points=[[0,0.5],[1,0.5]];portConstraint=eastwest;top=0;left=0;right=0;bottom=1;" vertex="1" parent="g6TWrV2zUab6kG2A-pQS-7">
          <mxGeometry y="30" width="180" height="30" as="geometry" />
        </mxCell>
        <mxCell id="g6TWrV2zUab6kG2A-pQS-9" value="PK" style="shape=partialRectangle;connectable=0;fillColor=none;top=0;left=0;bottom=0;right=0;fontStyle=1;overflow=hidden;whiteSpace=wrap;html=1;" vertex="1" parent="g6TWrV2zUab6kG2A-pQS-8">
          <mxGeometry width="30" height="30" as="geometry">
            <mxRectangle width="30" height="30" as="alternateBounds" />
          </mxGeometry>
        </mxCell>
        <mxCell id="g6TWrV2zUab6kG2A-pQS-10" value="id_tipo" style="shape=partialRectangle;connectable=0;fillColor=none;top=0;left=0;bottom=0;right=0;align=left;spacingLeft=6;fontStyle=5;overflow=hidden;whiteSpace=wrap;html=1;" vertex="1" parent="g6TWrV2zUab6kG2A-pQS-8">
          <mxGeometry x="30" width="150" height="30" as="geometry">
            <mxRectangle width="150" height="30" as="alternateBounds" />
          </mxGeometry>
        </mxCell>
        <mxCell id="g6TWrV2zUab6kG2A-pQS-11" value="" style="shape=tableRow;horizontal=0;startSize=0;swimlaneHead=0;swimlaneBody=0;fillColor=none;collapsible=0;dropTarget=0;points=[[0,0.5],[1,0.5]];portConstraint=eastwest;top=0;left=0;right=0;bottom=0;" vertex="1" parent="g6TWrV2zUab6kG2A-pQS-7">
          <mxGeometry y="60" width="180" height="30" as="geometry" />
        </mxCell>
        <mxCell id="g6TWrV2zUab6kG2A-pQS-12" value="" style="shape=partialRectangle;connectable=0;fillColor=none;top=0;left=0;bottom=0;right=0;editable=1;overflow=hidden;whiteSpace=wrap;html=1;" vertex="1" parent="g6TWrV2zUab6kG2A-pQS-11">
          <mxGeometry width="30" height="30" as="geometry">
            <mxRectangle width="30" height="30" as="alternateBounds" />
          </mxGeometry>
        </mxCell>
        <mxCell id="g6TWrV2zUab6kG2A-pQS-13" value="qtd_reparação_stamina" style="shape=partialRectangle;connectable=0;fillColor=none;top=0;left=0;bottom=0;right=0;align=left;spacingLeft=6;overflow=hidden;whiteSpace=wrap;html=1;" vertex="1" parent="g6TWrV2zUab6kG2A-pQS-11">
          <mxGeometry x="30" width="150" height="30" as="geometry">
            <mxRectangle width="150" height="30" as="alternateBounds" />
          </mxGeometry>
        </mxCell>
        <mxCell id="g6TWrV2zUab6kG2A-pQS-14" value="" style="shape=tableRow;horizontal=0;startSize=0;swimlaneHead=0;swimlaneBody=0;fillColor=none;collapsible=0;dropTarget=0;points=[[0,0.5],[1,0.5]];portConstraint=eastwest;top=0;left=0;right=0;bottom=0;" vertex="1" parent="g6TWrV2zUab6kG2A-pQS-7">
          <mxGeometry y="90" width="180" height="30" as="geometry" />
        </mxCell>
        <mxCell id="g6TWrV2zUab6kG2A-pQS-15" value="" style="shape=partialRectangle;connectable=0;fillColor=none;top=0;left=0;bottom=0;right=0;editable=1;overflow=hidden;whiteSpace=wrap;html=1;" vertex="1" parent="g6TWrV2zUab6kG2A-pQS-14">
          <mxGeometry width="30" height="30" as="geometry">
            <mxRectangle width="30" height="30" as="alternateBounds" />
          </mxGeometry>
        </mxCell>
        <mxCell id="g6TWrV2zUab6kG2A-pQS-16" value="qtd_reparação_vida" style="shape=partialRectangle;connectable=0;fillColor=none;top=0;left=0;bottom=0;right=0;align=left;spacingLeft=6;overflow=hidden;whiteSpace=wrap;html=1;" vertex="1" parent="g6TWrV2zUab6kG2A-pQS-14">
          <mxGeometry x="30" width="150" height="30" as="geometry">
            <mxRectangle width="150" height="30" as="alternateBounds" />
          </mxGeometry>
        </mxCell>
        <mxCell id="g6TWrV2zUab6kG2A-pQS-20" value="FK" style="text;html=1;align=center;verticalAlign=middle;whiteSpace=wrap;rounded=0;" vertex="1" parent="1">
          <mxGeometry x="1092" y="-788" width="26" height="30" as="geometry" />
        </mxCell>
        <mxCell id="g6TWrV2zUab6kG2A-pQS-21" value="" style="endArrow=classic;html=1;rounded=0;fontSize=12;startSize=8;endSize=8;curved=0;exitX=0;exitY=0.5;exitDx=0;exitDy=0;entryX=1;entryY=0.5;entryDx=0;entryDy=0;" edge="1" parent="1" source="g6TWrV2zUab6kG2A-pQS-20" target="g6TWrV2zUab6kG2A-pQS-8">
          <mxGeometry width="50" height="50" relative="1" as="geometry">
            <mxPoint x="1100" y="-640" as="sourcePoint" />
            <mxPoint x="1150" y="-690" as="targetPoint" />
            <Array as="points">
              <mxPoint x="1040" y="-773" />
              <mxPoint x="1040" y="-595" />
            </Array>
          </mxGeometry>
        </mxCell>
        <mxCell id="g6TWrV2zUab6kG2A-pQS-22" value="" style="endArrow=classic;html=1;rounded=0;fontSize=12;startSize=8;endSize=8;curved=0;entryX=1;entryY=0.5;entryDx=0;entryDy=0;" edge="1" parent="1" target="8Tx4aNbct0W5j22T1GOp-219">
          <mxGeometry width="50" height="50" relative="1" as="geometry">
            <mxPoint x="1040" y="-600" as="sourcePoint" />
            <mxPoint x="1190" y="-450" as="targetPoint" />
            <Array as="points">
              <mxPoint x="1040" y="-435" />
            </Array>
          </mxGeometry>
        </mxCell>
        <mxCell id="g6TWrV2zUab6kG2A-pQS-23" value="" style="endArrow=classic;html=1;rounded=0;fontSize=12;startSize=8;endSize=8;curved=0;exitX=-0.019;exitY=0.917;exitDx=0;exitDy=0;exitPerimeter=0;entryX=1;entryY=0.5;entryDx=0;entryDy=0;" edge="1" parent="1" source="FPdHVrewZq1G3l7FEMrT-5" target="8Tx4aNbct0W5j22T1GOp-64">
          <mxGeometry width="50" height="50" relative="1" as="geometry">
            <mxPoint x="2060" y="-1250" as="sourcePoint" />
            <mxPoint x="2110" y="-1300" as="targetPoint" />
            <Array as="points">
              <mxPoint x="2320" y="-1657" />
              <mxPoint x="2320" y="-1600" />
              <mxPoint x="2320" y="-1575" />
            </Array>
          </mxGeometry>
        </mxCell>
        <mxCell id="g6TWrV2zUab6kG2A-pQS-24" value="" style="endArrow=classic;html=1;rounded=0;fontSize=12;startSize=8;endSize=8;curved=0;entryX=1;entryY=0.5;entryDx=0;entryDy=0;" edge="1" parent="1">
          <mxGeometry width="50" height="50" relative="1" as="geometry">
            <mxPoint x="2320" y="-1575" as="sourcePoint" />
            <mxPoint x="2280" y="-1445" as="targetPoint" />
            <Array as="points">
              <mxPoint x="2320" y="-1480" />
              <mxPoint x="2320" y="-1445" />
            </Array>
          </mxGeometry>
        </mxCell>
        <mxCell id="g6TWrV2zUab6kG2A-pQS-27" value="" style="endArrow=classic;html=1;rounded=0;fontSize=12;startSize=8;endSize=8;curved=1;exitX=1;exitY=0.5;exitDx=0;exitDy=0;entryX=0;entryY=0.5;entryDx=0;entryDy=0;" edge="1" parent="1" source="FPdHVrewZq1G3l7FEMrT-2" target="YPDBUU_ndnuOFF8qk_qy-36">
          <mxGeometry width="50" height="50" relative="1" as="geometry">
            <mxPoint x="2580" y="-1740" as="sourcePoint" />
            <mxPoint x="2630" y="-1790" as="targetPoint" />
          </mxGeometry>
        </mxCell>
        <mxCell id="g6TWrV2zUab6kG2A-pQS-28" value="HOSTIL" style="shape=table;startSize=30;container=1;collapsible=1;childLayout=tableLayout;fixedRows=1;rowLines=0;fontStyle=1;align=center;resizeLast=1;html=1;" vertex="1" parent="1">
          <mxGeometry x="2100" y="-1490" width="180" height="90" as="geometry" />
        </mxCell>
        <mxCell id="g6TWrV2zUab6kG2A-pQS-29" value="" style="shape=tableRow;horizontal=0;startSize=0;swimlaneHead=0;swimlaneBody=0;fillColor=none;collapsible=0;dropTarget=0;points=[[0,0.5],[1,0.5]];portConstraint=eastwest;top=0;left=0;right=0;bottom=1;" vertex="1" parent="g6TWrV2zUab6kG2A-pQS-28">
          <mxGeometry y="30" width="180" height="30" as="geometry" />
        </mxCell>
        <mxCell id="g6TWrV2zUab6kG2A-pQS-30" value="PK" style="shape=partialRectangle;connectable=0;fillColor=none;top=0;left=0;bottom=0;right=0;fontStyle=1;overflow=hidden;whiteSpace=wrap;html=1;" vertex="1" parent="g6TWrV2zUab6kG2A-pQS-29">
          <mxGeometry width="30" height="30" as="geometry">
            <mxRectangle width="30" height="30" as="alternateBounds" />
          </mxGeometry>
        </mxCell>
        <mxCell id="g6TWrV2zUab6kG2A-pQS-31" value="id_hostil" style="shape=partialRectangle;connectable=0;fillColor=none;top=0;left=0;bottom=0;right=0;align=left;spacingLeft=6;fontStyle=5;overflow=hidden;whiteSpace=wrap;html=1;" vertex="1" parent="g6TWrV2zUab6kG2A-pQS-29">
          <mxGeometry x="30" width="150" height="30" as="geometry">
            <mxRectangle width="150" height="30" as="alternateBounds" />
          </mxGeometry>
        </mxCell>
        <mxCell id="g6TWrV2zUab6kG2A-pQS-32" value="" style="shape=tableRow;horizontal=0;startSize=0;swimlaneHead=0;swimlaneBody=0;fillColor=none;collapsible=0;dropTarget=0;points=[[0,0.5],[1,0.5]];portConstraint=eastwest;top=0;left=0;right=0;bottom=0;" vertex="1" parent="g6TWrV2zUab6kG2A-pQS-28">
          <mxGeometry y="60" width="180" height="30" as="geometry" />
        </mxCell>
        <mxCell id="g6TWrV2zUab6kG2A-pQS-33" value="FK" style="shape=partialRectangle;connectable=0;fillColor=none;top=0;left=0;bottom=0;right=0;editable=1;overflow=hidden;whiteSpace=wrap;html=1;" vertex="1" parent="g6TWrV2zUab6kG2A-pQS-32">
          <mxGeometry width="30" height="30" as="geometry">
            <mxRectangle width="30" height="30" as="alternateBounds" />
          </mxGeometry>
        </mxCell>
        <mxCell id="g6TWrV2zUab6kG2A-pQS-34" value="ataques" style="shape=partialRectangle;connectable=0;fillColor=none;top=0;left=0;bottom=0;right=0;align=left;spacingLeft=6;overflow=hidden;whiteSpace=wrap;html=1;" vertex="1" parent="g6TWrV2zUab6kG2A-pQS-32">
          <mxGeometry x="30" width="150" height="30" as="geometry">
            <mxRectangle width="150" height="30" as="alternateBounds" />
          </mxGeometry>
        </mxCell>
        <mxCell id="g6TWrV2zUab6kG2A-pQS-41" value="" style="endArrow=classic;html=1;rounded=0;fontSize=12;startSize=8;endSize=8;curved=1;exitX=0;exitY=0.5;exitDx=0;exitDy=0;entryX=1;entryY=0.5;entryDx=0;entryDy=0;" edge="1" parent="1" target="8Tx4aNbct0W5j22T1GOp-77">
          <mxGeometry width="50" height="50" relative="1" as="geometry">
            <mxPoint x="2100" y="-1414" as="sourcePoint" />
            <mxPoint x="1840" y="-1424" as="targetPoint" />
          </mxGeometry>
        </mxCell>
        <mxCell id="g6TWrV2zUab6kG2A-pQS-42" value="" style="endArrow=classic;html=1;rounded=0;fontSize=12;startSize=8;endSize=8;curved=1;exitX=0;exitY=0.5;exitDx=0;exitDy=0;entryX=1;entryY=0.5;entryDx=0;entryDy=0;" edge="1" parent="1" source="YPDBUU_ndnuOFF8qk_qy-166" target="YPDBUU_ndnuOFF8qk_qy-150">
          <mxGeometry width="50" height="50" relative="1" as="geometry">
            <mxPoint x="3950" y="-1320" as="sourcePoint" />
            <mxPoint x="4000" y="-1370" as="targetPoint" />
          </mxGeometry>
        </mxCell>
        <mxCell id="g6TWrV2zUab6kG2A-pQS-43" value="" style="endArrow=classic;html=1;rounded=0;fontSize=12;startSize=8;endSize=8;curved=0;entryX=0;entryY=0.5;entryDx=0;entryDy=0;" edge="1" parent="1" target="8Tx4aNbct0W5j22T1GOp-351">
          <mxGeometry width="50" height="50" relative="1" as="geometry">
            <mxPoint x="2710" y="160" as="sourcePoint" />
            <mxPoint x="2600" y="100" as="targetPoint" />
            <Array as="points">
              <mxPoint x="2710" y="320" />
            </Array>
          </mxGeometry>
        </mxCell>
      </root>
    </mxGraphModel>
  </diagram>
</mxfile>
